<?xml version="1.0" encoding="UTF-8"?>
<svg id="Layer_2" data-name="Layer 2" xmlns="http://www.w3.org/2000/svg" xmlns:xlink="http://www.w3.org/1999/xlink" viewBox="0 0 1002.61 405.88">
  <defs>
    <style>
      .cls-1 {
        filter: url(#drop-shadow-1);
      }

      .cls-2 {
        fill: #f7a663;
      }

      .cls-2, .cls-3, .cls-4, .cls-5, .cls-6, .cls-7, .cls-8, .cls-9, .cls-10, .cls-11, .cls-12, .cls-13 {
        stroke-width: 0px;
      }

      .cls-3 {
        fill: #f7b08c;
      }

      .cls-4 {
        fill: #f9efc7;
      }

      .cls-5 {
        fill: #5d9d88;
      }

      .cls-6 {
        fill: #0c3248;
      }

      .cls-7 {
        fill: #e0d7b3;
      }

      .cls-8 {
        fill: #c2bc92;
      }

      .cls-9 {
        fill: #ff794f;
      }

      .cls-10 {
        fill: #ffe2d7;
      }

      .cls-11 {
        fill: #fff;
      }

      .cls-12 {
        fill: #eee4b0;
      }

      .cls-13 {
        fill: #f79235;
      }
    </style>
    <filter id="drop-shadow-1" filterUnits="userSpaceOnUse">
      <feOffset dx="4" dy="5"/>
      <feGaussianBlur result="blur" stdDeviation="5"/>
      <feFlood flood-color="#000" flood-opacity=".3"/>
      <feComposite in2="blur" operator="in"/>
      <feComposite in="SourceGraphic"/>
    </filter>
  </defs>
  <g id="BOG">
    <g id="Bog">
      <g class="cls-1">
        <path class="cls-3" d="m885.49,88.85c2.81.79,4.65.99,7.55.99,4.33,0,9.37-1.5,13.84-4.47,4.01-2.66,8.4-6.89,10.29-10.14,1.67-2.86,1.8-7,2.02-10.33-15.18-2.04-21-1.99-27.26,1.21-10.57,5.41-10.42,12.07-13.11,19.72,1.63,1.15,4.68,2.45,6.66,3.01Z"/>
        <path class="cls-3" d="m1002.26,82.5c-1.37-6.08-11.18-8.81-16.48-9.75-4.4-.78-8.96-1.53-13.82-1.89.12,3.58.24,6.19.68,9.75.25,1.57,1.29,7.35,2.17,10,.98,2.93,2.46,7.96,4.33,11.3,8.92-1.08,14.03-3.82,14.03-3.82,0,0,11.58-4.56,9.09-15.59Z"/>
        <path class="cls-6" d="m861.56,111.94s10.74-14.11,15.38-22.06c4.64-7.95,3.38-17.82,14.99-23.77,6.38-3.26,14.66-2.95,30.42-.8,14.57,1.99,30.75,4.23,36.04,4.5,8.78.45,18.68,1.38,27.38,2.93,5.3.94,15.11,3.67,16.48,9.75,2.49,11.03-9.09,15.59-9.09,15.59,0,0-8.95,4.18-20.95,4.34-11.78.16-18.59-1.24-31.83-1.91s-21.16-2.37-29.3,2.48c-6.37,3.8-7.64,6.1-9.79,8.94-2.46,3.25-6.62,15.23-6.62,15.23l-33.12-15.23Z"/>
        <path class="cls-3" d="m773.85,20.17c.93,1.24,1.73,2.06,2.95,3.09.87.73,3.89,3.14,6.69,4.98,3.48,2.28,6.9,4.4,9.96,5.55,4.13-3.15,4.8-4.07,5.34-4.59,5.86-5.52,3.82-9.3,3.08-11.06-1.11-2.67-4.2-5.88-14.19-4.92-8.23.79-11.42,1.67-15.94,3.1.64,1.35,1.34,2.64,2.11,3.86Z"/>
        <path class="cls-3" d="m706.12,66.83c7.95-1.02,16.25-4.34,20.17-11.49,2.91-5.32,2.35-8.83,2.7-14.71.06-1.08-.41-4.2-.63-5.16-9.24,4.62-13.96,6.86-17.6,9.58-2.75,2.05-5.44,6.86-5.32,12.23.48,4.31.67,7.27.68,9.56Z"/>
        <path class="cls-6" d="m696.12,83.78s8.63-6.76,9.32-10.25c.72-3.69,1.08-6.57,0-16.25-.12-5.38,2.57-10.18,5.32-12.23,4.49-3.35,12.73-7.03,25.93-13.79,14.49-7.42,22.45-11.05,30.82-13.62,7.37-2.26,9.64-3.41,20.17-4.43,9.99-.96,13.08,2.25,14.19,4.92.83,1.99,3.02,6.23-5.66,13.44-9.89,8.22-18.45,12.06-26.91,16.98-9.26,5.38-15.81,9.82-19.07,13.27-1.22,1.29-3.4,4.57-5.67,8.38-5.19,8.67-3.2,19.69-3.2,19.69l-45.23-6.1Z"/>
        <path class="cls-5" d="m743.12,110.74c.83-12.6,2.86-17.2-.18-25.45-1.96-5.32-41.06-9.26-51.27-3.76-4.66,2.51-8.62,13.92-12.33,22.07-12.33,27.04-10.59,21.21-24.65,56.55-7.09,17.82-19.28,39.84-22.26,93.82,0,0-17.29-4.11-41.36-6.51-24.07-2.41-44.11-4.6-74.97-4.72-32.13-.12-70.67,6.83-95.47,11.23-19.85,3.52-16.88,8.09-16.88,8.09l-1.27,43.25,321.41,10.43,12.03-60.17s4.09-22.43,6.32-61.33.86-83.49.86-83.49Z"/>
        <path class="cls-11" d="m810.99,258.94c-16.97-10.41-66.12-55.89-67.54-67.2-.23-1.82-17.02,13.16-34.31,38.3-17.06,24.81-19.44,49.11-19.44,49.11,0,0-35.55-7.61-55.1-10.4s-93.97-12.23-128.56-14.83c-22.98-1.73-99.11-.52-101.33,3.29-6.38,10.94-9.37,30.61-18.62,52.88-15.48,37.26-26.25,49.07-21.05,63.65,3.2,8.97,20.31,13.39,68.31,19.62,50.73,6.58,89.45,7.56,94.53,7.75,118.67,4.59,118.4-1.09,140.05-2.52,7.74-.51,32.73,5.59,46.81.47,7.86-2.86,16.59-19.72,16.59-19.72,0,0,7.87-15.47,16.99-29.23,19.35-29.17,45.35-71.74,62.67-91.19"/>
        <path class="cls-5" d="m405.7,260.22c-6.38,10.94-9.37,30.61-18.62,52.88-15.48,37.26-26.25,49.07-21.05,63.65,3.2,8.97,20.31,13.39,68.31,19.62,50.73,6.58,89.45,7.56,94.53,7.75,118.67,4.59,118.4-1.09,140.05-2.52,7.74-.51,32.73,5.59,46.81.47,7.86-2.86,16.59-19.72,16.59-19.72,0,0,7.87-15.47,16.99-29.23,19.35-29.17,45.35-71.74,62.67-91.19,35.07-39.36,30.37-35.91,36.17-43.16,3.68-4.6,11.56-15.32,17.27-21.11,15.19-15.4,41.85-46.74,41.89-56.35.06-14.71-31.24-46.96-50.2-42.89-5.89,1.27-9.36,5.51-11.07,6.81-18.53,14.09-22.49,11.62-66.42,52.8-17.93,16.81-53.52,49.47-69.49,75-15.98,25.52-19.44,49.11-19.44,49.11,0,0-43.55-8.61-63.1-11.4s-85.97-11.23-120.56-13.83c-22.98-1.73-99.11-.52-101.33,3.29Z"/>
        <path class="cls-11" d="m184.82,67.5c19.15-9.97,46.35-1.37,63.53,21.09,18.75,24.5,20.3,53.69,2.21,68.89-2.2,1.85-8.21,4.67-10.89,5.47l-.31-.36-54.55-95.09Z"/>
        <ellipse class="cls-10" cx="212.25" cy="114.15" rx="43.59" ry="55.86" transform="translate(-25.69 152.45) rotate(-37.42)"/>
        <path class="cls-10" d="m293.99,154.09s-10.77-5.18-14.32-7.67c-3.83-2.68-13.64-13.98-14.55-16.26s-13.41,4.66-18.41,8.07-15.52,15.57-15.52,15.57c3.2,3.62,7.87,8.3,9.48,10.29,2.82,3.49,5.81,7.79,7.63,11.42s45.7-21.43,45.7-21.43Z"/>
        <path class="cls-11" d="m196.59,277.52c9.23-26.02,9.6-28.61,12.61-37.21,4.77-13.64,11.72-33.06,26.4-52.81,10.35-13.92,21.14-26.62,32.48-32.24,16.35-8.1,32.54,4.31,36.3,7.1,5.27,3.92,10.1,11.32,13.68,20.96,3.01,8.11,4,14.55,1.39,28.72-4.4,23.89-13.35,41.42-16.68,47.71-6.59,12.44-15.14,24.21-31.96,47.25h0c-3.8,4.89-7.39,9.39-11.25,13.16l-.72-.44-62.25-42.21Z"/>
        <path class="cls-9" d="m336.4,176.23c-13.11-15.23-20.98-24.13-33.7-27.14-1.48-.35-9.44-2.14-19.12.18-8.22,1.97-17.93,6.51-24.45,11.94-17.43,14.51-24.66,28.89-26.15,30.92-7.2,9.75-19.36,26.5-27.42,51.32-5.16,15.88-7.74,23.81-4.62,32.85,1.13,3.28,4.06,9.76,32.04,27.97,20.16,13.12,23.2,12.73,36.66,22.81,6.87,5.15,6.07,5.24,25.25,21.72,14.01,12.03,21.01,18.05,29.32,24.44,21.72,16.68,37.47,28.56,45.62,23.62,2.88-1.75,2.84-4.4,5.97-14.39.09-.29,3.61-11.28,12.76-31.23,6.18-13.47,6.93-15.21,13.6-32.8,5.99-15.8,4.54-23.12,9.28-32.02,5.88-11.04,9.25-14.58,11.35-21.95,1.58-5.53,3.85-15.05-1.17-16.37-9.43-2.48-26.87-3.1-34.1-9.03-3.15-2.59-7.16-4.75-16.91-17.18-8.71-11.1-10.38-14.59-21.57-29.45-6.17-8.19-9.25-12.28-12.64-16.21Z"/>
        <path class="cls-9" d="m315.24,184.47c-3.58-9.64-8.4-17.05-13.68-20.96-3.76-2.79-19.33-15.09-35.68-6.99-11.34,5.62-22.75,18.2-33.1,32.12-14.68,19.74-21.63,39.17-26.4,52.81-3.01,8.6-3.38,11.19-12.04,37.52-6.21,18.86-5.62,16.32-6.48,19.45-3.14,11.37-13.25,47.99,3.71,67.63,2.1,2.44,4.86,5.54,9.26,6.48,9.4,2.01,18.74-7.44,29.64-19.45,1.21-1.33,2.95-3.24,6.37-7.1,2.69-3.04,14.92-16.96,31.15-37.83h0c16.83-23.03,25.37-34.8,31.96-47.25,3.33-6.29,12.28-23.82,16.68-47.71,2.61-14.17,1.62-20.61-1.39-28.72Z"/>
        <path class="cls-9" d="m186.71,302.65l-43.32-29.61-33.81,24.45s18.22,24.11,27.95,33.86c9.92,9.95,15.59,16.17,26.24,24.04s26.87,14.82,37.06,17.14"/>
        <path class="cls-2" d="m171.66,91.62c-1.12-2.84-2.48-5.33-2.41-8.49.11-5.03,3.73-8.37,8.33-9.82,7.27-2.28,17.26.39,17.89,9.26.17,2.39,3.92,2.41,3.75,0-.76-10.81-11.6-15.42-21.23-13.24-4.61,1.04-9.24,3.92-11.39,8.26-2.57,5.17-.49,10.13,1.44,15.03.88,2.22,4.5,1.25,3.62-1h0Z"/>
        <path class="cls-2" d="m245.64,45.68c1.09-4.05,8.69-5.02,12.03-5.05,4.7-.04,7.42,1.4,10.11,5.26,3.57,5.11,3.33,11.42,2.72,17.36-.24,2.4,3.51,2.38,3.75,0,.89-8.72.06-20.2-8.81-24.83-6.31-3.29-21.22-1.94-23.43,6.27-.63,2.33,2.99,3.33,3.62,1h0Z"/>
        <path class="cls-2" d="m268.97,70.26c4.23-5.85,10.6-7.7,16.26-2.41,4.07,3.8,3.27,8.68,3.2,13.8-.03,2.41,3.72,2.42,3.75,0,.05-3.7.7-8.17-.63-11.74-1.12-2.99-4.36-5.86-7.07-7.43-7.23-4.2-14.38-.17-18.76,5.89-1.42,1.96,1.84,3.83,3.24,1.89h0Z"/>
        <path class="cls-2" d="m191.79,39.61c0-3.5-.86-8,.14-11.4,1.2-4.09,5.09-6.72,9.1-7.34,6.08-.93,13.39,3.6,14.26,10.12.32,2.36,4.07,2.39,3.75,0-1.16-8.68-9.64-14.92-18.13-13.91-4.42.53-8.1,2.55-10.57,6.27-3.33,5.01-2.29,10.47-2.29,16.25,0,2.41,3.75,2.42,3.75,0h0Z"/>
        <path class="cls-2" d="m254.07,115.44c.84-3.98,1.52-7.93,5.32-10.15,2.98-1.74,6.79-2.67,10.19-2.86,8.6-.48,13.8,4.74,14.76,13.04.27,2.37,4.03,2.4,3.75,0-1.13-9.7-6.73-16.53-16.79-16.82-4.62-.13-9.78,1.05-13.8,3.4-4.76,2.78-5.97,7.27-7.05,12.39-.5,2.35,3.12,3.36,3.62,1h0Z"/>
        <path class="cls-13" d="m174.14,99c-7.52.07-19.24.82-23.26-7.21-1.63-3.26-1.51-6.23,1.51-8.36,3.36-2.38,7.61-2.92,9.84-6.61s.72-8.16-2.69-10.26c-2.34-1.44-1.18-.5-3.57-2.1-2.17-1.45-2.79-2.27-3.06-4.86-.5-4.87,1.15-9.72,5.54-12.24,2.46-1.41,4.87-1.92,7.66-2.06,2.21-.11,6.22-.78,8.3-.05,3.86,1.34,5.7,8.31,8.11,11.6,4.58,6.26,13.04,3.73,13.98-3.79-.21,1.7,1.93-2.57,2.18-2.97.79-1.27,1.53-2.4,2.55-3.5,2.67-2.89,5.57-3.1,9.33-3.44,2.85-.26,6.76-1.17,8.98,1.09,2.37,2.4,2.67,6.86,3.04,9.99.47,4.02,3.11,7.5,7.5,7.5,3.69,0,7.98-3.45,7.5-7.5-.87-7.37-2.02-15.04-7.43-20.6s-12.31-6.15-19.59-5.48c-7.7.71-14.42,1.95-19.94,7.84-4.35,4.64-8.33,10.71-9.12,17.07l13.98-3.79c-5.38-7.36-8.04-17.52-18.55-18.81-9.68-1.19-20.58-.25-28.64,5.64-7.51,5.49-11.2,15.21-10.29,24.32.5,5.01,1.61,9.51,5.34,13.15,1.51,1.47,3.31,2.69,5.07,3.84.8.52,1.62,1.07,2.46,1.52.57.3,3.52,2.07,1.11.58l-2.69-10.26-.31.52,4.48-3.45c-5.82,1.22-12.79,6.02-15.95,11.03-3.9,6.19-3.14,14.32-.18,20.73,6.54,14.2,23.03,16.05,36.83,15.92,9.65-.09,9.67-15.09,0-15h0Z"/>
        <path class="cls-13" d="m262.85,47.08c2.24-1.13,4.03-2.96,6.28-4.14,2.11-1.1,4.31-1.84,6.59-2.49,4.37-1.25,8.63-2.39,12.5.65,3.09,2.43,5.12,6.15,5.61,10.03.62,4.87-2.6,8.25-5.11,12.06-3.13,4.73.98,11.43,6.48,11.29,3.67-.1,7.56.21,9.96,3.43,1.67,2.23,2.83,6.63,1.81,9.2-1.19,3.01-4.86,7.57-7.48,9.47-4.17,3.03-10.57,2.9-15.46,3.21-9.58.62-9.65,15.63,0,15,8.82-.57,18.81-1.16,25.77-7.36,5.03-4.48,11.08-11.72,12.37-18.48s-1.26-16.02-5.85-21.09c-5.63-6.22-12.89-8.6-21.13-8.38l6.48,11.29c4.44-6.71,7.97-12.71,7-21.13-.85-7.33-4.28-14.23-9.85-19.14-6.18-5.45-13.58-7.24-21.63-5.81-3.71.66-7.37,1.75-10.87,3.15-4.1,1.64-7.23,4.37-11.06,6.3-8.62,4.35-1.03,17.29,7.57,12.95h0Z"/>
        <path class="cls-13" d="m187.29,96.92c1.15,9,6.71,15.75,15.85,17.75,3.81.84,8.03.58,11.57-1.12,1.77-.85,3.35-2.04,4.94-3.18.8-.65,1.63-1.25,2.48-1.82,1.85-1.32,2.05-1.53.59-.64l-9.23-5.24c2.06,7.89,4.42,13.2,11.15,18.11s14.64,5.4,22.57,5.46,16.12-1.48,24.06-3.64c3.72-1.01,7.52-2.31,10.98-4.05,1.69-.85,3.51-1.87,4.81-3.28s1.42-2.77,2.48-4.35c5.42-8.02-7.57-15.53-12.95-7.57-.3.44-2.33,3.32-.97,2.15,1.45-1.25-1.61.37-1.97.52-2.59,1.1-5.27,1.83-7.99,2.53-5.59,1.44-10.94,2.65-16.74,2.7-4.88.04-10.58.4-14.91-2.16s-4.84-5.77-6.06-10.4c-1.12-4.3-5.25-5.78-9.23-5.24s-6.35,4.46-9.71,6.08c-2.08,1-6.37.21-6.73-2.6-.51-4.02-3.08-7.5-7.5-7.5-3.66,0-8.01,3.45-7.5,7.5h0Z"/>
        <path class="cls-13" d="m250.17,119.8c2.15,20.53,25.73,27.57,43.46,25.53,8.99-1.03,16.9-7.38,20.03-15.77,1.59-4.27,2.27-8.6,2.03-13.14-.14-2.74-.36-5.47-1.16-8.11-.65-2.15-2.02-3.97-2.75-6-3.25-9.01-17.75-5.13-14.46,3.99,1.83,5.07,4.32,8.95,3.29,14.68-.9,5.02-3.78,8.69-8.99,9.57-7.08,1.2-25.44-1.08-26.45-10.74-.42-4.03-3.14-7.5-7.5-7.5-3.73,0-7.93,3.45-7.5,7.5h0Z"/>
        <path class="cls-13" d="m299.13,105.65c-8.15.58-16.07,3.11-23.88,5.39-2.78.81-5.85,1.25-7.93,3.49-2.69,2.88-2.88,7.13-.56,10.27,3.27,4.42,10.89,5.48,15.94,6.07,3.8.45,7.74.35,11.37-1s5.68-3.91,8.06-6.7c6.23-7.3-4.33-17.96-10.61-10.61-2.93,3.43-3.13,4.05-7.83,3.4-1.75-.24-3.5-.71-5.19-1.21-1.5-.44-2.47-1.67-.55.19l2.2,5.3-.03-.42-2.2,5.3c-3.21,2.75-.66.94,1.31.37,2.21-.65,4.45-1.17,6.66-1.79,4.38-1.22,8.67-2.74,13.23-3.06,9.57-.68,9.65-15.68,0-15h0Z"/>
        <path class="cls-13" d="m186.08,19.74l-.15.21-1.93,3.31c1.79-1.84,6.57-2.21,8.94-1.82,2.06.34,1.72,1.32.85-.44.19.38-.19,2.2.3,1.12l11.78-1.52-.35-.45,1.93,3.31c.14.61.18.53.12-.23-.03-9.65-15.03-9.67-15,0,0,3.31.64,5.33,2.7,7.97,2.81,3.6,9.93,2.56,11.78-1.52,4.3-9.49.41-20.33-10.23-22.75-8.75-1.99-26.43.97-25.73,12.81.57,9.59,15.57,9.66,15,0h0Z"/>
        <path class="cls-13" d="m217.52,20.61c-.12-.77-.13-1.54-.04-2.31l-1.02,3.79c3.54-7.19,15.86-8.57,22.11-5.04,3.64,2.05,5.18,5.19,6.43,9.03,1.45,4.41.73,9.66,3.03,13.71,4.76,8.4,17.73.85,12.95-7.57l-.4-.71,1.02,3.79c-.5-15.54-7.59-30.69-23.84-34.59-7.38-1.77-16.86-.05-23.33,3.71-5.95,3.46-12.56,8.62-11.92,16.2.81,9.55,15.82,9.63,15,0h0Z"/>
        <path class="cls-13" d="m250.88,27.25c2.2-.34,4.11-1.37,6.35-1.59,1.02-.1,2.04-.14,3.06-.2.58-.05,1.16-.08,1.74-.09.84.02.72-.05-.36-.23.36.7.59,1.62.82,2.41.27.9.41,1.65.51,2.57.13,1.23-.67,2.96.4,1.01l13.98,3.79c-.35-3.42.25-6.63-1.46-10.01s-4.48-5.94-7.64-7.81c-8.34-4.91-15.89,8.05-7.57,12.95,2.58,1.52,1.39,2.06,1.67,4.86.69,6.88,10.1,10.87,13.98,3.79s1.32-18.42-4.05-24.07c-3.03-3.18-7.13-4.36-11.41-4.2-2.2.08-4.42.26-6.6.54-2.6.33-4.86,1.43-7.4,1.83-4.01.62-6.22,5.64-5.24,9.23,1.18,4.28,5.21,5.86,9.23,5.24h0Z"/>
        <path class="cls-13" d="m256.48,33.15c-4.05-1.97-7.64-4.77-11.64-6.85s-8.56-4.09-12.96-5.78c-8.64-3.33-18.09-3.15-27.17-2.04-4.52.55-9.25,1.02-13.68,2.09s-8.06,3.12-12.03,4.92c-6.83,3.09-14.83,4.33-20.86,9.01s-9.53,16.37-5.47,23.61c2.08,3.72,6.17,5.69,10.2,6.36,5.22.87,8.75-.67,12.7-3.96,3.36-2.8,6.41-5.91,9.29-9.19,2.35-2.68,5.21-7.53,8.45-9.15s9.58.95,13.15,1.32c4.54.47,9.35-.13,13.42-2.22,7.18-3.67,3.01-13.38-3.79-13.98-11.1-.98-20.84,3.78-29.62,9.89-5.02,3.5-7.82,7.04-10.68,12.39-1.06,1.99-5.39,12.46-7.59,12.29l3.79,1.02c.63,1.99.86,2.08.68.27.04-.36.12-.71.24-1.05.3-1.53.92-3.04,1.55-4.47,1.26-2.83,2.66-5.92,5.27-7.77s6.15-2.16,9.32-2.75,8.12-1.76,9.94-1.63l-3.79-1.02.62.36-3.45-4.48.17.83v-3.99c-.81,2.91-4.22,6.75-6.32,9.38-2.84,3.56-5.85,7.03-8.53,10.7-2.42,3.32-.49,8.32,2.69,10.26,4.78,2.91,9.97.11,14.04-2.67,5.12-3.51,10.04-7.27,14.95-11.05,5.78-4.43,11.57-8.65,17.91-12.24,5.97-3.37,12.48-8.11,19.44-8.32l-3.79-1.02.84.6-3.71-6.48-.16,1.3,1.02-3.79c-1.67,3.18-2.85,6.06-6.25,7.68-4.47,2.12-9.41,3.4-14,5.27-7.91,3.23-15.09,8.19-22.78,11.92s-13.78,9.66-21.18,13.88-16.62,6.18-23.86,11.35-6.42,16.06-3.4,23.48,10.62,12.74,18.34,15.08c9.43,2.86,18.03,1.41,23.95-6.85,4.7-6.56,7.2-16.6.24-22.51-5.93-5.03-18.86-5.45-25.58-1.96-8.83,4.58-4.23,17.16,2.82,21.2,4.48,2.57,11.97-.6,11.29-6.48-.94-7.99-5.85-18.22-14.57-20.15-4.26-.94-7.7,1.29-9.23,5.24-2.02,5.25,2.92,10.16,6.94,12.73,5.57,3.56,12.56,3.89,18.74,1.79s11.06-7,13.85-12.92c2.47-5.24,5.3-13.39,3.16-19.08-2.5-6.67-10.31-7.18-14.73-2.15-3.52,3.99-5.45,10.47-6.48,15.55-1.39,6.85,3.76,13.37,11.05,11.28,5.27-1.51,10.73-6.61,13.3-11.25,2.96-5.36-.89-10.69-6.48-11.29-2.64-.28-5.91.93-8.36,1.84-3.06,1.13-7.22,2.38-9.28,5.02s-3,5.96-1.17,9.09c1.61,2.76,5.35,4.49,8.47,3.45,10.26-3.43,19.69-10.97,28.6-16.96,4.6-3.1,9.17-6.24,13.82-9.26,4.2-2.73,8.87-6.45,13.75-7.74l-7.3-12.54c-13.53,11.67-31.68,22.35-39.9,38.85-4.29,8.62,8.64,16.22,12.95,7.57,3.64-7.31,10.33-13.06,16.4-18.36,6.89-6.02,14.23-11.48,21.15-17.45,5.88-5.07-.42-14.35-7.3-12.54-10.11,2.67-19.5,10.64-28.03,16.4-4.68,3.16-9.37,6.33-14.14,9.36-4.39,2.79-9.05,6.55-14,8.2l7.3,12.54c-.93.52-.5.33,1.26-.55.95-.46,1.93-.84,2.94-1.14.47-.16,3.27-.73,2.83-.78l-6.48-11.29c-.96,1.73-3.55,4.2-5.17,4.52h3.99l-.65-.22,4.48,3.45-.37-.75,1.02,3.79c.06-2.26,1.48-5.19,2.25-7.29.18-.49.57-.44.35-.78l.45-.83c-.86.22-1.62.65-2.31,1.29h-3.99l.53.19-5.24-5.24c1.25,3.29-2.66,10.8-5.32,12.74-1.61,1.18-4.08,2-6.11,1.58-1-.21-1.75-1.1-2.64-1.31.1.02-.86-1.93.14.93v3.99l.17-.44-9.23,5.24c-.73-.16.91.81,1.4,1.39.94,1.12,1.98,2.8,2.16,4.3l11.29-6.48c1.18.67,1,1.33.21-.17-.42-.79-.82-1.38-.97-2.2v3.99l.33-.79-3.45,4.48c2.42-1.37,5.71.19,8.23-.32l1.17.27c1.03.45.68-.02-1.05-1.4.39-.05-1.66,3.62-1.62,3.57-3.26,4.72-11.77.45-14.94-2.92-2.2-2.33-1.7-4.94-2.48-7.81-.1-.42-.05-.81.16-1.18-1.32,1.47-1.27,1.72.15.73,1.48-.3,3.25-1.96,4.63-2.6,6.55-3.04,13.44-4.84,19.47-9s11.43-8.79,18.06-12.05c6.42-3.16,12.46-6.9,18.81-10.14s14.35-4.54,20.67-8.49c5.77-3.6,10.06-10.41,10.86-17.08.33-2.71-1.72-5.05-3.71-6.48-5.74-4.11-14.97-.41-20.36,2.64-6.47,3.67-13.32,6.83-19.44,11.08s-12.18,9.3-18.37,13.82c-1.86,1.36-3.75,2.69-5.64,4-.76.53-1.53,1.05-2.31,1.56-1.13.73-2.51.73-.7.8l3.79,1.02-.36-.22,2.69,10.26c4.61-6.32,10.58-11.96,14.37-18.89,3.56-6.51,2.28-15.57-6.91-15.53-4.32.02-8.83,1.45-13.05,2.23s-8.17,1.46-11.84,3.59c-7.12,4.13-11.02,11.29-13.79,18.78-2.45,6.62-3.09,15.93,3.76,20.27,7.69,4.87,15.5-1.32,19.63-7.62,2.37-3.61,4.28-7.49,6.33-11.29s3.59-5.36,7.28-7.88c6.01-4.1,12.12-6.87,19.66-6.21l-3.79-13.98c-2.56,1.31-6.9-.03-9.49-.51-3.85-.71-7.29-1.28-11.2-.6-6.72,1.18-10.89,6.01-15.16,10.94-2.22,2.56-4.41,5.15-6.84,7.52-.99.97-4.85,4.79-4.91,3.94,1.11,2.3,1.58,2.68,1.41,1.13-.03-.66,0-1.31.09-1.96.27-1.3.43-1.84,1.34-2.62,1.99-1.72,5.4-2.49,7.85-3.27,5.79-1.84,10.97-4.77,16.58-6.98s13.08-2.64,19.25-2.96c6.91-.35,12.52.26,18.88,2.96s12.35,7.08,18.78,10.2c8.65,4.2,16.26-8.73,7.57-12.95h0Z"/>
        <path class="cls-13" d="m238.62,75.27c9.65,0,9.67-15,0-15s-9.67,15,0,15h0Z"/>
        <path class="cls-13" d="m286.95,44.67c-9.22.61-18.23.7-27.38,2.25-8.6,1.46-16.99,3.8-25.19,6.74s-16.4,5.65-21.3,13.6c-3.32,5.39-9.99,14.46-6,20.96,2.1,3.41,5.91,3.89,9.49,4.67,4.05.88,8.12,1.72,12.23,2.31,8.67,1.26,17.53,1.52,26.11-.53,7.89-1.88,14.59-5.99,20.81-11.06,2.95-2.4,5.72-4.91,7.99-7.98,2.42-3.27,3.25-7.25,5.41-10.57,5.29-8.11-7.69-15.64-12.95-7.57-1.47,2.25-2.07,4.89-3.3,7.27-1.3,2.52-3.18,4.33-5.3,6.18-4.45,3.89-9.28,7.23-15.03,8.85s-12.18,1.71-18.24,1.11c-2.87-.29-5.71-.83-8.54-1.39-1.74-.35-3.48-.7-5.22-1.08-.4-.09-4.44-.98-3.21-.46l3.45,4.48-.3-.89v3.99c1.25-4.16,4.42-11.05,8.18-13.44,5.41-3.43,12.67-5.18,18.77-6.98,13.16-3.89,25.94-4.57,39.51-5.46,9.58-.63,9.65-15.63,0-15h0Z"/>
        <path class="cls-13" d="m280.57,51.95c-10.87.66-21.37,2.29-31.71,5.84-5.14,1.76-10.13,3.91-15.13,6.03-3.93,1.67-8.63,2.76-10.7,6.9-1.34,2.68-1.52,7,1.17,9.09,6.77,5.25,17.16,3.26,24.9,1.3,10.42-2.63,20.4-7.52,29.72-12.77,7.17-4.05,2.25-17.03-5.78-13.71-4.21,1.74-9.83,3.89-12.95,7.38-6.42,7.18,4.16,17.82,10.61,10.61,1.18-1.32,4.73-2.86,6.33-3.52l-5.78-13.71c-7,3.95-14.24,7.6-21.92,10.05-3.25,1.04-6.59,1.95-9.98,2.33-1.38.15-2.77.18-4.16.21-2.31.05-2.82-.67-.38,1.22l1.17,9.09c-.91,1.83-2.33,1.68,1.05.28,2.21-.91,4.4-1.88,6.61-2.79,3.87-1.6,7.77-3.12,11.77-4.38,8.29-2.62,16.51-3.93,25.16-4.45,9.59-.58,9.66-15.59,0-15h0Z"/>
        <path class="cls-13" d="m190.65,96.65c3,.62,5.89,2.31,8.87,3.18,3.3.96,6.4,1.93,9.82,2.42,2.71.39,5.3.47,8.03.22.81-.07,1.66-.13,2.46-.28,2.88-.52,2.44,1.56-1.84-1.96l3.31-12.54c-3.52,1.29-7.48,1.5-11.1,2.83s-7.03,3.42-10.8,4.18l5.78,13.71c1.6-.71,3.19-1.37,4.68-2.29,8.2-5.06.67-18.04-7.57-12.95-1.47.91-3.1,1.59-4.68,2.29-8.16,3.65-2.07,15.3,5.78,13.71,3.83-.78,7.17-2.83,10.8-4.18s7.55-1.54,11.1-2.83c4.77-1.74,8.05-8.64,3.31-12.54-4.2-3.46-8.36-2.21-13.29-2.01-3.56.15-6.61-.72-10-1.73-3.56-1.06-7.1-2.96-10.66-3.7-9.42-1.94-13.45,12.52-3.99,14.46h0Z"/>
        <path class="cls-13" d="m227.24,107.74c.81.17,3.36,3.13,4.59,4.19.79.68,1.73,1.5,2.65,2.02,2.15,1.2,3.13,1.86.97-.12l3.31-12.54c-.97.14-2.19-.18-3.14.1-1.77.53-1.06-1.08.36.61l1.93,7.3c-1.03,1.42-1.09,1.67-.19.75.58-.54,1.18-1.07,1.79-1.58.95-.78,1.93-1.51,2.95-2.19,1.37-.92,3.6-2.63,4.83-2.87l-5.78-.76.63.32-3.45-4.48c.16.72-1.66,4.86-1.97,5.87-.81,2.61-1.57,4.83-1.53,7.61l11.29-6.48c3.06,1.37,1.85,2.64,1.09.34-.63-1.9-1.6-3.76-2.42-5.58-1.99-4.4-4.41-8.56-6.49-12.91s-3.67-9.11-5.52-13.66c-1.2-2.94-2.08-6.48-4.5-8.68-3.55-3.22-9.25-2.81-11.78,1.52s-2.01,10.99-1.54,15.99c.41,4.44.78,10.22,3.44,13.99,1.44,2.03,3.76,4,6.48,3.71l.72-.07c3.06-.32,6.62-2.08,7.23-5.51.94-5.32,2.42-10.53,3.45-15.83.28-1.43,3.11-15.79,2.02-16.14l-1.15,2.07.97-.47c.89-.04,2.02-.64,2.9-.87,2.45-.62,4.96-.99,7.44-1.46,5.37-1.01,10.42-2.82,15.6-4.51,7.46-2.43,6.73-11.77,0-14.46-4.27-1.71-9.27.48-13.58-.32v14.46c8.31-2.28,16.81-3.75,25.07-6.24,3.09-.93,5.22-2.04,6.1,1.49.77,3.05-1.16,6.2-1.49,9.18-.79,6.92-1.62,14.02,5.01,18.23,3.43,2.18,7.43,3.67,11.19,5.17,1.65.66,3.31,1.31,4.99,1.88,1.12.38,6.23,2.83,3,.3l-1.93-7.3c-.73,3.19-4.52,6.98-6.58,9.43-1.66,1.98-4.36,6.76-5.4,7.68l12.8,5.3c-.72-5.79-.82-11.67-1.4-17.49-.4-4.07-.48-7.85-3.44-11.02-3.51-3.75-9.16-2.31-11.78,1.52-1.95,2.84-2.78,6.15-3.67,9.44-.47,1.73-.96,3.44-1.5,5.15-.17.53-1.4,4.1-.69,3.03h12.95c-1.38-3.01-2.3-6.42-3.31-9.56-.8-2.48-1.22-5.56-2.83-7.67-3.1-4.06-10.19-5.6-12.95,0-2.48,5.02-.75,11.13-.16,16.46.4,3.63.69,7.26,1.03,10.9.12,1.35.19,2.67.42,4.02-.12-.71-.3,1.35.08.03l3.45-4.48-.36.23,10.26,2.69c-1.73-3.01-3.06-6.3-4.38-9.5-1.11-2.68-1.78-5.99-3.43-8.39-3.09-4.47-10.02-5.21-12.95,0-2.31,4.12-2.33,9.44-2.42,14.06-.05,2.45-.03,4.9-.02,7.34,0,1.52-.13,3.1.03,4.6-.03-.25.07,2.54.28,1.42l13.71-1.79c-3.74-7.15-4.64-15.2-7.83-22.51-2.69-6.16-12.12-3.93-13.71,1.79-1.23,4.46-1.7,9-2.52,13.53l13.71-1.79c-1.94-3.53-2.63-8.16-5.02-11.39-3.56-4.81-9.38-4.75-12.95,0-1.74,2.32-1.61,5.32-2.08,8.07-.28,1.61-.53,3.22-.68,4.85-.4,4.35-.52,0,3.24.4-4.03-.43-7.5,3.76-7.5,7.5,0,4.41,3.45,7.07,7.5,7.5,5.45.58,9.37-3.8,10.89-8.69.65-2.09.58-4.3.85-6.45.14-1.11.38-2.21.56-3.32l.22-1.47c.41-2.38.39-2.65-.05-.83h-12.95c2.04,2.75,3.13,7.95,5.02,11.39,2.93,5.34,12.55,4.66,13.71-1.79.82-4.53,1.29-9.08,2.52-13.53l-13.71,1.79c1.42,3.26,1.75,7.3,2.94,10.7,1.4,4,2.93,8.06,4.89,11.81,2.86,5.48,12.51,4.55,13.71-1.79.72-3.84.23-7.96.23-11.85,0-2.99-1.09-9.35.39-11.99h-12.95c.94,1.36,2.35,5.93,3.39,8.36,1.37,3.19,2.69,6.52,4.42,9.53,1.95,3.4,6.87,4.89,10.26,2.69,5.68-3.68,4.09-9.86,3.61-15.51-.55-6.54-2.37-13.78-1.97-20.22l-1.02,3.79.29-.59h-12.95c.97,1.27,1.74,5.4,2.46,7.48,1.13,3.28,2.24,6.59,3.69,9.74,2.51,5.47,10.13,4.25,12.95,0,3.38-5.1,2.37-12.53,5.85-17.62l-11.78,1.52c-2.38-2.54-.77-2.53-1.05-.46-.22,1.58.42,3.67.56,5.25.39,4.37.4,8.76.94,13.11.8,6.44,7.6,9.9,12.8,5.3,1.32-1.17,2.05-2.63,2.91-4.12,1.31-2.28,2.98-4.1,4.62-6.15,3.03-3.82,7.2-8.6,8.3-13.46.54-2.39.17-5.66-1.93-7.3-3.42-2.67-7.29-3.29-11.29-4.76-2.13-.78-4.25-1.61-6.32-2.55-1.05-.48-2.09-.99-3.11-1.54-2.28-1.58-2.17-.94.32,1.93.6-.23.35-5.01.44-5.68.22-1.63.87-3.18,1.17-4.83.7-3.85.86-8.17-.22-11.97-2.66-9.31-12.39-13.72-21.31-11.63s-18.86,4.62-28.14,7.16c-6.76,1.86-7.52,13.06,0,14.46,2.52.47,4.68.4,7.2.31,1.31-.05,2.63,0,3.94.01-.12,0,3.16.29,2.44,0v-14.46c-6.09,1.98-11.97,3.82-18.28,4.99-5.32.99-11.56,2.25-15.47,6.29-4.17,4.31-2.94,11.44-3.83,16.95-1.06,6.55-2.96,12.93-4.12,19.46l7.23-5.51-.72.07,6.48,3.71c-2.81-3.97-1.87-13.2-1.38-17.75l-1.02,3.79.51-.87-11.78,1.52c-.9-.81.53,1.8.67,2.14.93,2.28,1.8,4.57,2.69,6.87,1.89,4.89,3.92,9.67,6.38,14.31,1.97,3.7,3.83,7.43,5.48,11.28,1.27,2.96,2.43,6.8,5.66,8.25,4.95,2.21,11.39-.3,11.29-6.48-.12-6.76,7.25-14.45,1.04-20.78-5.21-5.3-12.2-.77-17,2.58-5.31,3.71-14.07,9.74-10.03,17.32,3.51,6.58,12.44,5.53,18.55,4.66,5.62-.81,7.14-9.03,3.31-12.54-1.26-1.15-2.63-1.6-3.94-2.51-.86-.59-1.61-1.23-2.8-2.34-2.44-2.25-4.73-4.39-8.08-5.1-9.42-1.98-13.44,12.48-3.99,14.46h0Z"/>
        <path class="cls-13" d="m243.29,15.51c-10.12-.13-20.56-1.96-30.38.55s-5.38,16.86,3.99,14.46c4.55-1.16,7.95-.56,12.62-.24s9.19.16,13.77.22c9.66.13,9.66-14.87,0-15h0Z"/>
        <path class="cls-13" d="m186.18,20.55c-1.83-.62-4.17-3.48-6.01-4.59-3.17-1.91-5.98-1.13-9.09.26l3.79-1.02-1.32.02,7.23,5.51c-1.33-5.77-7.85-8.64-13.2-9.11-6.12-.54-11.99,1.46-15.56,6.7-5.91,8.66-4.55,23.73,5.59,28.86,4.09,2.07,9.92.51,11.02-4.48.47-2.12.23-4.23.68-6.33.13-.6.31-1.55.65-2.08.29-.46,2-.87,1.21-.84l-5.3-2.2c-1.71-1.36-.39-7.11-1.79-1.61-.3,1.19-.64,2.37-.98,3.55-.78,2.65-1.67,5.27-2.46,7.92-1.51,5.11-1.85,10.62-1.99,15.93-.28,10.62,3.25,19.47,13.98,22.87l1.99-14.73c-1.84-.07-7.39-.43-8.82.52.29-.19-.57.02-.64.06.71-.41.65,2.84.77.82.09-1.56-1.06-3.79-1.1-5.55-.17-9.64-15.17-9.67-15,0,.12,6.57,1.85,14.57,8.17,17.93,5.42,2.88,10.91,1.01,16.61,1.22,8.69.31,9.86-12.24,1.99-14.73-5.13-1.62-3.11-13.15-2.38-17.35,1.24-7.11,6.24-14.45,5.19-21.85-1.24-8.74-10.5-8.93-16.74-5.32-3.5,2.03-5.64,5.12-7.02,8.86-1.07,2.89-1,6.64-1.51,8.91l11.02-4.48c1.44.73-.67-.49-1.14-1.4-.81-1.57-.08.63-.4-.59-.21-.79-.17-2.2-.07-3.07-.14,1.16.25-.84.44-1.31.12-.29,1.47-3.02.33-1.25s1.06-.09.12-.07c.88-.02,1.76.05,2.65.03.3.26.61.49.94.71,1.39,1.04.81.19-1.73-2.55.73,3.16,4.05,5.54,7.23,5.51,1.12.04,2.22-.05,3.32-.28,1.95-.9,2.37-1.05,1.25-.46l-5.78-.76c-1.28-.91.88.78,1.03.9.95.7,1.98,1.29,2.93,2.01,1.95,1.48,3.55,2.59,5.9,3.39,9.16,3.1,13.1-11.38,3.99-14.46h0Z"/>
        <path class="cls-7" d="m106.81,338.37s18.25-32.1,29.14-40.31,29.86-22.45,29.86-22.45l-.32-4.78-22.26-4.59-36.13,38.45-2.02,8.92,1.69,24.84"/>
        <path class="cls-8" d="m165.81,275.61l-.32-4.78,7.81-18.85,21.49-6.31,1.22,3.6c-4.61,3.39-10.45,7.16-13.84,10.18-5.86,4.48-10.96,10.58-16.36,16.16Z"/>
        <polygon class="cls-7" points="0 224.31 7.62 252.51 106.77 338.45 105.08 313.61 0 224.31"/>
        <path class="cls-12" d="m165.49,270.84s3.33-6.22,6.37-10.08c2.83-3.6,9.59-8.9,12.98-10.81,3.64-2.06,9.95-4.27,9.95-4.27l-85.19-68.93s-8.01.82-13.39,1.84-12.16,1.48-19.09,5.19c-6.93,3.71-10.68,8.73-10.68,8.73"/>
        <path class="cls-4" d="m0,224.31l105.08,89.3s4.82-9.74,15.17-19.15c9.14-8.31,16.97-13.49,26.76-17.26,12.55-4.83,18.48-6.36,18.48-6.36l-99.04-78.34s-5.9-.13-19.41,4.29c-13.16,4.31-25.33,10.03-33.97,16.53-8.64,6.5-13.07,10.99-13.07,10.99Z"/>
      </g>
    </g>
  </g>
  <g id="BOG_copy" data-name="BOG copy">
    <g id="Sokker_copy" data-name="Sokker copy">
      <g id="Sok1_copy" data-name="Sok1 copy">
        <path class="cls-6" d="m861.56,111.94s10.74-14.11,15.38-22.06c4.64-7.95,3.38-17.82,14.99-23.77,6.38-3.26,14.66-2.95,30.42-.8,14.57,1.99,30.75,4.23,36.04,4.5,8.78.45,18.68,1.38,27.38,2.93,5.3.94,15.11,3.67,16.48,9.75,2.49,11.03-9.09,15.59-9.09,15.59,0,0-8.95,4.18-20.95,4.34-11.78.16-18.59-1.24-31.83-1.91s-21.16-2.37-29.3,2.48c-6.37,3.8-7.64,6.1-9.79,8.94-2.46,3.25-6.62,15.23-6.62,15.23l-33.12-15.23Z"/>
        <g id="Layer_10_copy_2" data-name="Layer 10 copy 2">
          <path class="cls-3" d="m885.49,88.85c2.81.79,4.65.99,7.55.99,4.33,0,9.37-1.5,13.84-4.47,4.01-2.66,8.4-6.89,10.29-10.14,1.67-2.86,1.8-7,2.02-10.33-15.18-2.04-21-1.99-27.26,1.21-10.57,5.41-10.42,12.07-13.11,19.72,1.63,1.15,4.68,2.45,6.66,3.01Z"/>
          <path class="cls-3" d="m1002.26,82.5c-1.37-6.08-11.18-8.81-16.48-9.75-4.4-.78-8.96-1.53-13.82-1.89.12,3.58.24,6.19.68,9.75.25,1.57,1.29,7.35,2.17,10,.98,2.93,2.46,7.96,4.33,11.3,8.92-1.08,14.03-3.82,14.03-3.82,0,0,11.58-4.56,9.09-15.59Z"/>
        </g>
      </g>
      <g id="Sok2_copy" data-name="Sok2 copy">
        <path class="cls-6" d="m696.12,83.78s8.63-6.76,9.32-10.25c.72-3.69,1.08-6.57,0-16.25-.12-5.38,2.57-10.18,5.32-12.23,4.49-3.35,12.73-7.03,25.93-13.79,14.49-7.42,22.45-11.05,30.82-13.62,7.37-2.26,9.64-3.41,20.17-4.43,9.99-.96,13.08,2.25,14.19,4.92.83,1.99,3.02,6.23-5.66,13.44-9.89,8.22-18.45,12.06-26.91,16.98-9.26,5.38-15.81,9.82-19.07,13.27-1.22,1.29-3.4,4.57-5.67,8.38-5.19,8.67-3.2,19.69-3.2,19.69l-45.23-6.1Z"/>
        <g id="Layer_13_copy_2" data-name="Layer 13 copy 2">
          <path class="cls-3" d="m773.85,20.17c.93,1.24,1.73,2.06,2.95,3.09.87.73,3.89,3.14,6.69,4.98,3.48,2.28,6.9,4.4,9.96,5.55,4.13-3.15,4.8-4.07,5.34-4.59,5.86-5.52,3.82-9.3,3.08-11.06-1.11-2.67-4.2-5.88-14.19-4.92-8.23.79-11.42,1.67-15.94,3.1.64,1.35,1.34,2.64,2.11,3.86Z"/>
          <path class="cls-3" d="m706.12,66.83c7.95-1.02,16.25-4.34,20.17-11.49,2.91-5.32,2.35-8.83,2.7-14.71.06-1.08-.41-4.2-.63-5.16-9.24,4.62-13.96,6.86-17.6,9.58-2.75,2.05-5.44,6.86-5.32,12.23.48,4.31.67,7.27.68,9.56Z"/>
        </g>
      </g>
    </g>
    <g id="Bukser_copy" data-name="Bukser copy">
      <g id="Layer_7_copy" data-name="Layer 7 copy">
        <path class="cls-5" d="m743.12,110.74c.83-12.6,2.86-17.2-.18-25.45-1.96-5.32-41.06-9.26-51.27-3.76-4.66,2.51-8.62,13.92-12.33,22.07-12.33,27.04-10.59,21.21-24.65,56.55-7.09,17.82-19.28,39.84-22.26,93.82,0,0-17.29-4.11-41.36-6.51-24.07-2.41-44.11-4.6-74.97-4.72-32.13-.12-70.67,6.83-95.47,11.23-19.85,3.52-16.88,8.09-16.88,8.09l-1.27,43.25,321.41,10.43,12.03-60.17s4.09-22.43,6.32-61.33.86-83.49.86-83.49Z"/>
      </g>
      <g id="Layer_8_copy" data-name="Layer 8 copy">
        <path class="cls-11" d="m810.99,258.94c-16.97-10.41-66.12-55.89-67.54-67.2-.23-1.82-17.02,13.16-34.31,38.3-17.06,24.81-19.44,49.11-19.44,49.11,0,0-35.55-7.61-55.1-10.4s-93.97-12.23-128.56-14.83c-22.98-1.73-99.11-.52-101.33,3.29-6.38,10.94-9.37,30.61-18.62,52.88-15.48,37.26-26.25,49.07-21.05,63.65,3.2,8.97,20.31,13.39,68.31,19.62,50.73,6.58,89.45,7.56,94.53,7.75,118.67,4.59,118.4-1.09,140.05-2.52,7.74-.51,32.73,5.59,46.81.47,7.86-2.86,16.59-19.72,16.59-19.72,0,0,7.87-15.47,16.99-29.23,19.35-29.17,45.35-71.74,62.67-91.19"/>
      </g>
      <path class="cls-5" d="m405.7,260.22c-6.38,10.94-9.37,30.61-18.62,52.88-15.48,37.26-26.25,49.07-21.05,63.65,3.2,8.97,20.31,13.39,68.31,19.62,50.73,6.58,89.45,7.56,94.53,7.75,118.67,4.59,118.4-1.09,140.05-2.52,7.74-.51,32.73,5.59,46.81.47,7.86-2.86,16.59-19.72,16.59-19.72,0,0,7.87-15.47,16.99-29.23,19.35-29.17,45.35-71.74,62.67-91.19,35.07-39.36,30.37-35.91,36.17-43.16,3.68-4.6,11.56-15.32,17.27-21.11,15.19-15.4,41.85-46.74,41.89-56.35.06-14.71-31.24-46.96-50.2-42.89-5.89,1.27-9.36,5.51-11.07,6.81-18.53,14.09-22.49,11.62-66.42,52.8-17.93,16.81-53.52,49.47-69.49,75-15.98,25.52-19.44,49.11-19.44,49.11,0,0-43.55-8.61-63.1-11.4s-85.97-11.23-120.56-13.83c-22.98-1.73-99.11-.52-101.33,3.29Z"/>
    </g>
    <g id="Ansigt_copy" data-name="Ansigt copy">
      <path class="cls-10" d="m293.99,154.09s-10.77-5.18-14.32-7.67c-3.83-2.68-13.64-13.98-14.55-16.26s-13.41,4.66-18.41,8.07-15.52,15.57-15.52,15.57c3.2,3.62,7.87,8.3,9.48,10.29,2.82,3.49,5.81,7.79,7.63,11.42s45.7-21.43,45.7-21.43Z"/>
      <g id="Layer_18_copy" data-name="Layer 18 copy">
        <path class="cls-11" d="m184.82,67.5c19.15-9.97,46.35-1.37,63.53,21.09,18.75,24.5,20.3,53.69,2.21,68.89-2.2,1.85-8.21,4.67-10.89,5.47l-.31-.36-54.55-95.09Z"/>
      </g>
      <g id="Layer_16_copy" data-name="Layer 16 copy">
        <ellipse class="cls-10" cx="212.25" cy="114.15" rx="43.59" ry="55.86" transform="translate(-25.69 152.45) rotate(-37.42)"/>
      </g>
    </g>
    <g id="Trøje_copy" data-name="Trøje copy">
      <path class="cls-9" d="m336.4,176.23c-13.11-15.23-20.98-24.13-33.7-27.14-1.48-.35-9.44-2.14-19.12.18-8.22,1.97-17.93,6.51-24.45,11.94-17.43,14.51-24.66,28.89-26.15,30.92-7.2,9.75-19.36,26.5-27.42,51.32-5.16,15.88-7.74,23.81-4.62,32.85,1.13,3.28,4.06,9.76,32.04,27.97,20.16,13.12,23.2,12.73,36.66,22.81,6.87,5.15,6.07,5.24,25.25,21.72,14.01,12.03,21.01,18.05,29.32,24.44,21.72,16.68,37.47,28.56,45.62,23.62,2.88-1.75,2.84-4.4,5.97-14.39.09-.29,3.61-11.28,12.76-31.23,6.18-13.47,6.93-15.21,13.6-32.8,5.99-15.8,4.54-23.12,9.28-32.02,5.88-11.04,9.25-14.58,11.35-21.95,1.58-5.53,3.85-15.05-1.17-16.37-9.43-2.48-26.87-3.1-34.1-9.03-3.15-2.59-7.16-4.75-16.91-17.18-8.71-11.1-10.38-14.59-21.57-29.45-6.17-8.19-9.25-12.28-12.64-16.21Z"/>
      <g id="Layer_6_copy" data-name="Layer 6 copy">
        <path class="cls-11" d="m196.59,277.52c9.23-26.02,9.6-28.61,12.61-37.21,4.77-13.64,11.72-33.06,26.4-52.81,10.35-13.92,21.14-26.62,32.48-32.24,16.35-8.1,32.54,4.31,36.3,7.1,5.27,3.92,10.1,11.32,13.68,20.96,3.01,8.11,4,14.55,1.39,28.72-4.4,23.89-13.35,41.42-16.68,47.71-6.59,12.44-15.14,24.21-31.96,47.25h0c-3.8,4.89-7.39,9.39-11.25,13.16l-.72-.44-62.25-42.21Z"/>
      </g>
      <path class="cls-9" d="m315.24,184.47c-3.58-9.64-8.4-17.05-13.68-20.96-3.76-2.79-19.33-15.09-35.68-6.99-11.34,5.62-22.75,18.2-33.1,32.12-14.68,19.74-21.63,39.17-26.4,52.81-3.01,8.6-3.38,11.19-12.04,37.52-6.21,18.86-5.62,16.32-6.48,19.45-3.14,11.37-13.25,47.99,3.71,67.63,2.1,2.44,4.86,5.54,9.26,6.48,9.4,2.01,18.74-7.44,29.64-19.45,1.21-1.33,2.95-3.24,6.37-7.1,2.69-3.04,14.92-16.96,31.15-37.83h0c16.83-23.03,25.37-34.8,31.96-47.25,3.33-6.29,12.28-23.82,16.68-47.71,2.61-14.17,1.62-20.61-1.39-28.72Z"/>
      <path class="cls-9" d="m186.71,302.65l-43.32-29.61-33.81,24.45s18.22,24.11,27.95,33.86c9.92,9.95,15.59,16.17,26.24,24.04s26.87,14.82,37.06,17.14"/>
    </g>
    <g id="Hår_copy" data-name="Hår copy">
      <path class="cls-13" d="m174.14,99c-7.52.07-19.24.82-23.26-7.21-1.63-3.26-1.51-6.23,1.51-8.36,3.36-2.38,7.61-2.92,9.84-6.61s.72-8.16-2.69-10.26c-2.34-1.44-1.18-.5-3.57-2.1-2.17-1.45-2.79-2.27-3.06-4.86-.5-4.87,1.15-9.72,5.54-12.24,2.46-1.41,4.87-1.92,7.66-2.06,2.21-.11,6.22-.78,8.3-.05,3.86,1.34,5.7,8.31,8.11,11.6,4.58,6.26,13.04,3.73,13.98-3.79-.21,1.7,1.93-2.57,2.18-2.97.79-1.27,1.53-2.4,2.55-3.5,2.67-2.89,5.57-3.1,9.33-3.44,2.85-.26,6.76-1.17,8.98,1.09,2.37,2.4,2.67,6.86,3.04,9.99.47,4.02,3.11,7.5,7.5,7.5,3.69,0,7.98-3.45,7.5-7.5-.87-7.37-2.02-15.04-7.43-20.6s-12.31-6.15-19.59-5.48c-7.7.71-14.42,1.95-19.94,7.84-4.35,4.64-8.33,10.71-9.12,17.07l13.98-3.79c-5.38-7.36-8.04-17.52-18.55-18.81-9.68-1.19-20.58-.25-28.64,5.64-7.51,5.49-11.2,15.21-10.29,24.32.5,5.01,1.61,9.51,5.34,13.15,1.51,1.47,3.31,2.69,5.07,3.84.8.52,1.62,1.07,2.46,1.52.57.3,3.52,2.07,1.11.58l-2.69-10.26-.31.52,4.48-3.45c-5.82,1.22-12.79,6.02-15.95,11.03-3.9,6.19-3.14,14.32-.18,20.73,6.54,14.2,23.03,16.05,36.83,15.92,9.65-.09,9.67-15.09,0-15h0Z"/>
      <path class="cls-13" d="m262.85,47.08c2.24-1.13,4.03-2.96,6.28-4.14,2.11-1.1,4.31-1.84,6.59-2.49,4.37-1.25,8.63-2.39,12.5.65,3.09,2.43,5.12,6.15,5.61,10.03.62,4.87-2.6,8.25-5.11,12.06-3.13,4.73.98,11.43,6.48,11.29,3.67-.1,7.56.21,9.96,3.43,1.67,2.23,2.83,6.63,1.81,9.2-1.19,3.01-4.86,7.57-7.48,9.47-4.17,3.03-10.57,2.9-15.46,3.21-9.58.62-9.65,15.63,0,15,8.82-.57,18.81-1.16,25.77-7.36,5.03-4.48,11.08-11.72,12.37-18.48s-1.26-16.02-5.85-21.09c-5.63-6.22-12.89-8.6-21.13-8.38l6.48,11.29c4.44-6.71,7.97-12.71,7-21.13-.85-7.33-4.28-14.23-9.85-19.14-6.18-5.45-13.58-7.24-21.63-5.81-3.71.66-7.37,1.75-10.87,3.15-4.1,1.64-7.23,4.37-11.06,6.3-8.62,4.35-1.03,17.29,7.57,12.95h0Z"/>
      <path class="cls-13" d="m187.29,96.92c1.15,9,6.71,15.75,15.85,17.75,3.81.84,8.03.58,11.57-1.12,1.77-.85,3.35-2.04,4.94-3.18.8-.65,1.63-1.25,2.48-1.82,1.85-1.32,2.05-1.53.59-.64l-9.23-5.24c2.06,7.89,4.42,13.2,11.15,18.11s14.64,5.4,22.57,5.46,16.12-1.48,24.06-3.64c3.72-1.01,7.52-2.31,10.98-4.05,1.69-.85,3.51-1.87,4.81-3.28s1.42-2.77,2.48-4.35c5.42-8.02-7.57-15.53-12.95-7.57-.3.44-2.33,3.32-.97,2.15,1.45-1.25-1.61.37-1.97.52-2.59,1.1-5.27,1.83-7.99,2.53-5.59,1.44-10.94,2.65-16.74,2.7-4.88.04-10.58.4-14.91-2.16s-4.84-5.77-6.06-10.4c-1.12-4.3-5.25-5.78-9.23-5.24s-6.35,4.46-9.71,6.08c-2.08,1-6.37.21-6.73-2.6-.51-4.02-3.08-7.5-7.5-7.5-3.66,0-8.01,3.45-7.5,7.5h0Z"/>
      <path class="cls-13" d="m250.17,119.8c2.15,20.53,25.73,27.57,43.46,25.53,8.99-1.03,16.9-7.38,20.03-15.77,1.59-4.27,2.27-8.6,2.03-13.14-.14-2.74-.36-5.47-1.16-8.11-.65-2.15-2.02-3.97-2.75-6-3.25-9.01-17.75-5.13-14.46,3.99,1.83,5.07,4.32,8.95,3.29,14.68-.9,5.02-3.78,8.69-8.99,9.57-7.08,1.2-25.44-1.08-26.45-10.74-.42-4.03-3.14-7.5-7.5-7.5-3.73,0-7.93,3.45-7.5,7.5h0Z"/>
      <path class="cls-13" d="m299.13,105.65c-8.15.58-16.07,3.11-23.88,5.39-2.78.81-5.85,1.25-7.93,3.49-2.69,2.88-2.88,7.13-.56,10.27,3.27,4.42,10.89,5.48,15.94,6.07,3.8.45,7.74.35,11.37-1s5.68-3.91,8.06-6.7c6.23-7.3-4.33-17.96-10.61-10.61-2.93,3.43-3.13,4.05-7.83,3.4-1.75-.24-3.5-.71-5.19-1.21-1.5-.44-2.47-1.67-.55.19l2.2,5.3-.03-.42-2.2,5.3c-3.21,2.75-.66.94,1.31.37,2.21-.65,4.45-1.17,6.66-1.79,4.38-1.22,8.67-2.74,13.23-3.06,9.57-.68,9.65-15.68,0-15h0Z"/>
      <path class="cls-13" d="m186.08,19.74l-.15.21-1.93,3.31c1.79-1.84,6.57-2.21,8.94-1.82,2.06.34,1.72,1.32.85-.44.19.38-.19,2.2.3,1.12l11.78-1.52-.35-.45,1.93,3.31c.14.61.18.53.12-.23-.03-9.65-15.03-9.67-15,0,0,3.31.64,5.33,2.7,7.97,2.81,3.6,9.93,2.56,11.78-1.52,4.3-9.49.41-20.33-10.23-22.75-8.75-1.99-26.43.97-25.73,12.81.57,9.59,15.57,9.66,15,0h0Z"/>
      <path class="cls-13" d="m217.52,20.61c-.12-.77-.13-1.54-.04-2.31l-1.02,3.79c3.54-7.19,15.86-8.57,22.11-5.04,3.64,2.05,5.18,5.19,6.43,9.03,1.45,4.41.73,9.66,3.03,13.71,4.76,8.4,17.73.85,12.95-7.57l-.4-.71,1.02,3.79c-.5-15.54-7.59-30.69-23.84-34.59-7.38-1.77-16.86-.05-23.33,3.71-5.95,3.46-12.56,8.62-11.92,16.2.81,9.55,15.82,9.63,15,0h0Z"/>
      <path class="cls-13" d="m250.88,27.25c2.2-.34,4.11-1.37,6.35-1.59,1.02-.1,2.04-.14,3.06-.2.58-.05,1.16-.08,1.74-.09.84.02.72-.05-.36-.23.36.7.59,1.62.82,2.41.27.9.41,1.65.51,2.57.13,1.23-.67,2.96.4,1.01l13.98,3.79c-.35-3.42.25-6.63-1.46-10.01s-4.48-5.94-7.64-7.81c-8.34-4.91-15.89,8.05-7.57,12.95,2.58,1.52,1.39,2.06,1.67,4.86.69,6.88,10.1,10.87,13.98,3.79s1.32-18.42-4.05-24.07c-3.03-3.18-7.13-4.36-11.41-4.2-2.2.08-4.42.26-6.6.54-2.6.33-4.86,1.43-7.4,1.83-4.01.62-6.22,5.64-5.24,9.23,1.18,4.28,5.21,5.86,9.23,5.24h0Z"/>
      <path class="cls-13" d="m256.48,33.15c-4.05-1.97-7.64-4.77-11.64-6.85s-8.56-4.09-12.96-5.78c-8.64-3.33-18.09-3.15-27.17-2.04-4.52.55-9.25,1.02-13.68,2.09s-8.06,3.12-12.03,4.92c-6.83,3.09-14.83,4.33-20.86,9.01s-9.53,16.37-5.47,23.61c2.08,3.72,6.17,5.69,10.2,6.36,5.22.87,8.75-.67,12.7-3.96,3.36-2.8,6.41-5.91,9.29-9.19,2.35-2.68,5.21-7.53,8.45-9.15s9.58.95,13.15,1.32c4.54.47,9.35-.13,13.42-2.22,7.18-3.67,3.01-13.38-3.79-13.98-11.1-.98-20.84,3.78-29.62,9.89-5.02,3.5-7.82,7.04-10.68,12.39-1.06,1.99-5.39,12.46-7.59,12.29l3.79,1.02c.63,1.99.86,2.08.68.27.04-.36.12-.71.24-1.05.3-1.53.92-3.04,1.55-4.47,1.26-2.83,2.66-5.92,5.27-7.77s6.15-2.16,9.32-2.75,8.12-1.76,9.94-1.63l-3.79-1.02.62.36-3.45-4.48.17.83v-3.99c-.81,2.91-4.22,6.75-6.32,9.38-2.84,3.56-5.85,7.03-8.53,10.7-2.42,3.32-.49,8.32,2.69,10.26,4.78,2.91,9.97.11,14.04-2.67,5.12-3.51,10.04-7.27,14.95-11.05,5.78-4.43,11.57-8.65,17.91-12.24,5.97-3.37,12.48-8.11,19.44-8.32l-3.79-1.02.84.6-3.71-6.48-.16,1.3,1.02-3.79c-1.67,3.18-2.85,6.06-6.25,7.68-4.47,2.12-9.41,3.4-14,5.27-7.91,3.23-15.09,8.19-22.78,11.92s-13.78,9.66-21.18,13.88-16.62,6.18-23.86,11.35-6.42,16.06-3.4,23.48,10.62,12.74,18.34,15.08c9.43,2.86,18.03,1.41,23.95-6.85,4.7-6.56,7.2-16.6.24-22.51-5.93-5.03-18.86-5.45-25.58-1.96-8.83,4.58-4.23,17.16,2.82,21.2,4.48,2.57,11.97-.6,11.29-6.48-.94-7.99-5.85-18.22-14.57-20.15-4.26-.94-7.7,1.29-9.23,5.24-2.02,5.25,2.92,10.16,6.94,12.73,5.57,3.56,12.56,3.89,18.74,1.79s11.06-7,13.85-12.92c2.47-5.24,5.3-13.39,3.16-19.08-2.5-6.67-10.31-7.18-14.73-2.15-3.52,3.99-5.45,10.47-6.48,15.55-1.39,6.85,3.76,13.37,11.05,11.28,5.27-1.51,10.73-6.61,13.3-11.25,2.96-5.36-.89-10.69-6.48-11.29-2.64-.28-5.91.93-8.36,1.84-3.06,1.13-7.22,2.38-9.28,5.02s-3,5.96-1.17,9.09c1.61,2.76,5.35,4.49,8.47,3.45,10.26-3.43,19.69-10.97,28.6-16.96,4.6-3.1,9.17-6.24,13.82-9.26,4.2-2.73,8.87-6.45,13.75-7.74l-7.3-12.54c-13.53,11.67-31.68,22.35-39.9,38.85-4.29,8.62,8.64,16.22,12.95,7.57,3.64-7.31,10.33-13.06,16.4-18.36,6.89-6.02,14.23-11.48,21.15-17.45,5.88-5.07-.42-14.35-7.3-12.54-10.11,2.67-19.5,10.64-28.03,16.4-4.68,3.16-9.37,6.33-14.14,9.36-4.39,2.79-9.05,6.55-14,8.2l7.3,12.54c-.93.52-.5.33,1.26-.55.95-.46,1.93-.84,2.94-1.14.47-.16,3.27-.73,2.83-.78l-6.48-11.29c-.96,1.73-3.55,4.2-5.17,4.52h3.99l-.65-.22,4.48,3.45-.37-.75,1.02,3.79c.06-2.26,1.48-5.19,2.25-7.29.18-.49.57-.44.35-.78l.45-.83c-.86.22-1.62.65-2.31,1.29h-3.99l.53.19-5.24-5.24c1.25,3.29-2.66,10.8-5.32,12.74-1.61,1.18-4.08,2-6.11,1.58-1-.21-1.75-1.1-2.64-1.31.1.02-.86-1.93.14.93v3.99l.17-.44-9.23,5.24c-.73-.16.91.81,1.4,1.39.94,1.12,1.98,2.8,2.16,4.3l11.29-6.48c1.18.67,1,1.33.21-.17-.42-.79-.82-1.38-.97-2.2v3.99l.33-.79-3.45,4.48c2.42-1.37,5.71.19,8.23-.32l1.17.27c1.03.45.68-.02-1.05-1.4.39-.05-1.66,3.62-1.62,3.57-3.26,4.72-11.77.45-14.94-2.92-2.2-2.33-1.7-4.94-2.48-7.81-.1-.42-.05-.81.16-1.18-1.32,1.47-1.27,1.72.15.73,1.48-.3,3.25-1.96,4.63-2.6,6.55-3.04,13.44-4.84,19.47-9s11.43-8.79,18.06-12.05c6.42-3.16,12.46-6.9,18.81-10.14s14.35-4.54,20.67-8.49c5.77-3.6,10.06-10.41,10.86-17.08.33-2.71-1.72-5.05-3.71-6.48-5.74-4.11-14.97-.41-20.36,2.64-6.47,3.67-13.32,6.83-19.44,11.08s-12.18,9.3-18.37,13.82c-1.86,1.36-3.75,2.69-5.64,4-.76.53-1.53,1.05-2.31,1.56-1.13.73-2.51.73-.7.8l3.79,1.02-.36-.22,2.69,10.26c4.61-6.32,10.58-11.96,14.37-18.89,3.56-6.51,2.28-15.57-6.91-15.53-4.32.02-8.83,1.45-13.05,2.23s-8.17,1.46-11.84,3.59c-7.12,4.13-11.02,11.29-13.79,18.78-2.45,6.62-3.09,15.93,3.76,20.27,7.69,4.87,15.5-1.32,19.63-7.62,2.37-3.61,4.28-7.49,6.33-11.29s3.59-5.36,7.28-7.88c6.01-4.1,12.12-6.87,19.66-6.21l-3.79-13.98c-2.56,1.31-6.9-.03-9.49-.51-3.85-.71-7.29-1.28-11.2-.6-6.72,1.18-10.89,6.01-15.16,10.94-2.22,2.56-4.41,5.15-6.84,7.52-.99.97-4.85,4.79-4.91,3.94,1.11,2.3,1.58,2.68,1.41,1.13-.03-.66,0-1.31.09-1.96.27-1.3.43-1.84,1.34-2.62,1.99-1.72,5.4-2.49,7.85-3.27,5.79-1.84,10.97-4.77,16.58-6.98s13.08-2.64,19.25-2.96c6.91-.35,12.52.26,18.88,2.96s12.35,7.08,18.78,10.2c8.65,4.2,16.26-8.73,7.57-12.95h0Z"/>
      <path class="cls-13" d="m238.62,75.27c9.65,0,9.67-15,0-15s-9.67,15,0,15h0Z"/>
      <path class="cls-13" d="m286.95,44.67c-9.22.61-18.23.7-27.38,2.25-8.6,1.46-16.99,3.8-25.19,6.74s-16.4,5.65-21.3,13.6c-3.32,5.39-9.99,14.46-6,20.96,2.1,3.41,5.91,3.89,9.49,4.67,4.05.88,8.12,1.72,12.23,2.31,8.67,1.26,17.53,1.52,26.11-.53,7.89-1.88,14.59-5.99,20.81-11.06,2.95-2.4,5.72-4.91,7.99-7.98,2.42-3.27,3.25-7.25,5.41-10.57,5.29-8.11-7.69-15.64-12.95-7.57-1.47,2.25-2.07,4.89-3.3,7.27-1.3,2.52-3.18,4.33-5.3,6.18-4.45,3.89-9.28,7.23-15.03,8.85s-12.18,1.71-18.24,1.11c-2.87-.29-5.71-.83-8.54-1.39-1.74-.35-3.48-.7-5.22-1.08-.4-.09-4.44-.98-3.21-.46l3.45,4.48-.3-.89v3.99c1.25-4.16,4.42-11.05,8.18-13.44,5.41-3.43,12.67-5.18,18.77-6.98,13.16-3.89,25.94-4.57,39.51-5.46,9.58-.63,9.65-15.63,0-15h0Z"/>
      <path class="cls-13" d="m280.57,51.95c-10.87.66-21.37,2.29-31.71,5.84-5.14,1.76-10.13,3.91-15.13,6.03-3.93,1.67-8.63,2.76-10.7,6.9-1.34,2.68-1.52,7,1.17,9.09,6.77,5.25,17.16,3.26,24.9,1.3,10.42-2.63,20.4-7.52,29.72-12.77,7.17-4.05,2.25-17.03-5.78-13.71-4.21,1.74-9.83,3.89-12.95,7.38-6.42,7.18,4.16,17.82,10.61,10.61,1.18-1.32,4.73-2.86,6.33-3.52l-5.78-13.71c-7,3.95-14.24,7.6-21.92,10.05-3.25,1.04-6.59,1.95-9.98,2.33-1.38.15-2.77.18-4.16.21-2.31.05-2.82-.67-.38,1.22l1.17,9.09c-.91,1.83-2.33,1.68,1.05.28,2.21-.91,4.4-1.88,6.61-2.79,3.87-1.6,7.77-3.12,11.77-4.38,8.29-2.62,16.51-3.93,25.16-4.45,9.59-.58,9.66-15.59,0-15h0Z"/>
      <path class="cls-13" d="m190.65,96.65c3,.62,5.89,2.31,8.87,3.18,3.3.96,6.4,1.93,9.82,2.42,2.71.39,5.3.47,8.03.22.81-.07,1.66-.13,2.46-.28,2.88-.52,2.44,1.56-1.84-1.96l3.31-12.54c-3.52,1.29-7.48,1.5-11.1,2.83s-7.03,3.42-10.8,4.18l5.78,13.71c1.6-.71,3.19-1.37,4.68-2.29,8.2-5.06.67-18.04-7.57-12.95-1.47.91-3.1,1.59-4.68,2.29-8.16,3.65-2.07,15.3,5.78,13.71,3.83-.78,7.17-2.83,10.8-4.18s7.55-1.54,11.1-2.83c4.77-1.74,8.05-8.64,3.31-12.54-4.2-3.46-8.36-2.21-13.29-2.01-3.56.15-6.61-.72-10-1.73-3.56-1.06-7.1-2.96-10.66-3.7-9.42-1.94-13.45,12.52-3.99,14.46h0Z"/>
      <path class="cls-13" d="m227.24,107.74c.81.17,3.36,3.13,4.59,4.19.79.68,1.73,1.5,2.65,2.02,2.15,1.2,3.13,1.86.97-.12l3.31-12.54c-.97.14-2.19-.18-3.14.1-1.77.53-1.06-1.08.36.61l1.93,7.3c-1.03,1.42-1.09,1.67-.19.75.58-.54,1.18-1.07,1.79-1.58.95-.78,1.93-1.51,2.95-2.19,1.37-.92,3.6-2.63,4.83-2.87l-5.78-.76.63.32-3.45-4.48c.16.72-1.66,4.86-1.97,5.87-.81,2.61-1.57,4.83-1.53,7.61l11.29-6.48c3.06,1.37,1.85,2.64,1.09.34-.63-1.9-1.6-3.76-2.42-5.58-1.99-4.4-4.41-8.56-6.49-12.91s-3.67-9.11-5.52-13.66c-1.2-2.94-2.08-6.48-4.5-8.68-3.55-3.22-9.25-2.81-11.78,1.52s-2.01,10.99-1.54,15.99c.41,4.44.78,10.22,3.44,13.99,1.44,2.03,3.76,4,6.48,3.71l.72-.07c3.06-.32,6.62-2.08,7.23-5.51.94-5.32,2.42-10.53,3.45-15.83.28-1.43,3.11-15.79,2.02-16.14l-1.15,2.07.97-.47c.89-.04,2.02-.64,2.9-.87,2.45-.62,4.96-.99,7.44-1.46,5.37-1.01,10.42-2.82,15.6-4.51,7.46-2.43,6.73-11.77,0-14.46-4.27-1.71-9.27.48-13.58-.32v14.46c8.31-2.28,16.81-3.75,25.07-6.24,3.09-.93,5.22-2.04,6.1,1.49.77,3.05-1.16,6.2-1.49,9.18-.79,6.92-1.62,14.02,5.01,18.23,3.43,2.18,7.43,3.67,11.19,5.17,1.65.66,3.31,1.31,4.99,1.88,1.12.38,6.23,2.83,3,.3l-1.93-7.3c-.73,3.19-4.52,6.98-6.58,9.43-1.66,1.98-4.36,6.76-5.4,7.68l12.8,5.3c-.72-5.79-.82-11.67-1.4-17.49-.4-4.07-.48-7.85-3.44-11.02-3.51-3.75-9.16-2.31-11.78,1.52-1.95,2.84-2.78,6.15-3.67,9.44-.47,1.73-.96,3.44-1.5,5.15-.17.53-1.4,4.1-.69,3.03h12.95c-1.38-3.01-2.3-6.42-3.31-9.56-.8-2.48-1.22-5.56-2.83-7.67-3.1-4.06-10.19-5.6-12.95,0-2.48,5.02-.75,11.13-.16,16.46.4,3.63.69,7.26,1.03,10.9.12,1.35.19,2.67.42,4.02-.12-.71-.3,1.35.08.03l3.45-4.48-.36.23,10.26,2.69c-1.73-3.01-3.06-6.3-4.38-9.5-1.11-2.68-1.78-5.99-3.43-8.39-3.09-4.47-10.02-5.21-12.95,0-2.31,4.12-2.33,9.44-2.42,14.06-.05,2.45-.03,4.9-.02,7.34,0,1.52-.13,3.1.03,4.6-.03-.25.07,2.54.28,1.42l13.71-1.79c-3.74-7.15-4.64-15.2-7.83-22.51-2.69-6.16-12.12-3.93-13.71,1.79-1.23,4.46-1.7,9-2.52,13.53l13.71-1.79c-1.94-3.53-2.63-8.16-5.02-11.39-3.56-4.81-9.38-4.75-12.95,0-1.74,2.32-1.61,5.32-2.08,8.07-.28,1.61-.53,3.22-.68,4.85-.4,4.35-.52,0,3.24.4-4.03-.43-7.5,3.76-7.5,7.5,0,4.41,3.45,7.07,7.5,7.5,5.45.58,9.37-3.8,10.89-8.69.65-2.09.58-4.3.85-6.45.14-1.11.38-2.21.56-3.32l.22-1.47c.41-2.38.39-2.65-.05-.83h-12.95c2.04,2.75,3.13,7.95,5.02,11.39,2.93,5.34,12.55,4.66,13.71-1.79.82-4.53,1.29-9.08,2.52-13.53l-13.71,1.79c1.42,3.26,1.75,7.3,2.94,10.7,1.4,4,2.93,8.06,4.89,11.81,2.86,5.48,12.51,4.55,13.71-1.79.72-3.84.23-7.96.23-11.85,0-2.99-1.09-9.35.39-11.99h-12.95c.94,1.36,2.35,5.93,3.39,8.36,1.37,3.19,2.69,6.52,4.42,9.53,1.95,3.4,6.87,4.89,10.26,2.69,5.68-3.68,4.09-9.86,3.61-15.51-.55-6.54-2.37-13.78-1.97-20.22l-1.02,3.79.29-.59h-12.95c.97,1.27,1.74,5.4,2.46,7.48,1.13,3.28,2.24,6.59,3.69,9.74,2.51,5.47,10.13,4.25,12.95,0,3.38-5.1,2.37-12.53,5.85-17.62l-11.78,1.52c-2.38-2.54-.77-2.53-1.05-.46-.22,1.58.42,3.67.56,5.25.39,4.37.4,8.76.94,13.11.8,6.44,7.6,9.9,12.8,5.3,1.32-1.17,2.05-2.63,2.91-4.12,1.31-2.28,2.98-4.1,4.62-6.15,3.03-3.82,7.2-8.6,8.3-13.46.54-2.39.17-5.66-1.93-7.3-3.42-2.67-7.29-3.29-11.29-4.76-2.13-.78-4.25-1.61-6.32-2.55-1.05-.48-2.09-.99-3.11-1.54-2.28-1.58-2.17-.94.32,1.93.6-.23.35-5.01.44-5.68.22-1.63.87-3.18,1.17-4.83.7-3.85.86-8.17-.22-11.97-2.66-9.31-12.39-13.72-21.31-11.63s-18.86,4.62-28.14,7.16c-6.76,1.86-7.52,13.06,0,14.46,2.52.47,4.68.4,7.2.31,1.31-.05,2.63,0,3.94.01-.12,0,3.16.29,2.44,0v-14.46c-6.09,1.98-11.97,3.82-18.28,4.99-5.32.99-11.56,2.25-15.47,6.29-4.17,4.31-2.94,11.44-3.83,16.95-1.06,6.55-2.96,12.93-4.12,19.46l7.23-5.51-.72.07,6.48,3.71c-2.81-3.97-1.87-13.2-1.38-17.75l-1.02,3.79.51-.87-11.78,1.52c-.9-.81.53,1.8.67,2.14.93,2.28,1.8,4.57,2.69,6.87,1.89,4.89,3.92,9.67,6.38,14.31,1.97,3.7,3.83,7.43,5.48,11.28,1.27,2.96,2.43,6.8,5.66,8.25,4.95,2.21,11.39-.3,11.29-6.48-.12-6.76,7.25-14.45,1.04-20.78-5.21-5.3-12.2-.77-17,2.58-5.31,3.71-14.07,9.74-10.03,17.32,3.51,6.58,12.44,5.53,18.55,4.66,5.62-.81,7.14-9.03,3.31-12.54-1.26-1.15-2.63-1.6-3.94-2.51-.86-.59-1.61-1.23-2.8-2.34-2.44-2.25-4.73-4.39-8.08-5.1-9.42-1.98-13.44,12.48-3.99,14.46h0Z"/>
      <path class="cls-13" d="m243.29,15.51c-10.12-.13-20.56-1.96-30.38.55s-5.38,16.86,3.99,14.46c4.55-1.16,7.95-.56,12.62-.24s9.19.16,13.77.22c9.66.13,9.66-14.87,0-15h0Z"/>
      <path class="cls-13" d="m186.18,20.55c-1.83-.62-4.17-3.48-6.01-4.59-3.17-1.91-5.98-1.13-9.09.26l3.79-1.02-1.32.02,7.23,5.51c-1.33-5.77-7.85-8.64-13.2-9.11-6.12-.54-11.99,1.46-15.56,6.7-5.91,8.66-4.55,23.73,5.59,28.86,4.09,2.07,9.92.51,11.02-4.48.47-2.12.23-4.23.68-6.33.13-.6.31-1.55.65-2.08.29-.46,2-.87,1.21-.84l-5.3-2.2c-1.71-1.36-.39-7.11-1.79-1.61-.3,1.19-.64,2.37-.98,3.55-.78,2.65-1.67,5.27-2.46,7.92-1.51,5.11-1.85,10.62-1.99,15.93-.28,10.62,3.25,19.47,13.98,22.87l1.99-14.73c-1.84-.07-7.39-.43-8.82.52.29-.19-.57.02-.64.06.71-.41.65,2.84.77.82.09-1.56-1.06-3.79-1.1-5.55-.17-9.64-15.17-9.67-15,0,.12,6.57,1.85,14.57,8.17,17.93,5.42,2.88,10.91,1.01,16.61,1.22,8.69.31,9.86-12.24,1.99-14.73-5.13-1.62-3.11-13.15-2.38-17.35,1.24-7.11,6.24-14.45,5.19-21.85-1.24-8.74-10.5-8.93-16.74-5.32-3.5,2.03-5.64,5.12-7.02,8.86-1.07,2.89-1,6.64-1.51,8.91l11.02-4.48c1.44.73-.67-.49-1.14-1.4-.81-1.57-.08.63-.4-.59-.21-.79-.17-2.2-.07-3.07-.14,1.16.25-.84.44-1.31.12-.29,1.47-3.02.33-1.25s1.06-.09.12-.07c.88-.02,1.76.05,2.65.03.3.26.61.49.94.71,1.39,1.04.81.19-1.73-2.55.73,3.16,4.05,5.54,7.23,5.51,1.12.04,2.22-.05,3.32-.28,1.95-.9,2.37-1.05,1.25-.46l-5.78-.76c-1.28-.91.88.78,1.03.9.95.7,1.98,1.29,2.93,2.01,1.95,1.48,3.55,2.59,5.9,3.39,9.16,3.1,13.1-11.38,3.99-14.46h0Z"/>
      <g id="Layer_17_copy" data-name="Layer 17 copy">
        <path class="cls-2" d="m171.66,91.62c-1.12-2.84-2.48-5.33-2.41-8.49.11-5.03,3.73-8.37,8.33-9.82,7.27-2.28,17.26.39,17.89,9.26.17,2.39,3.92,2.41,3.75,0-.76-10.81-11.6-15.42-21.23-13.24-4.61,1.04-9.24,3.92-11.39,8.26-2.57,5.17-.49,10.13,1.44,15.03.88,2.22,4.5,1.25,3.62-1h0Z"/>
        <path class="cls-2" d="m245.64,45.68c1.09-4.05,8.69-5.02,12.03-5.05,4.7-.04,7.42,1.4,10.11,5.26,3.57,5.11,3.33,11.42,2.72,17.36-.24,2.4,3.51,2.38,3.75,0,.89-8.72.06-20.2-8.81-24.83-6.31-3.29-21.22-1.94-23.43,6.27-.63,2.33,2.99,3.33,3.62,1h0Z"/>
        <path class="cls-2" d="m268.97,70.26c4.23-5.85,10.6-7.7,16.26-2.41,4.07,3.8,3.27,8.68,3.2,13.8-.03,2.41,3.72,2.42,3.75,0,.05-3.7.7-8.17-.63-11.74-1.12-2.99-4.36-5.86-7.07-7.43-7.23-4.2-14.38-.17-18.76,5.89-1.42,1.96,1.84,3.83,3.24,1.89h0Z"/>
        <path class="cls-2" d="m191.79,39.61c0-3.5-.86-8,.14-11.4,1.2-4.09,5.09-6.72,9.1-7.34,6.08-.93,13.39,3.6,14.26,10.12.32,2.36,4.07,2.39,3.75,0-1.16-8.68-9.64-14.92-18.13-13.91-4.42.53-8.1,2.55-10.57,6.27-3.33,5.01-2.29,10.47-2.29,16.25,0,2.41,3.75,2.42,3.75,0h0Z"/>
        <path class="cls-2" d="m254.07,115.44c.84-3.98,1.52-7.93,5.32-10.15,2.98-1.74,6.79-2.67,10.19-2.86,8.6-.48,13.8,4.74,14.76,13.04.27,2.37,4.03,2.4,3.75,0-1.13-9.7-6.73-16.53-16.79-16.82-4.62-.13-9.78,1.05-13.8,3.4-4.76,2.78-5.97,7.27-7.05,12.39-.5,2.35,3.12,3.36,3.62,1h0Z"/>
      </g>
    </g>
    <g id="Bog_copy" data-name="Bog copy">
      <path class="cls-8" d="m165.81,275.61l-.32-4.78,7.81-18.85,21.49-6.31,1.22,3.6c-4.61,3.39-10.45,7.16-13.84,10.18-5.86,4.48-10.96,10.58-16.36,16.16Z"/>
      <polygon class="cls-7" points="0 224.31 7.62 252.51 106.77 338.45 105.08 313.61 0 224.31"/>
      <path class="cls-12" d="m165.49,270.84s3.33-6.22,6.37-10.08c2.83-3.6,9.59-8.9,12.98-10.81,3.64-2.06,9.95-4.27,9.95-4.27l-85.19-68.93s-8.01.82-13.39,1.84-12.16,1.48-19.09,5.19c-6.93,3.71-10.68,8.73-10.68,8.73"/>
      <g id="Layer_19_copy" data-name="Layer 19 copy">
        <path class="cls-7" d="m106.81,338.37s18.25-32.1,29.14-40.31,29.86-22.45,29.86-22.45l-.32-4.78-22.26-4.59-36.13,38.45-2.02,8.92,1.69,24.84"/>
      </g>
      <path class="cls-4" d="m0,224.31l105.08,89.3s4.82-9.74,15.17-19.15c9.14-8.31,16.97-13.49,26.76-17.26,12.55-4.83,18.48-6.36,18.48-6.36l-99.04-78.34s-5.9-.13-19.41,4.29c-13.16,4.31-25.33,10.03-33.97,16.53-8.64,6.5-13.07,10.99-13.07,10.99Z"/>
    </g>
  </g>
</svg>