<?xml version="1.0" encoding="UTF-8"?>
<svg id="Layer_2" data-name="Layer 2" xmlns="http://www.w3.org/2000/svg" xmlns:xlink="http://www.w3.org/1999/xlink" viewBox="0 0 71.28 71.04">
  <defs>
    <style>
      .cls-1 {
        fill: #dcecf6;
        filter: url(#drop-shadow-1);
      }

      .cls-1, .cls-2 {
        stroke-width: 0px;
      }

      .cls-2 {
        fill: #f47851;
      }
    </style>
    <filter id="drop-shadow-1" filterUnits="userSpaceOnUse">
      <feOffset dx="2.83" dy="2.83"/>
      <feGaussianBlur result="blur" stdDeviation="2.83"/>
      <feFlood flood-color="#000" flood-opacity=".3"/>
      <feComposite in2="blur" operator="in"/>
      <feComposite in="SourceGraphic"/>
    </filter>
  </defs>
  <g id="Layer_7" data-name="Layer 7">
    <rect class="cls-1" x="5.83" y="5.76" width="53.86" height="53.86" rx="19.84" ry="19.84"/>
    <path class="cls-2" d="m35.57,26.7c5.77,3.73,13.53,7.22,12.91,11.76-.68,4.89-7.69,8.67-16.95,10.64-7.16,1.52-13.39.28-13.14-4.45.19-3.69,3.35-5.87,6.77-6.04,1.76-.09,3.79.63,4.42,1.44-.31.64-.66,1.72-.73,2.68-.09,1.15,1,2.09,2.22,1.91s2.68-1.31,2.83-3.05c.14-1.61-.97-2.87-2.67-3.57-4.91-2.22-11.84-7.01-11.44-14.58.36-6.85,8.35-8.85,16.34-6.73,7.33,1.95,12.3,5.41,11.95,8.1-.29,2.22-3.08,3.33-6.12,2.98-1.96-.23-3.5-1.27-3.83-1.87.26-.4.38-1.07.44-1.71.14-1.45-1.08-2.69-2.45-2.97-1.48-.3-2.43.44-2.53,1.59-.12,1.47.75,2.97,1.99,3.85Z"/>
  </g>
</svg>