<?xml version="1.0" encoding="UTF-8"?>
<svg id="Layer_2" data-name="Layer 2" xmlns="http://www.w3.org/2000/svg" viewBox="0 0 224.19 928.8">
  <defs>
    <style>
      .cls-1 {
        fill: #5d9e89;
        stroke-width: 0px;
      }
    </style>
  </defs>
  <g id="Layer_8" data-name="Layer 8">
    <path class="cls-1" d="m5.24,207.72c0-32.01-11.79-174.95,0-195.66,19.65-34.5,79.32,11.14,88.95,59.71,15.75,79.35,85.37,59.23,118.42,137.41,23.69,56.04,4.6,142.76-1.02,171.96-8.67,45.06,10.81,114.08,10.81,151.16,0,68.86-67.86,114.62-76.03,150.13-12.93,56.21,1.9,105.3-47.93,160.15-43.13,47.48-93.2,113.32-93.2,74.43,0-53.38,0-297.13,0-360.27,0-14.44,0-99.48,0-117.61,0-55.71,0-188.82,0-231.41Z"/>
  </g>
</svg>