<?xml version="1.0" encoding="UTF-8"?>
<svg id="Layer_2" data-name="Layer 2" xmlns="http://www.w3.org/2000/svg" xmlns:xlink="http://www.w3.org/1999/xlink" viewBox="0 0 344.39 429.93">
  <defs>
    <style>
      .cls-1 {
        filter: url(#drop-shadow-1);
      }

      .cls-2 {
        fill: #f7a663;
      }

      .cls-2, .cls-3, .cls-4, .cls-5, .cls-6, .cls-7 {
        stroke-width: 0px;
      }

      .cls-3 {
        fill: #0c3248;
      }

      .cls-4 {
        fill: #ffe2d7;
      }

      .cls-5 {
        fill: #fff;
      }

      .cls-6 {
        fill: #ffbc22;
      }

      .cls-7 {
        fill: #f79235;
      }
    </style>
    <filter id="drop-shadow-1" filterUnits="userSpaceOnUse">
      <feOffset dx="4" dy="5"/>
      <feGaussianBlur result="blur" stdDeviation="5"/>
      <feFlood flood-color="#000" flood-opacity=".3"/>
      <feComposite in2="blur" operator="in"/>
      <feComposite in="SourceGraphic"/>
    </filter>
  </defs>
  <g id="LAPTOP_copy" data-name="LAPTOP copy">
    <g id="HØRETLF">
      <g class="cls-1">
        <path class="cls-7" d="m137.8,153.51c-5.64,2.18-12.35,5.27-18.55,4.12-3.48-.65-7.56-3.74-6.42-7.59s-1.35-8.28-5.24-9.23c-5.8-1.41-11.42-.86-17.3-.55-4.96.26-8.57.55-9.88-4.91s-3.25-12.87-.59-18.2c2.34-4.69,8.46-4.02,11.97-7.64,5.23-5.4,2.57-12-1.66-16.88-3.66-4.24-6.32-9.14-6.92-14.8-1.15-10.91,6.97-21.13,18.26-20.74,6.23.22,8.61-6.41,6.48-11.29-1.93-4.4-5.19-10.06-4.21-15.07,1.11-5.67,7.89-9.32,12.46-11.9s10.06-4.78,15.4-3.66c4.08.86,8.18,3.95,8.26,8.37.15,7.76,9.85,9.78,13.98,3.79,5.79-8.4,17.05-12.29,26.92-12.09,7.03.14,20.34,4.76,17.97,13.9-1.27,4.9,2.35,9.25,7.23,9.49,6.4.31,12.79.82,19.15,1.65,4.03.52,10.73.59,13.48,4.15,4.82,6.23.17,16.86.35,23.81.13,5.27,2.62,9.93,7.35,12.45,3.69,1.96,6.77,2.05,8.33,6.4,3.36,9.37-5.95,17.85-12.16,23.35-3.2,2.84-2.5,7.67,0,10.61,9.06,10.64.94,25.1-7.63,32.94-7.27,6.65-21.12,14.13-29.79,5.89-5.11-4.86-10.47-9.19-17.94-6.61-6.47,2.23-11.03,8.69-16.59,12.47-7.17,4.87-23.82,10.65-28.06-1.41-3.18-9.05-17.68-5.15-14.46,3.99,4.16,11.82,15.82,18.6,28.17,18.22,7.03-.22,13.91-2.84,19.85-6.5,2.9-1.79,5.61-3.87,8.26-6.01,1.51-1.22,2.98-2.5,4.42-3.8.63-.57,2.19-2.57,3.02-2.71-.62.1.54.75,1.19,1.39,1.03,1.01,2.01,2.06,3.11,3,2.54,2.18,5.32,3.82,8.47,4.95,5.92,2.14,12.64,1.84,18.67.33,12.74-3.19,24.09-12.29,31.29-23.11,8.95-13.44,9.31-31.12-1.37-43.65v10.61c9.21-8.16,18.31-19.02,17.06-32.17-.54-5.69-2.58-11.4-6.68-15.54-2.11-2.13-4.6-3.63-7.35-4.77-1.27-.53-2.64-1.88-2.2-.31-.29-1,.18-2.41.31-3.45,1.35-11.15,2.89-23.94-6.4-32.32-4.98-4.49-11.44-5.65-17.85-6.55-7.97-1.12-15.96-1.9-24-2.3,2.41,3.16,4.82,6.33,7.23,9.49,4.56-17.52-11.69-30.44-27.67-32.47-16.91-2.15-34.89,4.97-44.64,19.11,4.66,1.26,9.32,2.52,13.98,3.79-.18-9.25-5.86-17.09-14.18-20.97-9.56-4.46-19.92-2.65-29.13,1.78s-18.15,10.75-21.58,20.24c-3.62,10,1.06,19.71,5.03,28.78l6.48-11.29c-14.53-.5-27.72,9.69-31.93,23.45-2.11,6.89-1.82,14.77.42,21.59,1.13,3.45,2.66,6.86,4.66,9.9,1.8,2.73,4.68,5.09,6.07,7.95l-1.02-3.79c2.72-2.42,3.07-3.18,1.03-2.29-.72.21-1.44.44-2.15.67-1.99.71-3.76,1.61-5.46,2.85-3.54,2.6-6.03,6.18-7.6,10.26-3.22,8.37-1.67,18.18.46,26.65,2,7.95,7.35,14.12,15.66,15.54,7.29,1.25,14.84-1.33,21.99.41l-5.24-9.23c-2.85,9.59,2.61,19.38,11.2,23.9,10.34,5.44,22.04,1.97,32.22-1.98,3.76-1.46,6.41-5.04,5.24-9.23-1.01-3.6-5.42-6.71-9.23-5.24h0Z"/>
        <g>
          <path class="cls-5" d="m237.47,96.02c1.67-12.52-4.97-24.86-13.78-33.91-8.81-9.05-19.75-15.7-29.55-23.67-3.74-3.04-7.41-2.57-11.88-4.38-4.38-1.77-9.21-1.99-13.93-2.18-12.95-.52-25.9-1.05-38.85-1.57-2.29-.09-4.68-.16-6.73.85-6.28,3.11-4.36,8.59-5.92,15.42-2.5,10.99-15.76,17.82-16.21,29.08-.21,5.22,2.51,10.08,3.37,15.23,1.99,11.82-5.75,22.86-13.07,32.35,8.95,1.35,18.24,2.83,25.73,7.91,5.06,3.43,8.96,8.29,13.66,12.19s10.84,6.91,16.79,5.54c5.16-1.19,12-4.84,14.56-.2-.35,2.94-2.49,5.6-5.29,6.58,13.07-1.98,26.13-3.97,39.2-5.95,3.84-.58,7.86-1.15,11.52.14,2.2.77,4.21,2.2,6.53,2.44,5.32.55,9.01-5.01,11.4-9.8,2.38-4.79,4.76-9.58,7.14-14.37,1.3-2.61,2.6-5.74,1.2-8.3-1.04-1.91-3.26-2.81-5.33-3.48-25.98-8.34-54.4-1.94-81.32-6.35-1.99-.33-4.07-.76-5.62-2.06-1.39-1.17-2.16-2.9-2.81-4.6-3-7.93-4.06-16.98-.81-24.8,3.25-7.82,11.61-13.84,19.98-12.51,3.17.5,6.09,1.95,8.96,3.39,14.01,7.01,28.02,14.02,42.03,21.03-6.81-.19-13.61-.39-20.42-.58"/>
          <path class="cls-7" d="m259.97,96.02c2.4-22.89-12.3-44.15-29.32-57.85-4.63-3.72-9.39-7.28-14.17-10.81-1.62-1.19-3.25-2.38-4.86-3.59-.59-.44-3.49-2.76-1.15-.86,1.37,1.06,1.22.93-.43-.38l-4.55-3.52c-4.38-3.08-9.35-4.32-14.39-5.72-6.17-1.71-11.83-3.16-18.34-3.67-10.5-.83-21.11-.91-31.63-1.34-4.98-.2-10.13-.8-15.11-.46-8.54.59-16.06,3.68-22.21,9.75-5.79,5.71-7.58,13.32-8.48,21.06-.1.82-.18,1.64-.25,2.46-.25,3-.69-.85.33-1.92-.22.23-.57,2.45-.6,2.65-.65,3.57,2.02-3.19.55-1.39-.47.58-4.03,5.5-1.42,2.45s-1.4,1.65-1.89,2.25c-3.17,3.89-6.55,7.8-8.92,12.25-3.25,6.12-5.25,13.05-4.98,20.03.15,3.96.94,8.09,2.06,11.9.33,1.12.7,2.23,1.03,3.35,1.22,4.17-.43,1.3.46-.14.12-.19.17,3.16.09,3.18.55-3.1.65-3.79.32-2.07-.14.78-.32,1.55-.54,2.32-.13.45-1.1,2.91-1.02,3.04-.54-.91,2.02-4.23-.16-.19-2.52,4.66-5.68,8.91-8.89,13.1-8.26,10.78.1,31.02,13.45,33.05,3.38.51,6.76,1.02,10.1,1.76,1.66.37,3.32.77,4.95,1.26.81.24,1.61.5,2.41.79,1.57.57,1.07.35-1.49-.67.06-.09,4.45,2.34,4.39,2.5-2.1-1.71-2.52-2.04-1.27-.98.64.53,1.26,1.09,1.86,1.66,2.46,2.26,4.74,4.71,7.25,6.91,8.3,7.3,17.8,12.82,29.09,13.43,4.27.23,8.59-.37,12.71-1.51,1.29-.36,2.58-.77,3.86-1.17.63-.19,1.27-.35,1.92-.49-7.08,1.7-13.24-1.09-18.48-8.38-.76-5.78-1.51-11.56-2.27-17.34-.91,3.71.31,1.9,3.64-5.42,3.03-2.01,3.5-2.49,1.41-1.45-10.19,4.55-13.14,18.77-9.21,28.1,4.68,11.08,15.25,14.74,26.54,13.03,11.43-1.74,22.87-3.47,34.3-5.21,1.31-.2,2.62-.37,3.92-.6,3.57-.61-4.11.1-.85.13.95,0,4.32-.75,1.14-.35l-1.35-.23c2.54.77,2.14.54-1.2-.7,3.14,1.17,6.03,2.91,9.32,3.59,5.06,1.04,10.09.95,15.07-.41,13.57-3.71,19.96-16.17,25.7-27.72,2.56-5.15,5.53-10.37,7.05-15.93,2.73-9.94-.47-20.88-7.92-27.88-9.84-9.24-26.16-10.79-38.94-12.06-10.59-1.05-21.24-.78-31.87-.76-5.18.01-10.37-.02-15.55-.28-2.43-.12-4.84-.34-7.27-.53-1.14-.09-4.34-.02.57.14-1.34-.05-3.61-1.25-4.77-.94l4.56,3.42c3.16,1.13,5.07,3.23,5.71,6.3-.34-.21-1.06-3.14-1.09-3.22-.33-1.1-.56-2.21-.85-3.31-.92-3.55.71.69.05.92-.05.02-.08-2.97-.1-3.38-.27-4.68.33.89-.27.98.58-.09.23-2.98.86-3.24-1.25,2.69-1.5,3.32-.75,1.88.33-.63.69-1.24,1.1-1.83l-.88,1.15c-1.21,1.5-1.18,1.54.1.12,1.43-1.27,1.39-1.29-.1-.06-1.55,1.15-1.53,1.21.06.18.7-.7,4.9-1.9-1.53.65,3.7-1.46-3.84.23-1.21.16,2.94-.08-4.62-.9-1.56-.08,1.59.51,1.05.23-1.64-.84.73.34,1.45.69,2.17,1.05,2.58,1.27,5.15,2.57,7.72,3.86,11.68,5.84,23.35,11.68,35.03,17.52,3.79-13.98,7.57-27.95,11.36-41.93-6.81-.19-13.61-.39-20.42-.58-11.78-.33-23.03,10.59-22.5,22.5s9.88,22.14,22.5,22.5c6.81.19,13.61.39,20.42.58,9.47.27,19.56-7.14,21.7-16.52s-1.23-20.85-10.34-25.41c-10.51-5.26-21.02-10.51-31.52-15.77-13.19-6.6-25.66-13.84-40.96-10.99-28.94,5.39-40.18,38.93-31.02,64.27,2.93,8.12,7.02,15.17,14.68,19.67,6.79,4,15.32,4.48,22.94,5.24,10.93,1.09,21.93.78,32.89.77,5.16,0,10.32.04,15.48.33,1.61.09,6.69-.36,8.1.67-.27-.19-5.3-.9-.63-.07,1.78.32,3.54.63,5.3,1.03,1.01.23,6.81,1.1,6.98,1.89l-2.9-1.31c-2.56-4.73-5.12-9.47-7.69-14.2l.2-3.13c1.25-2.88,1.47-3.49.67-1.83-2.62,4.56-4.62,9.52-7.06,14.18-.17.32-1.76,2.99-1.73,3.03l1.87-2.29c-1.33,1.33-1.21,1.36.36.09,4.79-1.78,5.66-4.27,12.46-2.24l2.79,1.22c-1.3-.63-2.62-1.2-3.97-1.73-8.95-3.78-17.24-3.3-26.64-1.92-13.35,1.95-26.69,4.05-40.03,6.07,5.78,13.71,11.56,27.42,17.34,41.12,7.28-3.25,12.81-10.79,15.14-18.19,3.29-10.43-.67-20.6-9.04-27.07-7.3-5.64-16.32-6.3-25.08-4.4-1.75.38-3.44.97-5.15,1.48-.23.07-2.45.54-2.48.68.26-1.26,7.63.71,4.68-.3-2.73-.94,3.12,2.12.75.35-.56-.41-3.25-2.55-1.25-.56s-.52-.51-.95-.9c-.83-.75-1.63-1.52-2.43-2.29-4.38-4.23-8.81-8.38-13.91-11.77-9.25-6.16-20.31-8.54-31.11-10.18,4.48,11.02,8.96,22.03,13.45,33.05,5.84-7.62,10.59-15.31,13.86-24.42,3.79-10.53,2.77-21.51-.36-32.02-.23-.79-.39-1.78-.73-2.51-1.27-2.72-.21,3.88,0,.88s-.57,2.74-.52,2.68c.14-.15.65-2.38.66-2.31.1.61-2.35,3.81-1,2.64.36-.32.67-1.17.93-1.59s1.26-1.51,1.41-2.06c-.18.66-3.17,3.92-1.16,1.54,5.95-7.09,11.7-14.11,14.55-23.08,1.4-4.39,1.93-9.32,2.14-13.9.13-2.9-1.17,5.05-.3,2.46.76-2.27-1.52,3.19-1.31,2.83-1.76,3.05-4.82,5.54-8.2,6.55-1.78.52-3.55.15-.85.53,9.14,1.29,18.94.77,28.16,1.14,4.45.18,8.9.3,13.35.56.25.01,2.58,0,2.66.18.14.31-5.66-1.51-.74,0,2.08.64,4.13,1.42,6.23,1.99,1.51.41,3.1.87,4.63,1.16,2.23.44-2.21-.86-2.23-.88-.57-.33-3.96-3.08-.61-.48,4.25,3.29,8.52,6.54,12.84,9.72,1.67,1.23,4.18,2.53,5.54,4.12-2.62-3.07-1.61-1.3-.48-.35s2.22,1.81,3.3,2.75c1.74,1.5,3.43,3.05,5.04,4.67.59.59,1.18,1.19,1.74,1.81.47.51,3.35,4.22,1.45,1.54-1.68-2.38-.03-.01.24.4.74,1.18,1.52,2.32,2.22,3.53.41.72.79,1.46,1.19,2.19,2.04,3.62-.61-2.6,0-.08.19.78.53,1.55.74,2.33.1.37,1.05,5.43.55,1.77-.44-3.16-.08-.4-.09.23-.05,1.66-.07,3.23-.24,4.88-1.23,11.74,11.23,23,22.5,22.5,13.24-.59,21.18-9.92,22.5-22.5h0Z"/>
        </g>
        <path class="cls-7" d="m226.53,74.41c11.77,0,23.04-10.35,22.5-22.5-.55-12.19-9.89-22.5-22.5-22.5-11.77,0-23.04,10.35-22.5,22.5.55,12.19,9.89,22.5,22.5,22.5h0Z"/>
        <path class="cls-4" d="m189.75,163.51s-3.48,13.91-3.48,19.34c0,5.43,1.74,12.45,1.74,12.45l3.71,15.33-29.09,15.97-35.23-23.99,7.39-9.8s1.96-2.37,3.04-4.97,1.52-19.77,1.52-19.77l50.41-4.56Z"/>
        <path class="cls-5" d="m139.02,58.41c8.23-6.21,17.9-9.8,28.26-9.8,7.43,0,14.52,1.85,20.96,5.19l.41,114.88-1.53,7.04c-1.71,2.52-12.97,6.56-19.84,6.56-10.32,0-20.87-4.12-28.02-11.21"/>
        <path class="cls-4" d="m112.75,112.99c0,36.91,24.26,66.84,54.19,66.84,29.93,0,54.19-29.92,54.19-66.84s-24.26-66.84-54.19-66.84c-29.93,0-54.19,29.92-54.19,66.84Z"/>
        <path class="cls-7" d="m107.94,59.36c-.09-.07-.54-2.65.1.08.12.52.17,1.05.3,1.56.36,1.4.69,2.84,1.42,4.11,1.74,3.02,5.08,5.01,8.58,5.03,7.98.05,13.89-7.35,16.48-14.1s3.73-13.39,10.65-16.85c6.33-3.16,11.72-.71,16.29,3.92,6.26,6.35,13.89,6.78,22.26,5.28,7.77-1.4,14.52-1.46,22.1,1.07,6.81,2.27,13.58,5.98,19.08,10.61,7.05,5.93,14.55,14.87,7.88,23.95-1.29,1.75-3.21,3.64-5.52,3.83-.67.06-1.65-.52-3.01-1.48-3.75-2.66-7.01-6.53-10.82-9.36-9.75-7.24-21.96-8.16-32.27-1.62-4.23,2.69-7.98,5.56-13.07,6.39-6.05.99-11.56-.71-17.14-2.82-5.98-2.25-12.05-3.31-18.24-1.06-3.86,1.4-7.18,3.57-10.23,6.29-1.79,1.59-3.44,4-5.67,5.01-7.35,3.34-10.78-7.84-11.11-12.9-.2-3.14-.52-6.55.33-9.61.42-1.52,2.87-6.18,4.9-5.42,9.05,3.38,12.96-11.11,3.99-14.46-7.96-2.97-17.25,3.5-21.04,10.22s-3.75,15.44-2.8,23.12c1.08,8.68,5.28,17.26,13.15,21.7,7.46,4.21,16.38,3.47,23.08-1.78,4.07-3.19,8.09-9.18,13.85-8.49,2.5.3,5,1.56,7.34,2.43,3.58,1.33,7.13,2.27,10.93,2.72,7.92.94,15.95-.46,22.96-4.31,4.11-2.26,7.9-6.26,12.64-6.63,11.53-.89,17.55,13.94,28.19,16.48,15.34,3.65,28.39-13.44,27.23-27.59-1.97-24-32.92-40.73-54.32-42.39-5.3-.41-10.4.49-15.58,1.48-1.83.35-4.5,1.06-6.35.37-1.73-.65-2.79-2.4-4.07-3.66-7.11-6.96-17.83-9.45-27.33-6.47s-16.36,10.41-19.82,19.34c-1.01,2.59-1.57,5.36-2.63,7.93-.28.68-.59,1.5-1.03,2.09-1.61,2.2-3.06.82.87,3.39,4.93,3.22,2.3,2.27,2.39.76.05-.82-.43-2.32-.67-3.09-.68-2.18-1.88-4.26-3.68-5.68-3.2-2.53-7.47-3.07-10.61,0-2.63,2.58-3.18,8.1,0,10.61Z"/>
        <path class="cls-7" d="m135.23,83.46c-1.52-3.75-.14,5.45-.05,1.44l-.39,3.68c-1.67,3.48-1.92,4.21-.76,2.18-1.57,2.55-3.54,4.38-6.32,5.55-1.37.57-7.19,1.35-3.07.98,12.76-1.17,23.1-8.81,26.63-21.36.71-2.51.86-5.13,1.47-7.66l.38-1.42c.64-1.84.6-1.86-.13-.06-.8,1.76-.77,1.78.08.04l.74-1.24c-2.17,2.59-2.46,3-.86,1.24l-2.39,1.73c1.69-.95,1.6-1-.28-.12-1.58.82-3.28,1.16-5.11,1,3.86-.05-4.44-1.16-1.79-.39,1.68.47.83.07-2.57-1.2,1.49.93,1.37.78-.35-.43-2.07-2.23-4.02-4.05-4.87-7.14-1.44-5.24-.69-3.72-.76-.7-.15,7.03,2.63,14.14,7.59,19.12,9.86,9.91,25.39,9.76,36.12,1.47,1.71-1.32,3.04-2.5,4.43-4.09,1.37-1.7,2.7-3.44,3.99-5.2,1-1.34.62-.87-1.15,1.4.65-1.29,2.12-2.57,3.11-3.57l1.12-1.1c1.51-1.31,1.55-1.38.13-.19-1.47,1.11-1.38,1.13.29.06l-2.54,1.04c4.07-1.3-5.32,0-1,.14-3.65-.65-4.6-.75-2.86-.3,1.68.49.85.11-2.5-1.12-3.08-1.85-4.51-4.84-5.77-8.06,7.23-9.49,14.46-18.99,21.7-28.48-1.63.15-3.26.29-4.89.44,1.99,14.73,3.99,29.46,5.98,44.2.9-.27,1.81-.51,2.73-.7,2.44-.44,1.84-.37-1.81.2,1.14.19,3.04-.07,4.22-.08,4.49-.04-5.29-1.2.3,0,1.62.35,3.16.88,4.75,1.35,4.35,1.29-3.74-2.28-.22.02.83.44,1.64.92,2.43,1.42,1.97,1.35,1.59,1-1.13-1.05-.05.34,2.86,2.59,3.11,2.85.65.67,1.27,1.38,1.87,2.1-2.05-2.72-2.4-3.09-1.06-1.11,12.95-7.57,25.9-15.14,38.86-22.71-7.37-11.1-16.83-21.47-28.95-27.44-7.59-3.74-15-5.76-23.46-6.31-7.52-.49-15.22,1.28-22.52,2.89-2.76.61-5.87,1.68-8.71,1.71,5.26-.06,1.29-.21-.08-.04-2.86.36-5.72.72-8.58,1.14-7.3,1.06-14.15,3.45-20.68,6.94s-11.94,8.04-17.38,12.61-10.7,9.3-14.22,15.63c-4.44,7.99-3.83,17.75,1.76,24.99s14.65,10.05,23.65,8.06l1.83-.4c2.22-.38,2.46-.45.71-.21-1.45.16-1.51.18-.2.04.93-.1,1.87-.17,2.8-.22,3.13-.17,6.24-.05,9.36.21v-45c-16.63,1.86-32.39,6.51-46.41,15.94-9.75,6.56-14.94,20.13-8.07,30.78,6.26,9.71,20.34,15.1,30.78,8.07,2.38-1.6,4.8-3.1,7.33-4.45,1.26-.67,2.58-1.24,3.84-1.9,2.78-1.44-5,1.72.17-.03,2.44-.82,4.87-1.64,7.37-2.28,1.38-.35,2.78-.67,4.18-.95s6.66-.85.8-.2c6.15-.69,11.37-2.05,15.91-6.59,3.9-3.9,6.84-10.31,6.59-15.91-.58-13.02-9.9-21.46-22.5-22.5-8.87-.73-17.78.27-26.46,2.19,8.47,11.02,16.94,22.03,25.41,33.05,1.63-2.94-.25.75-.99.87.49-.08,1.72-1.77,2.12-2.15,1.74-1.64,3.59-3.17,5.42-4.71.85-.72,1.73-1.4,2.56-2.13,2.35-2.05-3.18,2.19-.61.46,2.06-1.39,4.05-2.84,6.23-4.05.26-.14,2.94-1.37,2.92-1.5.06.58-4.37,1.38-.78.48,1.13-.28,2.23-.63,3.36-.88.28-.06,5.61-.78,2.15-.47-3.16.28.74-.08,1.34-.15,1.87-.23,3.73-.47,5.59-.72,3.34-.45,6.65-.9,9.94-1.58,2.33-.48,4.65-1.05,6.98-1.53.39-.08,3.28-.92,3.49-.68-.17-.19-4.52.19-.71.16,1.41-.01,2.9.1,4.29,0,2.64-.19-4.02-1.05-1.56-.19,1.04.36,6.71,2.15,3.63.91-3.41-1.38.91.6,1.31.83.87.5,1.69,1.06,2.55,1.58,2.64,1.62-.47.15-.92-.81.32.67,1.73,1.48,2.3,2,1.7,1.57,3.13,3.36,4.76,4.98,2.08,2.07-2.32-3.37-.67-.95.71,1.05,1.46,2.07,2.16,3.12,6.5,9.79,20.17,14.92,30.78,8.07,9.85-6.35,14.93-20.23,8.07-30.78-14.11-21.73-40.75-32.74-66.01-25.67-10.82,3.03-17.59,13.71-16.12,24.69,1.37,10.22,10.93,20.52,22.1,19.51,1.63-.15,3.26-.29,4.89-.44,7.32-.66,13.1-2.95,17.67-8.87,4.01-5.19,6.57-13.11,4.03-19.61-3.17-8.1-7.58-14.87-15.46-19.1s-16.67-5.32-25.31-3.54c-7.23,1.49-13.49,5.43-19.01,10.19-2,1.72-3.74,3.65-5.39,5.7-1.53,1.9-3,3.86-4.48,5.8-1.19,1.6-1.25,1.68-.16.24,4.88-6.98,13.03-7.01,24.46-.08l5.79,9.93c.65,1.71.25,4.96.41.98.11-2.63-.18-5.36-.81-7.9-.78-3.16-2-6.22-3.71-9-4.34-7.08-11.6-12.35-19.57-14.62-16.38-4.67-32.84,3.43-41.35,17.69-3.1,5.19-4.95,10.94-5.95,16.85-.13.8-.37,1.63-.44,2.43-.51,1.73-.39,1.59.37-.43.99-3.23,3.51-5.16,7.54-5.77,7.72-3.27,9.44-4.61,5.16-4.03l-5.98.8c-1.77.38-3.23,1.03-4.94,1.75-14.59,6.16-24.79,24.78-18.49,40.3,2.29,5.65,4.87,10.25,10.34,13.45,4.82,2.82,11.93,4.02,17.34,2.27,10.49-3.4,20.45-16,15.71-27.68h0Z"/>
        <path class="cls-2" d="m126.78,40.01c.66-5.27,13.3-6.73,17.33-6.59,4.65.16,12.47,3.78,13.44,8.73.47,2.37,4.08,1.36,3.62-1-1.4-7.12-11.15-11.53-17.8-11.48-6.78.05-19.3,2.03-20.34,10.34-.3,2.39,3.45,2.37,3.75,0h0Z"/>
        <path class="cls-2" d="m200.02,62.78c3.87-5.37,14.62-9.54,20.74-6.82s6.82,9.8,6.7,15.66c-.05,2.41,3.7,2.41,3.75,0,.16-7.71-1.72-16.78-9.96-19.56s-19.67,2.17-24.46,8.83c-1.41,1.96,1.84,3.84,3.24,1.89h0Z"/>
        <path class="cls-2" d="m138.59,78.29c-2.23-4.78-5.7-10.55-11.81-10.02s-9.36,6.9-11.4,12.15l3.13-.83c-7.77-7.4-22.58-10.82-27.85,1.44-.94,2.19,2.29,4.11,3.24,1.89,4.29-9.97,15.81-6.54,21.96-.68,1.09,1.04,2.63.48,3.13-.83,1.52-3.93,4.42-10.8,9.92-9.22,3.32.95,5.1,5.14,6.43,7.99,1.02,2.19,4.25.28,3.24-1.89h0Z"/>
        <path class="cls-2" d="m228.7,139.6c4.11-.81,13.09-1.89,12.58,4.9-.18,2.41,3.57,2.4,3.75,0,.26-3.45-1.8-6.46-4.78-8.07-3.87-2.09-8.46-1.25-12.55-.44-2.37.47-1.36,4.08,1,3.62h0Z"/>
        <path class="cls-2" d="m88.95,138.07c2.79-4.15,7.74-6.42,12.72-5.67,2.36.35,3.38-3.26,1-3.62-6.73-1.01-13.13,1.73-16.95,7.4-1.35,2.01,1.9,3.89,3.24,1.89h0Z"/>
        <path class="cls-6" d="m192.81,202.35c-3.24,0-6.36,7.41-12.71,9.87-6.36,2.47-15.26,5.55-22.25,4.32-6.99-1.23-13.98-.95-20.34-6.96-6.36-6-6.99-10.94-9.54-12.17-2.54-1.23-7.04,1.6-10.22,4.06-3.18,2.47-14.13,7.5-20.49,10.59-6.36,3.09-21.42,6.33-28.41,11.89-6.99,5.55-19.23,14.61-25.03,26.41-8.35,16.97-13.78,26.08-17.42,36.9-3.35,9.98-12.54,31.58-16.89,46.64C5.49,347.77.02,365.05,0,374.39c-.02,10.76,11.84,16.06,17.95,18.96,11.62,5.52,37.13,15.51,47.4,18.7,14.56,4.51,20.03,2.59,29.57,4.44,9.54,1.85,27.41-3.88,38.85-5.12,11.44-1.23,16.25-3.69,23.24-6.16l85.3-2.58s21.44-7.74,38.36-13.61c16.22-5.62,56.43-35.49,56.43-35.49,0,0-27.33-66.03-29.24-70.97-1.91-4.94-15.84-29.43-21.21-36.44-4.23-5.52-7.78-13.14-19.97-18.22-17.37-7.23-34.36-13.02-39.82-15.1-6.72-2.56-23.89-10.47-34.06-10.47Z"/>
        <path class="cls-5" d="m67.16,258.79c6.8-1.97,11.6,6.82,18.6,10.21,2.3,1.12,16.08,1.31,22.04,11.14,4.02,6.62-.06,14.8-4.93,29.76-.58,1.77-1.71,5.16-8.12,20.43-10.07,23.99-11.83,26.5-14.92,28.73-7.18,5.18-19.45,7.37-27.28,2.93-24.15-13.72-13.73-94.99,14.61-103.19Z"/>
        <path class="cls-6" d="m66.39,256.14c6.82-1.92,16.24-.07,23.21,3.37,2.3,1.13,13.61,6.71,17.26,18.27,2.32,7.34-.17,14.8-5.16,29.72-.59,1.77-1.75,5.14-8.28,20.37-10.26,23.92-12.03,26.41-15.15,28.62-7.22,5.13-19.51,7.23-27.3,2.72-24.04-13.9-12.98-95.09,15.41-103.08Z"/>
        <path class="cls-5" d="m69.62,352.02c16.17,5.72,27.12,12.44,34.56,15.98,9.67,4.61,27.3,12.73,32.19,14.68,18.46,7.36,15.33,11.46,15.33,11.46,0,0-6.68,32.38-30.98,31.57-24.3-.81-57.81-8.95-75.4-17.89-17.59-8.95-6.51-38.15-4.93-46.14,1.91-9.6,12.02-15.75,29.23-9.66Z"/>
        <path class="cls-6" d="m70.75,354.98c18.17,6.5,26.75,13.88,36.77,17.95,10.02,4.07,16.95,7.95,27.5,12.05,10.62,4.13,26.81,13.16,26.81,13.16v26.84s-15.92,5.69-40.21,4.88c-24.3-.81-57.81-8.95-75.4-17.89-17.59-8.95-32.73-18.87-38.76-24.52C0,380.44,16.89,355.02,16.89,355.02c0,0,34.69-6.9,53.86-.05Z"/>
        <path class="cls-5" d="m279.27,238.28c-6.8-1.97-11.6,6.82-18.6,10.21-2.3,1.12-16.08,1.31-22.04,11.14-4.02,6.62.06,14.8,4.93,29.76.58,1.77,1.71,5.16,8.12,20.43,10.07,23.99,11.83,26.5,14.92,28.73,7.18,5.18,19.45,7.37,27.28,2.93,24.15-13.72,13.73-94.99-14.61-103.19Z"/>
        <path class="cls-6" d="m273.42,230.5c-6.43-2.52-14.09-5.71-21.07-2.26-2.3,1.13-9.15,17.46-12.8,29.02-2.32,7.34.17,14.8,5.16,29.72.59,1.77,1.75,5.14,8.28,20.37,10.26,23.92,12.03,26.41,15.15,28.62,7.22,5.13,63.03,35.45,70.82,30.95,24.04-13.9-38.07-125.66-65.54-136.41Z"/>
        <path class="cls-5" d="m276.8,331.5c-16.17,5.72-27.12,12.44-34.56,15.98-9.67,4.61-27.3,12.73-32.19,14.68-18.46,7.36-15.33,11.46-15.33,11.46,0,0,6.68,32.38,30.98,31.57,24.3-.81,57.81-8.95,75.4-17.89,17.59-8.95,6.51-38.15,4.93-46.14-1.91-9.6-12.02-15.75-29.23-9.66Z"/>
        <path class="cls-6" d="m275.68,334.46c-18.17,6.5-26.75,13.88-36.77,17.95-10.02,4.07-16.95,7.95-27.5,12.05-10.62,4.13-26.81,13.16-26.81,13.16v26.84s15.92,5.69,40.21,4.88c24.3-.81,57.81-8.95,75.4-17.89,17.59-8.95,32.73-18.87,38.76-24.52,7.46-7-9.43-32.41-9.43-32.41,0,0-34.69-6.9-53.86-.05Z"/>
        <path class="cls-3" d="m166.86,394.69c4-14.71,8.33-33.01,8.33-33.01,0,0,1.31-16.96,4.7-18.12,3.39-1.16,22.99,4.47,29.27,6.32s13.36,4.9,14.86,6.97-.02,3.56-1.69,8.27-5.91,18.43-6.68,21.84c-1.45,6.42-1.61,10.33-3.5,18.98-1.23,5.59-1.29,12.94-3.63,16.11s-12.83-.15-20.8-1.53c-7.97-1.37-20.39-4.22-22.72-6.04s1.87-19.8,1.87-19.8Z"/>
        <path class="cls-4" d="m169.48,421.07c-1.63,4.29-6.43,6.99-9.94,5.72-7.64-2.78-7.01-10-7.01-15.19s-1.32-12.45,3.31-19.25,4.76-13.96,13.49-14.11,9.86-2.94,18.35.76c8.48,3.7,11.2,2.87,15.29,6.42,3.77,3.28,6.68,7.58,4.35,11.16-2.56,3.91-4.9,8.95-8.01,11.8-4.09,3.75-5.31,2.97-7.6,4.29-3.31,1.91-5.35,2.55-7.79,2.14-4.12-.68-6.79-3.71-8.96-1.79-1.63,1.44-4.67,6.86-5.46,8.04Z"/>
        <path class="cls-3" d="m110.35,65.96c6.6-7.95,8.05-11.98,18.93-17s20.78-7.33,30.08-7.31,22.38,1.05,29.6,3.21c9.34,2.8,17.25,6.9,22.76,11.12s11.35,14.12,11.35,14.12c2.92,7.52,5.13,17.5,5.13,17.5l-1.67,5.17s-3.47-.27-5.41-3.18-2.13-9.27-7.25-14.89c-5.81-6.37-12.37-11.01-22.16-14.25s-25.39-4.21-32.16-3.56-13.88,1.73-22.58,5.51-17.3,6.8-21.64,11.99-6.6,13.22-6.6,13.22l-5.04,1.84s-1.16-1.39-.98-5.31,4.31-14.16,7.64-18.17Z"/>
        <path class="cls-5" d="m221.18,90.24l7.86-.45c-.08-.82-.67-2.09-1.44-2.81-.48-.45-5.59.72-6.24,1.68-.37.54-.18,1.59-.18,1.59"/>
        <path class="cls-3" d="m217.18,125.48c-.54-11.31-1.91-24.47-.66-31.63.77-4.4,16.91-10.49,19.05-1.98,3.63,14.44,4.65,19.85,5.71,30.05,1.13,10.87.65,8.95.06,13.8-.6,4.85-1.79,6.6-9.05,8.5-10.22,2.67-10.43-.26-12.8-2.45-2.37-2.19-2.31-16.29-2.31-16.29Z"/>
        <path class="cls-5" d="m109.35,86.65l-7.41-.45c.08-.82.63-2.09,1.36-2.81.45-.45,5.27.72,5.89,1.68.35.54.17,1.59.17,1.59"/>
        <path class="cls-3" d="m113.85,122.15c.69-11.3,2.22-24.45,1.07-31.62-.44-2.76-6.89-6.25-12.2-6.41-3.19-.1-5.98,1.01-6.82,4.19-3.81,14.39-4.91,19.78-6.1,29.97-1.27,10.85-.77,8.94-.23,13.8s1.7,6.62,8.94,8.62c10.19,2.8,10.43-.13,12.83-2.29s2.52-16.26,2.52-16.26Z"/>
      </g>
    </g>
  </g>
</svg>