<?xml version="1.0" encoding="UTF-8"?>
<svg id="Layer_2" data-name="Layer 2" xmlns="http://www.w3.org/2000/svg" viewBox="0 0 66.01 77.73">
  <defs>
    <style>
      .cls-1 {
        font-family: Arial-BoldMT, Arial;
        font-weight: 700;
      }

      .cls-1, .cls-2 {
        fill: #fff;
      }

      .cls-3 {
        font-size: 14px;
      }

      .cls-4 {
        font-size: 25px;
      }

      .cls-2, .cls-5 {
        stroke-width: 0px;
      }

      .cls-5 {
        fill: #043248;
      }
    </style>
  </defs>
  <g id="Layer_12" data-name="Layer 12">
    <path class="cls-5" d="m52.66,12.38c-1.68-1.34-13.26.57-17.97.86s-9.31,1.02-13.69,1.28S7.25,7.91,4.9,9.81c-2.18,1.77-3,3.59-3.75,4.55-.99,1.27-1.54,2.72-.83,9.99s.58,17.13,1.14,21.68c.84,6.74,2.14,15.26,3.14,19.82s1.14,7.99,1.71,9.84,1.71,2.14,4.85,2,12.26-.57,17.11-.86,11.98,0,16.68-.14,13.15-1.6,14.4-1.85,1.91-.84,4-4c1.28-1.93,2.57-3.99,2.64-5.49.17-3.33-6.94-12.42-7.37-16.7s-.68-10.25-1.27-15.16c-.45-3.72-1.28-9.13-1.85-11.69s-1.27-8.15-2.85-9.41Z"/>
    <path class="cls-2" d="m55.66,6.38c-1.68-1.34-13.26.57-17.97.86s-9.31,1.02-13.69,1.28-10.7-.2-13.4,0-5.05.65-5.94,1.49c-1.24,1.18-2.05,1.07-1.34,8.35s.58,17.13,1.14,21.68c.84,6.74,2.14,15.26,3.14,19.82s1.14,7.99,1.71,9.84,1.71,2.14,4.85,2,12.26-.57,17.11-.86,11.98,0,16.68-.14,13.15-1.6,14.4-1.85,3.45-.72,3.64-3.49c.17-2.46-2.36-9.34-2.93-12.62s-1.01-5.8-1.44-10.08-.68-10.25-1.27-15.16c-.45-3.72-1.28-9.13-1.85-11.69s-1.27-8.15-2.85-9.41Z"/>
    <path class="cls-5" d="m56.66,5.38c-1.68-1.34-13.26.57-17.97.86s-9.31,1.02-13.69,1.28-10.7-.2-13.4,0-4.31.91-5.42,1.43c-1.44.67-2.57,1.14-1.85,8.41s.58,17.13,1.14,21.68c.84,6.74,2.14,15.26,3.14,19.82s1.14,7.99,1.71,9.84,1.71,2.14,4.85,2,12.26-.57,17.11-.86,11.98,0,16.68-.14,13.15-1.6,14.4-1.85,3.06-.23,2.57-3.99c-.32-2.44-1.28-8.84-1.85-12.12s-1.01-5.8-1.44-10.08-.68-10.25-1.27-15.16c-.45-3.72-1.28-9.13-1.85-11.69s-1.27-8.15-2.85-9.41Z"/>
    <circle class="cls-2" cx="16.38" cy="15.71" r="3.6"/>
    <circle class="cls-2" cx="33" cy="14.68" r="3.6"/>
    <circle class="cls-2" cx="49.15" cy="13.08" r="3.6"/>
    <path class="cls-2" d="m51.63,12.4c1.06-1.68,1.12-4.48.78-6.43-.07-.4-.35-.9-.66-1.03-.85-.37-2.43-.31-2.99.26-.19.19-.2.67-.2.87.02.73.08,1.04.03,1.48-.09.78-.64,1.66-.95,2.46-.29.74-1.25.98-1.33,1.69-.09.79,1.26,2.2,2.79,2.2,1.74,0,2.25-1.06,2.53-1.5Z"/>
    <path class="cls-5" d="m51.47,12.45c.83-1.68,1.04-5.75.19-7.72-.73-1.71-1.1-2.48-2.75-3.5s-3.94-1.64-5.69-.91c-1.54.63-2.24,1.56-3.2,3.12s-1.32,2.94-1.26,4.94c.02.65,1.02.41,1.46.45,1.65.16,1.32-.65,1.56-1.85s.23-1.2.66-2.25c.36-.89.85-1.28,1.41-1.72s1.6-.49,2.54-.29,1.86.79,2.27,1.7.43,1.94.48,2.79-.69,2.24-1.18,3.03c-.41.65-.71,1.01-.78,1.72-.08.79.68,1.93,2.05,1.93,1.56,0,2.02-.99,2.24-1.45Z"/>
    <path class="cls-2" d="m18.72,14.93c1.06-1.68,1.12-4.48.78-6.43-.07-.4-.32-.79-.63-.93-.85-.37-2.35-.6-2.91-.02-.19.19-.32.8-.31,1.13.03.73.08,1.25-.02,1.75-.12.58-.3,1.24-.8,2.02-.43.67-1.35,1.07-1.43,1.78-.09.79,1.26,2.2,2.79,2.2,1.74,0,2.25-1.06,2.53-1.5Z"/>
    <path class="cls-5" d="m18.56,14.98c.83-1.68,1.04-5.75.19-7.72-.73-1.71-1.1-2.48-2.75-3.5s-3.94-1.64-5.69-.91c-1.54.63-2.24,1.56-3.2,3.12s-1.32,2.94-1.26,4.94c.02.65,1.02.41,1.46.45,1.65.16,1.32-.65,1.56-1.85s.23-1.2.66-2.25c.36-.89.85-1.28,1.41-1.72s1.6-.49,2.54-.29,1.86.79,2.27,1.7.43,1.94.48,2.79-.69,2.24-1.18,3.03c-.41.65-.71,1.01-.78,1.72-.08.79.68,1.93,2.05,1.93,1.56,0,2.02-.99,2.24-1.45Z"/>
    <path class="cls-2" d="m35.35,14.2c1.06-1.68,1.12-4.48.78-6.43-.07-.4-.44-1.11-.75-1.24-.85-.37-2.24-.32-2.8.26-.19.19-.31.89-.31,1.08.02.73.08,1.04.03,1.48-.09.78-.56,1.72-.95,2.46s-1.25.98-1.33,1.69c-.09.79,1.26,2.2,2.79,2.2,1.74,0,2.25-1.06,2.53-1.5Z"/>
    <path class="cls-5" d="m35.19,14.26c.83-1.68,1.04-5.75.19-7.72-.73-1.71-1.1-2.48-2.75-3.5s-3.94-1.64-5.69-.91c-1.54.63-2.24,1.56-3.2,3.12s-1.32,2.94-1.26,4.94c.02.65,1.02.41,1.46.45,1.65.16,1.32-.65,1.56-1.85s.23-1.2.66-2.25c.36-.89.85-1.28,1.41-1.72s1.6-.49,2.54-.29,1.86.79,2.27,1.7.43,1.94.48,2.79-.69,2.24-1.18,3.03c-.41.65-.71,1.01-.78,1.72-.08.79.68,1.93,2.05,1.93,1.56,0,2.02-.99,2.24-1.45Z"/>
    <text class="cls-1" transform="translate(20.61 35.44) rotate(-2.86) scale(.94 1)"><tspan class="cls-3"><tspan x="0" y="0">OKT</tspan></tspan><tspan class="cls-4"><tspan x=".87" y="26">19</tspan></tspan></text>
  </g>
</svg>