<?xml version="1.0" encoding="UTF-8"?>
<svg id="Layer_2" data-name="Layer 2" xmlns="http://www.w3.org/2000/svg" viewBox="0 0 104.57 78.03">
  <defs>
    <style>
      .cls-1 {
        fill: #fff;
      }

      .cls-1, .cls-2 {
        stroke-width: 0px;
      }

      .cls-2 {
        fill: #043248;
      }
    </style>
  </defs>
  <g id="Layer_3" data-name="Layer 3">
    <path class="cls-2" d="m97.06,55.51s2.08,5.03,1.68,5.56-1.94.05-3.4.28-5.21.66-7.2.9-5.74.43-7.6,1.04-3.53.76-4.9,1.9-2.27,2.24-2.95,2.85-2.34,1.09-2.34,1.09l-.89-6,9.35-8.25,18.24.62Z"/>
    <path class="cls-2" d="m5.38,19.74l-3.56-.9c-1.34-.34-2,0-1.78.9s2.63,8.8,3.65,11.84,3.14,8.67,4.03,12.68,2.45,9.09,3.23,13.15,2.23,9.14,3.45,12.41,2.56,6.32,3.45,7.45,1.78.9,2.89,0,6.56-4.51,9.01-5.64,6.12-2.59,8.34-3.16,5.67-1.02,8.46-1.24,7.23.23,10.01.45,8.12,1.02,9.57,1.02,3.33.56,4.22.45,0-2.59,0-2.59L5.38,19.74Z"/>
    <g id="Layer_6" data-name="Layer 6">
      <path class="cls-1" d="m14.36,16.38s-9.15-.65-10.23-.87-1.66-2.27-1.66-1.77.43,4.51,1.3,7.9,3.97,14.07,5.05,18.26,2.74,8.01,3.75,10.97,2.31,7.72,3.46,11.19,1.95,6.35,2.38,8.37.36,3.61,1.15,3.54,1.8-1.59,3.18-2.38,4.19-2.45,7.79-3.46,11.19-1.88,14.07-2.13,6.57-.33,9.09,0,4.84.6,6.79.89,3.08.68,5.09.47c2.15-.22,4.26-.05,5.25.16.57.12-1.62-3.41-1.62-3.41L14.36,16.38Z"/>
    </g>
    <g id="Layer_6_copy" data-name="Layer 6 copy">
      <path class="cls-2" d="m14.93,15.33s-9.15-.65-10.23-.87-2.24-1.23-2.24-.72,1.01,3.46,1.88,6.86,3.97,14.07,5.05,18.26,2.74,8.01,3.75,10.97,2.31,7.72,3.46,11.19,1.95,6.35,2.38,8.37.36,3.61,1.15,3.54,1.8-1.59,3.18-2.38,4.19-2.45,7.79-3.46,11.19-1.88,14.07-2.13,6.57-.33,9.09,0,4.91.83,6.86,1.12,2.89.36,5.12.43,3.02-.2,3.96.16-1.48-3.46-1.48-3.46L14.93,15.33Z"/>
    </g>
    <path class="cls-1" d="m97.93,54.51s2.21,3.81,1.85,4.38c-.62.98-2.41.87-3.98,1.1s-5.29.71-7.43.94-6.16.61-8.19,1.12-3.81,1.01-5.28,2.15-2.04,1.86-2.72,2.52c-.43.43-.74.89-1.26.82-.57-.08-2.66-5.4-2.66-5.4l10.06-8.25,19.61.62Z"/>
    <path class="cls-2" d="m98.14,53.34s2.11,5.07,1.64,5.55c-.44.44-1.92.05-3.49.29s-5.6.66-7.74.9-6.17.43-8.17,1.04-3.74.84-5.27,1.9c-1.16.8-1.3,1-1.77,1.53-.56.63-1.61,2.4-2.14,2.2s-2.74-5.79-2.74-5.79l10.06-8.25,19.61.62Z"/>
    <path class="cls-1" d="m51.01,16.69c-.39-1.63-1.31-4.33-1.99-4.91-1.72-1.48-4.11-2.08-6.83-2.55-4.53-.77-6.45-.8-9.84-.21s-5.66,1.36-8.58,2.06-4.68,1.28-8.07,1.4-5.38,0-6.9-.58-4.8-2.16-5.07-1.6c-.17.36.04,1.13.63,2.88s8.42,21.97,9.47,25.01,4.79,13.09,5.96,16.95,2.01,7.85,2.71,9.13,2.04.73,3.25.47,7.83-1.3,7.83-1.3c3.39-.47,5.03-.58,9.23-1.05s6.9-.35,10.29.12,6.08.94,9.47,1.4,6.9,2.34,7.48,1.99-.47-2.1-1.29-4.44-5.49-12.74-6.19-14.84-2.81-7.95-4.21-11.45-1.52-4.44-2.92-7.71-1.99-4.68-2.81-6.19-1.15-2.55-1.64-4.56Z"/>
    <path class="cls-2" d="m51.01,15.69c-.39-1.63-1.26-3.81-1.93-4.39-1.72-1.48-4.16-2.6-6.89-3.07-4.53-.77-6.45-.8-9.84-.21s-5.66,1.36-8.58,2.06-4.68,1.28-8.07,1.4-5.38,0-6.9-.58-3.39-1.17-4.44-.94-.58.47,0,2.22,8.42,21.97,9.47,25.01,4.79,13.09,5.96,16.95,2.01,7.85,2.71,9.13,2.04.73,3.25.47,7.83-1.3,7.83-1.3c3.39-.47,5.03-.58,9.23-1.05s6.9-.35,10.29.12,6.08.94,9.47,1.4,6.9,2.34,7.48,1.99-.47-2.1-1.29-4.44-5.49-12.74-6.19-14.84-2.81-7.95-4.21-11.45-1.52-4.44-2.92-7.71-1.99-4.68-2.81-6.19-1.15-2.55-1.64-4.56Z"/>
    <path class="cls-1" d="m49.07,11.91c.13-1.31,1.07-.8,2.49-1.79s2.3-.14,3.99-.78,2.3-1,4.87-1.28,5.42-.21,6.91-.36,2.71-.7,3.99-1.24,3.66-2.03,4.6-2.67,3.79-2.2,5.28-2.63,1.56.21,1.83.78,3.45,11.45,5.08,14.5,3.99,9.6,5.28,13.08,2.57,7.61,3.93,9.95,3.52,7.11,4.27,9.17,2.98,3.82,2.98,4.85-1.19,1.42-2.54,1.57-4.1.28-5.38.64-4.87,1.68-6.43,1.83-5.43-.17-7.66.12-4.86.74-6.76,2.02-3.27,2.28-3.94,3.56-.99,2.45-1.8,2.67S49.07,11.91,49.07,11.91Z"/>
    <path class="cls-2" d="m49.07,11.3c.47-.78.44-.88,1.91-1.74,1.24-.73,2.78-.6,4.47-1.24s2.31-1,4.88-1.28,5.43-.21,6.92-.36,2.71-.7,4-1.24,3.66-2.03,4.61-2.67,3.8-2.2,5.29-2.63,1.56.21,1.83.78,3.46,11.45,5.09,14.5,4,9.6,5.29,13.08,2.58,7.61,3.93,9.95,3.53,7.11,4.27,9.17,2.51,4.19,2.85,5.12.07,1.35-1.29,1.49-5.16.36-6.45.71-4.95,1.71-6.51,1.85-5.22-.28-7.46,0-5.09.57-6.99,1.85-3.28,2.27-3.95,3.55-.89,2.26-1.6,2.71S49.07,11.3,49.07,11.3Z"/>
  </g>
</svg>