<?xml version="1.0" encoding="UTF-8"?>
<svg id="Layer_2" data-name="Layer 2" xmlns="http://www.w3.org/2000/svg" viewBox="0 0 73.88 49.52">
  <defs>
    <style>
      .cls-1 {
        fill: #fff;
      }

      .cls-1, .cls-2 {
        stroke-width: 0px;
      }

      .cls-2 {
        fill: #043248;
      }
    </style>
  </defs>
  <g id="Layer_9" data-name="Layer 9">
    <path class="cls-2" d="m13.85,20.84c-1.13,2.26-3.08,11.25-3.18,14.09s-.08,6.73,0,9.09c.06,1.66.26,2.19,1.03,2.61,1.28.71,18.64,2.89,24.9,2.89s20.32-2.39,22.29-2.83,3.03-.75,3.49-1.3c.51-.61.1-5.06-.11-7.52s-.41-6.16-.82-7.9-.51-6.26-3.39-7.39-44.22-1.74-44.22-1.74Z"/>
    <path class="cls-1" d="m0,17.47c0-.71,12.82-5.96,17.17-8.01S31.52,2.29,34.08,1.52s2.44-.62,3.37,0,19.8,9.85,22.06,10.88,11.8,6.77,12.62,7.59,2.05.94,1.62,1.48c-.83,1.05-11.54,4.87-14.45,5.8-3.45,1.11-17.31,6.62-18.57,7.18-2.22.99-2.93,2.03-5.23,1.13-2.75-1.08-14.08-5.6-17.06-7.04s-13.11-7.21-14.34-7.63S0,19.07,0,17.47Z"/>
    <path class="cls-2" d="m.02,17.17c.37-1.49,12.8-6.66,17.16-8.71S31.52,1.29,34.08.52s2.44-.62,3.37,0,19.8,9.85,22.06,10.88,11.8,6.77,12.62,7.59,2.56,2.15,1.33,2.67-11.28,3.59-14.16,4.62-17.29,6.71-18.49,7.38c-1.49.83-2.54,1.95-5.31.93s-14.36-5.33-17.34-6.77-13.03-7.18-14.26-7.59S-.29,18.43.02,17.17Z"/>
  </g>
</svg>