<?xml version="1.0" encoding="UTF-8"?>
<svg id="Layer_2" data-name="Layer 2" xmlns="http://www.w3.org/2000/svg" viewBox="0 0 68.28 68.78">
  <defs>
    <style>
      .cls-1 {
        fill: none;
        stroke: #023248;
        stroke-miterlimit: 10;
      }

      .cls-2 {
        fill: #fff;
      }

      .cls-2, .cls-3 {
        stroke-width: 0px;
      }

      .cls-3 {
        fill: #043248;
      }
    </style>
  </defs>
  <g id="Layer_13" data-name="Layer 13">
    <path class="cls-3" d="m11.95,60.69c-1.27.31-4.39,4.89-4.75,5.8s.09,2.17,2.71,2.17,23.46.27,28.43,0,18.79-1.27,22.02-1.82c1.64-.28,2.87-.57,2.32-1.93s-2.57-4.57-3.47-5.11-2.26-.9-3.71-.72-13.75.9-15.29,1-12.21.54-14.47.54-8.08-.05-9.43-.15-2.38-.26-4.36.23Z"/>
    <path class="cls-2" d="m15.77,60.36c.19.92.77,1.61,2.62,1.61s12.61.09,16.14.1,17.98-.88,19.27-1.15,1.49-.66,1.56-1.75c.09-1.41-2.95-3.99-3.59-4.53s-36.18,4.84-36,5.73Z"/>
    <path class="cls-3" d="m19.13,54.59c-.9.29-3.11,4.48-3.36,5.31s.76,1.32,2.62,1.32,12.61.08,16.14.09,17.98-.8,19.27-1.05,1.82-.63,1.44-1.87-2-4.12-2.64-4.61-1.6-.83-2.63-.66-9.74.83-10.82.91-8.35.2-9.95.2-5.57-.12-6.59-.03c-.96.09-2.07-.04-3.47.4Z"/>
    <path class="cls-3" d="m36.67,0c1.84.01,2.47,1.12,2.61,2.85s-.92,20.86-.92,25.04-.51,14.35-.58,18.12.99,8.37,0,9.48-6.51,1.82-6.9.49.66-12.42.79-14.66.53-7.12.53-8.75.66-6.51.66-8.45.39-8.24.53-10.18.39-5.6.39-7.23.02-3.96.26-4.89C34.36.57,35.45,0,36.67,0Z"/>
    <path class="cls-3" d="m9.92,6.59c0-1.65,12.06-3.48,15.75-3.89s19.45-.2,22.07,0,14.53.95,15.65,3.07c.87,1.65.1,2.08-.78,2.05-2.01-.09-9.35-.51-11.79-.51s-12.54-.1-13.94-.3-13.36.82-14.72.82-10.24.81-11.29.55c-.6-.15-.97-.66-.96-1.77Z"/>
    <path class="cls-3" d="m.1,35.54c.3-1.09,14.41-1.27,16.18-1.13s1.1,3.34-.41,5.79c-1.22,1.97-2.71,3.24-5.94,3.51s-6.7-.23-7.94-2.11c-1.12-1.7-2.34-4.39-1.88-6.06Z"/>
    <path class="cls-1" d="m1.34,35.8c3.67-10.51,6.6-19.64,9.97-28.72.02-.04.08-.04.09,0,2.17,9.09,4.23,18.41,4.47,27.75"/>
    <path class="cls-3" d="m60.86,42.23c-3.08.26-6.7-.23-7.94-2.11-1.12-1.7-2.34-4.39-1.88-6.06.3-1.09,14.41-1.27,16.18-1.13s1.1,3.34-.41,5.79c-1.22,1.97-2.71,3.24-5.94,3.51"/>
    <path class="cls-1" d="m62.3,5.44c2.18,9.14,4.27,18.51,4.5,27.9"/>
    <path class="cls-1" d="m52.28,34.31c3.69-10.57,6.63-19.74,10.02-28.87"/>
  </g>
</svg>