<?xml version="1.0" encoding="UTF-8"?>
<svg id="Layer_2" data-name="Layer 2" xmlns="http://www.w3.org/2000/svg" viewBox="0 0 58.78 58.29">
  <defs>
    <style>
      .cls-1 {
        fill: none;
        stroke: #fff;
        stroke-miterlimit: 10;
      }

      .cls-2 {
        fill: #fff;
      }

      .cls-2, .cls-3 {
        stroke-width: 0px;
      }

      .cls-3 {
        fill: #043248;
      }
    </style>
  </defs>
  <g id="Layer_10" data-name="Layer 10">
    <path class="cls-3" d="m26.47,0c-1.82,0-11.04.18-15.09,1.38s-5.43,1.64-7.51,2.5c-1.02.43-3.2,1.11-3.48,2.5s2.93,3.71,7.31,4.87c3.9,1.03,11.63,2.44,17.34,2.41s9.86-.46,14.73-1.15,8.49-1.53,10.3-2.37,3.02-1.6,2.88-3.06-1.65-2.58-2.97-3.15c-1.98-.86-8.57-2.89-12.19-3.28s-9.02-.65-11.31-.65Z"/>
    <path class="cls-2" d="m26.47,5.17c-1.82,0-11.04.18-15.09,1.38s-5.43,1.64-7.51,2.5c-1.02.43-3.2,1.11-3.48,2.5s2.93,3.71,7.31,4.87c3.9,1.03,11.63,2.44,17.34,2.41s9.86-.46,14.73-1.15,8.49-1.53,10.3-2.37,1.79-2.01,1.65-3.48-.43-2.17-1.74-2.74c-1.98-.86-8.57-2.89-12.19-3.28s-9.02-.65-11.31-.65Z"/>
    <path class="cls-3" d="m.38,6.39c-.75,1.54-.2,9.57,0,13.21s.77,13.32,1.57,19.69,1.71,8.08,2.28,10.81.57,4.32,1.14,5.12,2.96,1.59,5.46,1.93,9.33,1.14,13.09,1.14,15.82-1.02,17.3-1.25,2.96-.68,3.53-2.28,1.25-6.15,1.37-8.31,1.59-9.33,1.93-11.72.8-4.1,1.25-7.28.8-3.53,1.25-6.03.34-3.76.91-6.03,1.68-7.56,1.48-8.31-.07-.7-.4-1.12c-.48-.62-3.73,3.33-8.47,4.2-5.62,1.03-12.2,1.44-17.14,1.53s-9.32-.19-13.54-.6-6.28-1.47-8.36-2.28-1.91-.85-3.03-1.82c-.69-.61-1.26-1.34-1.62-.59Z"/>
    <path class="cls-1" d="m23.23,11.13c.77,3.88.94,7.91.49,11.85-.52,4.58-1.86,9.23-.93,13.73"/>
    <path class="cls-2" d="m22.47,35.48c-2.1,1.35-2.76,2.02-2.83,2.2-.2.53-.08,2.56,0,3.56.04.45-.03,1.12.29,1.47s4.06.03,4.81-.08,1.54-.12,1.5-.83-.04-1.23-.12-2.3-.07-1.9-.27-2.18-3.39-1.85-3.39-1.85Z"/>
    <path class="cls-3" d="m49.44,21.94c1.2-1.08,2.37-1.69,3.52-1.77s2.94.67,3.64,1.77c.81,1.26,1.77,3.13,2.01,5.22s.24,3.94,0,6.27-.45,4.2-1.77,5.75-2,2.06-3.46,2.69c-1.87.81-3.21.98-4.74,1.01s-3.46,0-3.46,0l.4-6.18s.49.26,1.9.44,1.99.17,3.46-.17c1.37-.32,2.37-1.03,2.93-2.16s1.03-3.19,1-4.83c-.03-1.55-.19-2.03-.46-2.81-.26-.74-.61-1.21-1.44-1.66-.7-.38-1.26-.31-1.75.06-.57.43-.69.54-1.45,1.58-.7.97-1.77,2.81-1.77,2.81l1.45-8.04Z"/>
  </g>
</svg>