<?xml version="1.0" encoding="UTF-8"?>
<svg id="Layer_2" data-name="Layer 2" xmlns="http://www.w3.org/2000/svg" viewBox="0 0 66.54 73.62">
  <defs>
    <style>
      .cls-1 {
        fill: none;
        stroke: #fff;
        stroke-miterlimit: 10;
      }

      .cls-2 {
        fill: #043248;
        stroke-width: 0px;
      }
    </style>
  </defs>
  <g id="Road">
    <path class="cls-2" d="m.02,70.46c-.42-1.89,6.41-12.35,10.86-15.74,3.38-2.58,10.22-7.63,12.59-14.42s1.72-9.82,3.9-15.79,5.61-8.91,8.48-10.5c4.12-2.29,6.21-2.34,9.77-4.89C50.4,5.71,54.04.74,55.18.07c.94-.55,11.29,2.28,11.36,3.57.05.95-1.98,3.98-4.08,7.1-2.57,3.82-4.8,6.47-5.83,8.94-1.2,2.89-1.27,7.26-.49,9.8,1.62,5.29,3.55,7.04,5.5,11.56,2.08,4.82,2.17,9.8.92,12.54-2.23,4.86-5.64,6.98-6.91,10.23-1.87,4.8-.69,8.04-1.21,8.91-1.11,1.86-53.75.67-54.41-2.27Z"/>
    <g id="Layer_4" data-name="Layer 4">
      <path class="cls-1" d="m59.23,3.73c-1.48,1.89-1.85,2.75-2.48,3.78"/>
      <path class="cls-1" d="m51.79,12.34c-.62.66-.78.74-1.37,1.24-1.02.87-2.02,1.78-2.85,2.85"/>
      <path class="cls-1" d="m42.74,23.59c-.95,1.81-1.46,3.85-1.47,5.89,0,.65.04,1.3.22,1.92"/>
      <path class="cls-1" d="m42.74,41.01c.83,3.31.33,6.94-1.36,9.9"/>
      <path class="cls-1" d="m35.49,58.67c-.64,1.16-1.45,2.19-2.16,3.3-1.48,2.32-1.87,5.16-2.23,7.89"/>
    </g>
  </g>
</svg>