<?xml version="1.0" encoding="UTF-8"?>
<svg id="Layer_2" data-name="Layer 2" xmlns="http://www.w3.org/2000/svg" viewBox="0 0 70 71.67">
  <defs>
    <style>
      .cls-1 {
        fill: #fff;
      }

      .cls-1, .cls-2 {
        stroke-width: 0px;
      }

      .cls-2 {
        fill: #043248;
      }
    </style>
  </defs>
  <g id="Layer_14" data-name="Layer 14">
    <path class="cls-2" d="m34.89,6.09c-1.34-2.1-2.76-5.07-6.22-5.82s-6.91.38-8.63,1.31-2.35,3.65-2.48,4.51-2.57.79-4.18,2.26-4.56,4.4-5.01,5.87-.71,2.45-.58,3.57.77,1.47-.71,2.52-4.69,4.47-5.33,6.57-1.67,3.71-1.35,5.59,1.48,4.68,1.93,5.31.9,1.82.06,2.52S.15,42.75.02,43.72s.32,3.84,1.09,5.45,1.86,2.87,2.44,3.08,1.09.42,1.09,1.96-.19,4.47.71,6.22,3.15,4.4,4.63,4.68,4.69.63,5.65.56,1.31-.61,1.81,0,1.72,2.93,3.01,3.91,4.5,2.66,7.71,1.89,4.95-1.89,5.53-2.8.54-1.47,1.2-1.75,1.03-17.41,1.03-20.21-.42-10.77-.42-14.2-.17-10.4-.17-13.84.17-11.61-.45-12.58Z"/>
    <path class="cls-2" d="m35.11,6.07c1.34-2.1,2.76-5.07,6.22-5.82s6.91.38,8.63,1.31,2.35,3.65,2.48,4.51,2.57.79,4.18,2.26,4.56,4.4,5.01,5.87.71,2.45.58,3.57-.77,1.47.71,2.52,4.69,4.47,5.33,6.57,1.67,3.71,1.35,5.59-1.48,4.68-1.93,5.31-.9,1.82-.06,2.52,2.25,2.45,2.38,3.43-.32,3.84-1.09,5.45-1.86,2.87-2.44,3.08-1.09.42-1.09,1.96.19,4.47-.71,6.22-3.15,4.4-4.63,4.68-4.69.63-5.65.56-1.31-.61-1.81,0-1.72,2.93-3.01,3.91-4.5,2.66-7.71,1.89-4.95-1.89-5.53-2.8-.54-1.47-1.2-1.75-1.03-17.41-1.03-20.21.42-10.77.42-14.2.17-10.4.17-13.84-.17-11.61.45-12.58Z"/>
    <path class="cls-1" d="m34.76,6.94c.06-.5.09-.98.39-.93.15.03.23.22.29.84.38,3.81.42,17.72.51,19.75.1,2.37.93,19.45.72,21.71s-.78,17.33-.91,17.8c-.14.51-.24.83-.66.79s-.14-1.33-.14-2.15.2-12.51.2-14.1.1-5.65-.1-7.93-.3-14.67-.5-17.05.14-18.34.19-18.74Z"/>
    <path class="cls-1" d="m17.96,8.93c-.37-.79-.58-2.46-.48-2.64.06-.11.15-.07.22.13.06.15.82,1.95,1.05,2.37.48.85,1.14,1.56,1.76,2.03.66.51.02.79-.83.19-1-.7-1.24-1.07-1.72-2.07Z"/>
    <path class="cls-1" d="m35.9,28.41c-1.26.24,1.05-5.85,4.85-7.82.95-.49,3.26-1.39,3.51-1.21.31.22.14.46-.11.55-.19.07-2.81,1.21-3.31,1.51-.86.51-2.41,2.37-2.83,3.01-.5.76-1.04,1.96-1.31,2.61-.32.76-.58,1.27-.8,1.35Z"/>
    <path class="cls-1" d="m11.56,38.85c.19-.56-1.45-1.19-3.34-1.24-1.15-.03-2.44.26-3.32.62s-2.18,1.55-2.22,1.72c-.01.04,0,.05.16-.06.12-.08,1.87-.95,2.26-1.1.6-.23,2.47-.49,2.99-.51.59-.03,1.4.12,1.86.21.54.1,1.46.64,1.6.35Z"/>
    <path class="cls-1" d="m10.86,41.63c-1.26.24.71-5.49,4.78-7.62.95-.5,4.14-.72,4.41-.55.8.5-.16.65-.51.64-.4,0-3.09.25-4.04.89-.83.55-2.11,2.05-2.53,2.69-.5.76-1.04,1.96-1.31,2.61-.32.76-.58,1.27-.8,1.35Z"/>
    <path class="cls-1" d="m25.59,51.35c-.5-1.18,5.91-.65,8.64,2.65.68.82,1.85,3.49,1.76,3.8-.04.13-.84.55-.91.06-.11-.17-1.21-2.48-1.61-2.97-.63-.77-2.84-2.04-3.56-2.31-.85-.33-2.13-.6-2.83-.73-.81-.15-1.36-.3-1.49-.5Z"/>
    <path class="cls-1" d="m17.17,22.71c.14.62-3.4,1.22-6.32-.07-1.76-.77-2.87-2.17-2.86-3.27,0-.45.68.19,1.33.83.81.8,1.85,1.34,2.7,1.7,1.02.43,2.16.51,3.1.59,1,.09,2.05-.44,2.05.21Z"/>
    <path class="cls-1" d="m52.35,25.64c-1.28-.07,2.31-5.26,6.47-6.26,1.04-.25,2.77-.3,3.04-.15.13.08.36.37.22.47-.48.25-2.7.43-3.26.6-.95.29-2.91,1.47-3.48,2-.67.62-1.48,1.65-1.9,2.22-.49.66-.87,1.09-1.1,1.12Z"/>
    <path class="cls-1" d="m46.78,27.22c-.94-.87,5.22-3.06,9.07-1.19.96.47,2.76,2.04,2.85,2.34.21.7-.48.58-.7.43-1.02-.43-1.91-1.62-2.7-2.02-.89-.45-3.22-.75-3.99-.7-.91.06-2.16.44-2.85.61-.8.2-1.49.66-1.68.53Z"/>
    <path class="cls-1" d="m57.72,44.82c-.01-.66,2.02-.44,3.74.56,1.59.93,2.84,2.54,3.47,4.5.33,1.02.79,2.47.58,3.17-.07.23-.39.13-.44-.12-.15-.61-.81-2.61-1.16-3.19-.52-.85-1.6-2.57-2.16-3.09-.67-.62-1.69-.94-2.37-1.19-.73-.27-1.62-.4-1.66-.64Z"/>
    <path class="cls-1" d="m51.46,48.93c.84.43,1.68,2.89.57,5.73-.47,1.21-1.48,2.24-2.39,3.13-.76.75-3.44,2.08-3.75,2.03-.14-.02-.07-.22.14-.38.16-.12,2.33-1.98,2.73-2.41.67-.74,1.94-2.01,2.41-3.26.32-.85.03-2.94-.17-3.8-.18-.8-.03-1.28.46-1.05Z"/>
    <path class="cls-1" d="m53.13,10.46c.15-1.06-.33-3.95-.63-4.3-.09-.1-.34.32-.35.58.03.44,0,3.18-.11,3.75-.2.98-1.57,2.68-2.04,3.28-.56.72,2.51.91,3.13-3.32Z"/>
    <path class="cls-1" d="m26.61,11.55c-.16-1.27,5.88,1.27,7.63,5.17.44.98.83,3.55.67,3.82-.07.12-.23-.01-.3-.26-.06-.19-1.05-2.87-1.32-3.39-.46-.89-2.23-2.54-2.84-3-.73-.54-1.89-1.15-2.53-1.46-.74-.36-1.24-.65-1.3-.88Z"/>
  </g>
</svg>