<?xml version="1.0" encoding="UTF-8"?>
<svg id="Layer_2" data-name="Layer 2" xmlns="http://www.w3.org/2000/svg" viewBox="0 0 77.33 59.26">
  <defs>
    <style>
      .cls-1 {
        fill: #fff;
      }

      .cls-1, .cls-2 {
        stroke-width: 0px;
      }

      .cls-2 {
        fill: #043248;
      }
    </style>
  </defs>
  <g id="Layer_8" data-name="Layer 8">
    <path class="cls-2" d="m15.57,59.19c1.22.61,2.56-2.93,3.78-4.39s3.66-5.24,4.51-5.73,1.46-.49,2.68,0,12.93,2.81,22.93.98,14.76-2.56,17.93-4.76,7.2-7.07,8.66-10.37,1.46-10.85.98-13.17-2.93-10.49-7.44-14.27S58.13.77,51.67.28s-14.03-.49-21.22,1.22-13.05,4.02-18.66,7.07-6.46,3.54-8.78,6.46S.08,21.87.08,24.92s-.49,5.49.98,9.03,2.32,5,4.27,7.07,7.32,4.76,8.05,5.12,1.1,1.34.85,2.56-.85,6.34.24,8.42l1.1,2.07Z"/>
    <circle class="cls-1" cx="29.18" cy="25.49" r="1.84"/>
    <circle class="cls-1" cx="53.26" cy="25.49" r="1.84"/>
    <circle class="cls-1" cx="41.56" cy="25.49" r="1.84"/>
  </g>
</svg>