<?xml version="1.0" encoding="UTF-8"?>
<svg id="Layer_2" data-name="Layer 2" xmlns="http://www.w3.org/2000/svg" viewBox="0 0 79.93 87.47">
  <defs>
    <style>
      .cls-1 {
        fill: #fff;
      }

      .cls-1, .cls-2 {
        stroke-width: 0px;
      }

      .cls-2 {
        fill: #043248;
      }
    </style>
  </defs>
  <g id="Layer_11" data-name="Layer 11">
    <path class="cls-2" d="m21.57,14.72c-2.68.36-9.29.71-12.6,1.34s-6.07.98-7.33,1.61-2.05.09-1.43,3.13,3.57,13.67,4.2,19.39,1.88,15.1,2.23,19.21,2.41,14.47,2.59,16.97-.09,5.81.18,7.68.36,3.66,2.14,3.39,6.34-1.97,9.02-2.77,6.61-2.14,8.84-2.68,8.67-3.04,10.81-3.75,7.33-2.41,9.65-2.77,3.93-.27,5.63.09,3.66.8,4.65.54,1.61-.8,1.43-1.79-.63-4.47-.63-4.47L21.57,14.72Z"/>
    <path class="cls-1" d="m54.81,1.37c-.88-1.21-6.84.86-10.82,1.55s-9.08.58-12.17.97-10.63.97-13.91,1.93-11.22,2.76-13.15,3.53c-.34.14-1.16,1.72-.52,3.75.94,2.97,1.02,7.23,2.79,13.12s3.92,16.5,4.51,21.8,1.77,14.73,2.36,20.32,1.34,9.89,1.42,10.17c.13.42.09,1.32,4.05.53,4.65-.93,5.17-2.11,8.81-2.71s8.53-1.62,12.04-2.53,6.49-1.79,9.7-1.79,6.15-.02,8.13-.02,3.69.06,5.37-.25,3.43-1.15,3.62-2.18c.32-1.71-4.39-17.72-5.05-22.15s-3.38-19.15-3.38-20.95-2.64-15.58-2.81-17.71-.16-6.25-.99-7.39Z"/>
    <path class="cls-2" d="m55.81.37c-.88-1.21-6.84.86-10.82,1.55s-9.08.58-12.17.97-10.63.97-13.91,1.93-9.66,2.51-11.59,3.28-3.72.97-2.64,3.89,1.38,7.34,3.14,13.23,4.12,16.49,4.71,21.79,1.77,14.73,2.36,20.32,1.3,9.75,1.39,10.12c.26,1,.16,1.67,4.08.59,4.57-1.26,5.17-2.11,8.81-2.71s8.53-1.62,12.04-2.53,6.3-1.61,9.5-1.61,6.37.02,8.35.02,3.66-.15,5.34-.46,3.24-.31,2.55-2.84c-.46-1.68-3.32-17.05-3.97-21.48s-3.38-19.15-3.38-20.95-2.64-15.58-2.81-17.71-.16-6.25-.99-7.39Z"/>
    <path class="cls-1" d="m41.62,48.93c.14.35,6.29-2.43,7.07-2.85s3.86-1.99,4.25-2.35.32-5.06.32-5.06l-3.72-2.53s-5,1.61-5.13,1.9-.89,3.39-1.18,4.51-1.79,5.92-1.61,6.39Z"/>
    <path class="cls-2" d="m42.37,48.11c.1.26,3.18-1.21,5.65-2.29,1.69-.74-3.68-4.59-4.02-3.39-.65,2.26-1.78,5.3-1.63,5.69Z"/>
    <path class="cls-1" d="m60.69,32.68c.12,1.03.3,1.67.27,1.71-1.28,1.29-2.45,2.68-3.12,3.56-1.5,1.97-2.98,3.61-4.02,4.76s-.68.95-1.17,1.12-.29-1.54-.51-1.8-2.62.97-3.1.91.11-2.56-.11-2.85-2.19.65-2.51.51.14-2.19-.11-2.48-1.62.4-1.91.37.48-1.68,1.14-2.62,11.73-14.6,13.21-16.29c.06-.07.22,1.96.55,2.35,2.04,2.4,1.18,8.85,1.4,10.74Z"/>
    <path class="cls-2" d="m72.32,4.75c.99-.4,6.36,3.9,6.92,4.64s1.1,1.1.26,1.93-5.71,7.13-7.41,8.98c-1.69,1.85-8,8.69-9.22,10.26s-4.42,4.9-5.64,6.47-2.45,3.14-3.29,4.07-.6,1.04-.99,1.18-.37-1.91-.56-2.12-2.13.77-2.52.73.09-2.05-.09-2.27-1.78.52-2.04.41.12-1.75-.09-1.98-1.32.32-1.55.3.39-1.34.93-2.09,9.53-11.77,10.72-13.13,7.22-8.51,8.14-9.67,5.33-7.23,6.45-7.68Z"/>
  </g>
</svg>