<?xml version="1.0" encoding="UTF-8"?>
<svg id="Layer_2" data-name="Layer 2" xmlns="http://www.w3.org/2000/svg" xmlns:xlink="http://www.w3.org/1999/xlink" viewBox="0 0 71.04 71.28">
  <defs>
    <style>
      .cls-1 {
        fill: #ceb8d7;
        filter: url(#drop-shadow-1);
      }

      .cls-1, .cls-2 {
        stroke-width: 0px;
      }

      .cls-2 {
        fill: #043248;
      }
    </style>
    <filter id="drop-shadow-1" filterUnits="userSpaceOnUse">
      <feOffset dx="2.83" dy="2.83"/>
      <feGaussianBlur result="blur" stdDeviation="2.83"/>
      <feFlood flood-color="#000" flood-opacity=".3"/>
      <feComposite in2="blur" operator="in"/>
      <feComposite in="SourceGraphic"/>
    </filter>
  </defs>
  <g id="Layer_3" data-name="Layer 3">
    <rect class="cls-1" x="5.79" y="5.87" width="53.86" height="53.86" rx="19.84" ry="19.84"/>
    <path class="cls-2" d="m35.4,27.1c5.51,3.55,12.93,6.88,12.33,11.19-.65,4.65-7.35,8.26-16.2,10.13-6.84,1.44-12.8.27-12.56-4.24.19-3.51,3.2-5.59,6.47-5.75,1.69-.08,3.62.6,4.22,1.37-.3.61-.63,1.64-.7,2.55-.08,1.1.95,1.99,2.12,1.82s2.56-1.24,2.7-2.9c.13-1.53-.93-2.74-2.55-3.39-4.7-2.11-11.32-6.68-10.93-13.88.35-6.52,7.98-8.42,15.62-6.4,7.01,1.85,11.75,5.15,11.42,7.71-.27,2.11-2.94,3.17-5.85,2.83-1.87-.22-3.35-1.21-3.66-1.78.25-.38.36-1.02.42-1.62.13-1.38-1.03-2.56-2.34-2.82-1.41-.28-2.32.42-2.41,1.51-.12,1.4.71,2.83,1.9,3.67Z"/>
  </g>
</svg>