<?xml version="1.0" encoding="UTF-8"?>
<svg id="Layer_2" data-name="Layer 2" xmlns="http://www.w3.org/2000/svg" xmlns:xlink="http://www.w3.org/1999/xlink" viewBox="0 0 579.76 651.72">
  <defs>
    <style>
      .cls-1 {
        filter: url(#drop-shadow-1);
      }

      .cls-2 {
        fill: #f7a663;
      }

      .cls-2, .cls-3, .cls-4, .cls-5, .cls-6, .cls-7, .cls-8, .cls-9, .cls-10, .cls-11, .cls-12, .cls-13 {
        stroke-width: 0px;
      }

      .cls-3 {
        fill: #f7b08c;
      }

      .cls-4 {
        fill: #6d4f33;
      }

      .cls-5 {
        fill: #d5d8b2;
      }

      .cls-6 {
        fill: #ceb8de;
      }

      .cls-7 {
        fill: #ff794f;
      }

      .cls-8 {
        fill: #ffe2d7;
      }

      .cls-9 {
        fill: #fff;
      }

      .cls-10 {
        fill: #eace9b;
      }

      .cls-11 {
        fill: #ffbc22;
      }

      .cls-12 {
        fill: #fce1ca;
      }

      .cls-13 {
        fill: #f79235;
      }
    </style>
    <filter id="drop-shadow-1" filterUnits="userSpaceOnUse">
      <feOffset dx="4" dy="5"/>
      <feGaussianBlur result="blur" stdDeviation="5"/>
      <feFlood flood-color="#000" flood-opacity=".3"/>
      <feComposite in2="blur" operator="in"/>
      <feComposite in="SourceGraphic"/>
    </filter>
  </defs>
  <g id="KAFFE" class="cls-1">
    <g id="Sokker">
      <g id="Sok1">
        <path class="cls-7" d="m266.95,518.63s-24.68,21.52-33.83,22.47c-9.15.96-17.64-4.25-27.83,3.9-5.6,4.47-8.71,12.15-13.24,27.4-4.18,14.1-8.78,29.77-10.71,34.7-3.2,8.19-6.42,17.6-8.59,26.17-1.32,5.22-.45,10.83,4.53,14.58,9.03,6.8,15.53,2.58,15.53,2.58,0,0,7.49-6.44,12.57-17.31,4.99-10.67,5.22-18.04,11.35-29.8,6.33-12.14,9.9-16.99,16.08-21.98,5.77-4.67,16.37-8.3,19.84-9.09,3.97-.9,35.54-8.04,35.54-8.04l-21.23-45.58Z"/>
        <g id="Layer_10_copy" data-name="Layer 10 copy">
          <path class="cls-3" d="m228.66,548.47c-.44,2.88-1.01,4.65-2.2,7.29-1.78,3.94-5.22,7.92-9.76,10.78-4.07,2.57-9.74,4.82-13.48,5.21-3.29.35-7.12-1.24-10.25-2.41,4.38-14.68,6.82-19.96,12.32-24.35,9.27-7.41,15.13-3.84,23.37-3.84.38,1.96.31,5.27,0,7.31Z"/>
          <path class="cls-3" d="m177.27,647.85c-4.98-3.75-5.85-9.36-4.53-14.58,1.1-4.33,2.47-8.88,3.97-13.38,3.21,1.59,5.53,2.77,8.59,4.63,1.33.87,6.17,4.19,8.22,6.09,2.27,2.1,6.08,5.74,8.36,8.82-4.65,7.68-9.08,10.99-9.08,10.99,0,0-6.5,4.23-15.53-2.58Z"/>
        </g>
      </g>
      <g id="Sok2">
        <path class="cls-7" d="m324.87,501.68s9.18,5.98,12.71,5.5c3.72-.51,6.57-1.11,15.38-5.25,5.05-1.85,10.47-.85,13.3,1.08,4.62,3.16,10.77,9.78,21.43,20.08,11.71,11.32,17.71,17.67,22.85,24.77,4.53,6.24,6.35,8.02,10.71,17.66,4.14,9.14,2.09,13.1-.07,15.02-1.62,1.43-4.92,4.87-14.55-1.02-10.97-6.7-17.37-13.56-24.76-19.98-8.09-7.02-14.2-10.78-18.64-12.47-6.52-2.49-9.64-2.51-13.98-3.44-9.88-2.11-15.53,2.82-15.53,2.82l-8.84-44.78Z"/>
        <g id="Layer_13_copy" data-name="Layer 13 copy">
          <path class="cls-3" d="m410.19,554.67c-.87,1.28-1.39,2.3-1.97,3.79-.41,1.06-1.72,4.69-2.55,7.94-1.03,4.04-1.93,7.95-2.03,11.22,4.31,2.89,5.4,3.22,6.07,3.58,7.12,3.76,10.03.61,11.47-.66,2.16-1.92,4.21-5.88.07-15.02-3.41-7.53-5.27-10.27-8.08-14.08-1.07,1.05-2.07,2.12-2.97,3.24Z"/>
          <path class="cls-5" d="m344.14,505.66c3.54,7.2,9.36,13.98,17.4,15.37,5.98,1.04,9.11-.63,14.8-2.2,1.04-.29,3.84-1.74,4.68-2.26-7.36-7.25-11-10.99-14.75-13.56-2.83-1.93-8.24-2.93-13.3-1.08-3.93,1.85-6.66,2.99-8.83,3.73Z"/>
        </g>
      </g>
    </g>
    <g id="Bukser">
      <path class="cls-6" d="m.51,454.57c.77-11.63,3.49-15.71,8.44-19.74,4.95-4.04,16.37-12.37,26.23-17.03,9.87-4.66,29.76-12.96,42.5-16.79,16.89-5.08,38.14-11.73,49.38-14.19,1.9-.42,26.05-6.16,39.79-7.61,67.56-7.13,232.79-16.84,232.79-16.84,0,0,70.21,10.43,91.06,18.77,20.85,8.34,43.79,19.46,57,29.19,13.21,9.73,22.94,22.24,27.11,27.8s4.36,5.87,4.36,8.14-3.78,26.97-11.09,32.51c-7.31,5.55-27.22,13.61-38.56,18.9-11.34,5.29-50.41,20.92-66.29,25.96-15.88,5.04-70.7,16.27-86.58,19.8-15.88,3.53-51.14,13.84-62.47,16.68-11.6,2.9-24.57,11.18-32.17,8.64-23.36-7.81-38.61-36.98-40.58-43.6-.8-2.7-1.26-7.81,2.52-9.83,3.78-2.02,32.08-17,42.85-22.18,10.43-5.01,32.7-17.89,32.7-17.89l-48.04,4.83s-18.84-5.24-33.51-9.28c-14.68-4.04-28.98-7.7-41.09-11.01-12.11-3.3-196.34-5.24-196.34-5.24"/>
      <path class="cls-9" d="m275.56,479.68s-5.97-4-27.42-11.5c-17.13-5.99-27.24-9.87-41.76-16.8-21.66-10.34-53.62-22.79-70.63-25.13-25.94-3.57-58.38-1.01-88.4,1.52-8.94.75,9.72,9.07,2.54,15.61-7.55,6.89-40.39-1.19-41.15,14.06-.42,8.39,2.21,16.55,7.03,23.94,5.03,7.71,14.86,14.17,24.4,17.21,25.07,8.01,56.11,14.71,63.92,15.96,54.42,8.65,67.8,10.12,89.01,11.38,25.45,1.51,26.48,1.22,62.01,2.65,13.96.56,19.92,1.26,29.04-.97,22.98-5.62-5.59-36.13-8.58-47.95Z"/>
      <path class="cls-6" d="m318.79,489.02s-17.07-.09-72.28-18.35c-19.16-6.33-31.66-11.59-46.18-18.53-21.66-10.34-46.92-17.16-66.85-22.29-34.49-8.88-61.51-8.97-91.53-6.44-8.94.75-25.82,4.86-33,11.41-7.55,6.89-8.14,10.96-8.91,26.21-.42,8.39,2.21,16.55,7.03,23.94,5.03,7.71,14.86,14.17,24.4,17.21,25.07,8.01,56.11,14.71,63.92,15.96,54.42,8.65,67.8,10.12,89.01,11.38,25.45,1.51,26.48,1.22,62.01,2.65,13.96.56,19.92,1.26,29.04-.97,22.98-5.62,46.33-30.38,43.34-42.2Z"/>
      <path class="cls-9" d="m283.4,491.72c-11.9,6.1-38.02,19.05-41.23,21.28-2.99,2.07-4.13,7.13-3.03,10.67,1.21,3.9,4.6,7.16,5.34,8.44,1.3,2.26,18.1,23.94,35.79,34.62,6.86,4.14,20.57-5.74,32.17-8.64,11.33-2.83,46.59-13.15,62.47-16.68,15.88-3.53,70.7-14.76,86.58-19.8,15.88-5.04,54.95-20.67,66.29-25.96,11.34-5.29,31.56-12.98,38.56-18.9,7.9-6.68,13.6-22.81,11.09-33.85-2.48-10.91-9.34-16.67-14.3-22.01-4.73-5.1-10.36-8.78-15.9-12.36-5.67-3.66-18.99,7.67-31.01,3.94-13.85-3.45-18.19-15.25-31.08-13.5-20.67,2.8-46.77,5.73-63.11,11.24-15.65,5.27-25.6,10.23-45.12,21.19-7.63,4.28-26.05,15.57-31.71,19.91-6.9,5.29-18.61,13.46-24.34,18.16-2.64,2.16-6.02,4.46-9.69,6.65-.11.06,7.94-.93,5.68.32-1.11.61-14.04,9.04-15.22,9.4-1.03.32-5.09-.66-5.23-.67-4.37,2.27-11.99,5.92-12.99,6.57"/>
      <path class="cls-6" d="m286.79,493.16c-10.77,5.18-39.07,20.16-42.85,22.18-3.78,2.02-3.32,7.13-2.52,9.83,1.97,6.63,17.22,35.79,40.58,43.6,7.6,2.54,20.57-5.74,32.17-8.64,11.33-2.83,46.59-13.15,62.47-16.68,15.88-3.53,70.7-14.76,86.58-19.8,15.88-5.04,54.95-20.67,66.29-25.96,11.34-5.29,31.56-12.98,38.56-18.9,7.9-6.68,13.6-22.81,11.09-33.85-2.48-10.91-9.34-16.67-14.3-22.01-4.73-5.1-8.92-9.64-14.46-13.21-5.67-3.66-13.91-9.55-25.94-13.28-13.17-1.99-26.77-3.02-39.88-1.18-20.74,2.92-44.5,11.48-60.83,16.98-15.65,5.27-25.6,10.23-45.12,21.19-7.63,4.28-26.05,15.57-31.71,19.91-6.9,5.29-18.61,13.46-24.34,18.16-10.77,8.83-33.3,20.05-35.8,21.66"/>
    </g>
    <g id="Ansigt_hår" data-name="Ansigt + hår">
      <path class="cls-13" d="m266.01,157.3c-5.64,2.18-12.35,5.27-18.55,4.12-3.48-.65-7.56-3.74-6.42-7.59s-1.35-8.28-5.24-9.23c-5.8-1.41-11.42-.86-17.3-.55-4.96.26-8.57.55-9.88-4.91s-3.25-12.87-.59-18.2c2.34-4.69,8.46-4.02,11.97-7.64,5.23-5.4,2.57-12-1.66-16.88-3.66-4.24-6.32-9.14-6.92-14.8-1.15-10.91,6.97-21.13,18.26-20.74,6.26.22,8.58-6.4,6.48-11.29-2.32-5.39-5.13-12-4.27-18.01s6.48-9.11,11.09-11.89,10.5-5.59,16.15-4.66c4.3.71,8.85,3.88,8.94,8.53.15,7.76,9.85,9.78,13.98,3.79,5.94-8.62,17.61-12.49,27.72-12.06,9.04.39,19.83,7.24,17.17,17.63-1.26,4.9,2.34,9.25,7.23,9.49,6.4.31,12.79.82,19.15,1.65,4.03.52,10.73.59,13.48,4.15,4.82,6.23.17,16.86.35,23.81.13,5.27,2.62,9.93,7.35,12.45,3.69,1.96,6.77,2.05,8.33,6.4,3.36,9.37-5.95,17.85-12.16,23.35-3.2,2.84-2.5,7.67,0,10.61,9.06,10.64.94,25.1-7.63,32.94-7.27,6.65-21.12,14.13-29.79,5.89-5.11-4.86-10.47-9.19-17.94-6.61-6.47,2.23-11.03,8.69-16.59,12.47-7.17,4.87-23.82,10.65-28.06-1.41-3.18-9.05-17.68-5.15-14.46,3.99,4.16,11.82,15.82,18.6,28.17,18.22,7.03-.22,13.91-2.84,19.85-6.5,2.9-1.79,5.61-3.87,8.26-6.01,1.51-1.22,2.98-2.5,4.42-3.8.63-.57,2.19-2.57,3.02-2.71-.62.1.54.75,1.19,1.39,1.03,1.01,2.01,2.06,3.11,3,2.54,2.18,5.32,3.82,8.47,4.95,5.92,2.14,12.64,1.84,18.67.33,12.74-3.19,24.09-12.29,31.29-23.11,8.95-13.44,9.31-31.12-1.37-43.65v10.61c9.21-8.16,18.31-19.02,17.06-32.17-.54-5.69-2.58-11.4-6.68-15.54-2.11-2.13-4.6-3.63-7.35-4.77-1.27-.53-2.64-1.88-2.2-.31-.29-1,.18-2.41.31-3.45,1.35-11.15,2.89-23.94-6.4-32.32-4.98-4.49-11.44-5.65-17.85-6.55-7.97-1.12-15.96-1.9-24-2.3,2.41,3.16,4.82,6.33,7.23,9.49,4.58-17.85-9.51-33.56-26.67-36.1-17.18-2.55-35.7,4.56-45.63,18.97,4.66,1.26,9.32,2.52,13.98,3.79-.19-9.66-6.34-17.57-15.08-21.34-9.83-4.24-20.52-1.91-29.7,2.9s-18.18,11.33-20.66,21.47c-2.57,10.53,1.48,21.04,5.58,30.57l6.48-11.29c-14.53-.5-27.72,9.69-31.93,23.45-2.11,6.89-1.82,14.77.42,21.59,1.13,3.45,2.66,6.86,4.66,9.9,1.8,2.73,4.68,5.09,6.07,7.95l-1.02-3.79c2.72-2.42,3.07-3.18,1.03-2.29-.72.21-1.44.44-2.15.67-1.99.71-3.76,1.61-5.46,2.85-3.54,2.6-6.03,6.18-7.6,10.26-3.22,8.37-1.67,18.18.46,26.65,2,7.95,7.35,14.12,15.66,15.54,7.29,1.25,14.84-1.33,21.99.41l-5.24-9.23c-2.85,9.59,2.61,19.38,11.2,23.9,10.34,5.44,22.04,1.97,32.22-1.98,3.76-1.46,6.41-5.04,5.24-9.23-1.01-3.6-5.42-6.71-9.23-5.24h0Z"/>
      <g>
        <path class="cls-9" d="m365.68,99.81c1.67-12.52-4.97-24.86-13.78-33.91s-19.75-15.7-29.55-23.67c-3.74-3.04-7.41-6.34-11.88-8.15-4.38-1.77-9.21-1.99-13.93-2.18-12.95-.52-25.9-1.05-38.85-1.57-2.29-.09-4.68-.16-6.73.85-6.28,3.11-4.36,12.35-5.92,19.19-2.5,10.99-15.76,17.82-16.21,29.08-.21,5.22,2.51,10.08,3.37,15.23,1.99,11.82-5.75,22.86-13.07,32.35,8.95,1.35,18.24,2.83,25.73,7.91,5.06,3.43,8.96,8.29,13.66,12.19s10.84,6.91,16.79,5.54c5.16-1.19,12-4.84,14.56-.2-.35,2.94-2.49,5.6-5.29,6.58,13.07-1.98,26.13-3.97,39.2-5.95,3.84-.58,7.86-1.15,11.52.14,2.2.77,4.21,2.2,6.53,2.44,5.32.55,9.01-5.01,11.4-9.8,2.38-4.79,4.76-9.58,7.14-14.37,1.3-2.61,2.6-5.74,1.2-8.3-1.04-1.91-3.26-2.81-5.33-3.48-25.98-8.34-54.4-1.94-81.32-6.35-1.99-.33-4.07-.76-5.62-2.06-1.39-1.17-2.16-2.9-2.81-4.6-3-7.93-4.06-16.98-.81-24.8,3.25-7.82,11.61-13.84,19.98-12.51,3.17.5,6.09,1.95,8.96,3.39,14.01,7.01,28.02,14.02,42.03,21.03-6.81-.19-13.61-.39-20.42-.58"/>
        <path class="cls-13" d="m388.18,99.81c2.44-23.23-12.67-44.62-30-58.39-4.65-3.7-9.41-7.26-14.19-10.78-1.85-1.36-3.69-2.75-5.54-4.12-2.58-1.92,2.92,2.43.47.34-1.04-.88-2.11-1.73-3.17-2.59-4.43-3.58-8.77-7.2-13.94-9.62-7.55-3.54-15.21-4.74-23.51-5.17-10.62-.56-21.26-.86-31.88-1.3-6.14-.25-12.08-.66-18.18.46-8.47,1.56-15.51,7.01-19.95,14.28-3.41,5.59-4.19,12.02-4.8,18.37-.13,1.4-.78,3.92-.41,5.27-.18-.63,1.38-5.44.24-2.19-.29.84-1.18,4.57-.1.82.94-3.24.38-.89-.31.07-.48.68-.99,1.39-1.4,2.11-1.39,2.43,3.02-3.64,1.18-1.49-.56.65-1.09,1.34-1.64,2-3.19,3.9-6.65,7.79-9.15,12.18-3.47,6.09-5.69,13.18-5.58,20.24.06,3.95.77,8.11,1.82,11.92.31,1.13.7,2.23,1.03,3.35.27.83.52,1.68.73,2.53.4,1.72.4,1.11-.02-1.82.37.61-.35,2.85.09,3.18-.61-.47,1.18-5.29-.03-.52-.26,1.04-.66,2.03-.94,3.05-.69,2.5,2.05-3.76-.04-.16-2.81,4.85-5.88,9.38-9.29,13.83-8.26,10.78.1,31.02,13.45,33.05,3.38.51,6.76,1.02,10.1,1.76,1.66.37,3.32.77,4.95,1.26.81.24,1.61.5,2.41.79,1.57.57,1.07.35-1.49-.67.06-.09,4.45,2.34,4.39,2.5-2.1-1.71-2.52-2.04-1.27-.98.64.53,1.26,1.09,1.86,1.66,2.46,2.26,4.74,4.71,7.25,6.91,8.3,7.3,17.8,12.82,29.09,13.43,4.27.23,8.59-.37,12.71-1.51,1.29-.36,2.58-.77,3.86-1.17.63-.19,1.27-.35,1.92-.49-7.08,1.7-13.24-1.09-18.48-8.38-.76-5.78-1.51-11.56-2.27-17.34-.91,3.71.31,1.9,3.64-5.42,3.03-2.01,3.5-2.49,1.41-1.45-10.19,4.55-13.14,18.77-9.21,28.1,4.68,11.08,15.25,14.74,26.54,13.03,11.43-1.74,22.87-3.47,34.3-5.21,1.31-.2,2.62-.37,3.92-.6,3.57-.61-4.11.1-.85.13.95,0,4.32-.75,1.14-.35l-1.35-.23c2.54.77,2.14.54-1.2-.7,3.14,1.17,6.03,2.91,9.32,3.59,5.06,1.04,10.09.95,15.07-.41,13.57-3.71,19.96-16.17,25.7-27.72,2.56-5.15,5.53-10.37,7.05-15.93,2.73-9.94-.47-20.88-7.92-27.88-9.84-9.24-26.16-10.79-38.94-12.06-10.59-1.05-21.24-.78-31.87-.76-5.18.01-10.37-.02-15.55-.28-2.43-.12-4.84-.34-7.27-.53-1.14-.09-4.34-.02.57.14-1.34-.05-3.61-1.25-4.77-.94l4.56,3.42c3.16,1.13,5.07,3.23,5.71,6.3-.34-.21-1.06-3.14-1.09-3.22-.33-1.1-.56-2.21-.85-3.31-.92-3.55.71.69.05.92-.05.02-.08-2.97-.1-3.38-.27-4.68.33.89-.27.98.58-.09.23-2.98.86-3.24-1.25,2.69-1.5,3.32-.75,1.88.33-.63.69-1.24,1.1-1.83l-.88,1.15c-1.21,1.5-1.18,1.54.1.12,1.43-1.27,1.39-1.29-.1-.06-1.55,1.15-1.53,1.21.06.18.7-.7,4.9-1.9-1.53.65,3.7-1.46-3.84.23-1.21.16,2.94-.08-4.62-.9-1.56-.08,1.59.51,1.05.23-1.64-.84.73.34,1.45.69,2.17,1.05,2.58,1.27,5.15,2.57,7.72,3.86,11.68,5.84,23.35,11.68,35.03,17.52,3.79-13.98,7.57-27.95,11.36-41.93-6.81-.19-13.61-.39-20.42-.58-11.78-.33-23.03,10.59-22.5,22.5s9.88,22.14,22.5,22.5c6.81.19,13.61.39,20.42.58,9.47.27,19.56-7.14,21.7-16.52s-1.23-20.85-10.34-25.41c-10.51-5.26-21.02-10.51-31.52-15.77-13.19-6.6-25.66-13.84-40.96-10.99-28.94,5.39-40.18,38.93-31.02,64.27,2.93,8.12,7.02,15.17,14.68,19.67,6.79,4,15.32,4.48,22.94,5.24,10.93,1.09,21.93.78,32.89.77,5.16,0,10.32.04,15.48.33,1.61.09,6.69-.36,8.1.67-.27-.19-5.3-.9-.63-.07,1.78.32,3.54.63,5.3,1.03,1.01.23,6.81,1.1,6.98,1.89l-2.9-1.31c-2.56-4.73-5.12-9.47-7.69-14.2l.2-3.13c1.25-2.88,1.47-3.49.67-1.83-2.62,4.56-4.62,9.52-7.06,14.18-.17.32-1.76,2.99-1.73,3.03l1.87-2.29c-1.33,1.33-1.21,1.36.36.09,4.79-1.78,5.66-4.27,12.46-2.24l2.79,1.22c-1.3-.63-2.62-1.2-3.97-1.73-8.95-3.78-17.24-3.3-26.64-1.92-13.35,1.95-26.69,4.05-40.03,6.07l17.34,41.12c7.28-3.25,12.81-10.79,15.14-18.19,3.29-10.43-.67-20.6-9.04-27.07-7.3-5.64-16.32-6.3-25.08-4.4-1.75.38-3.44.97-5.15,1.48-.23.07-2.45.54-2.48.68.26-1.26,7.63.71,4.68-.3-2.73-.94,3.12,2.12.75.35-.56-.41-3.25-2.55-1.25-.56s-.52-.51-.95-.9c-.83-.75-1.63-1.52-2.43-2.29-4.38-4.23-8.81-8.38-13.91-11.77-9.25-6.16-20.31-8.54-31.11-10.18,4.48,11.02,8.96,22.03,13.45,33.05,5.97-7.78,11.01-15.79,14.14-25.18,3.58-10.75,2.23-21.48-.89-32.1-.05-.16-.71-2.51-.7-2.52.81-.17-.14,4.65.21.86-.02.2-1.05,5.93-.21,2.38.17-.72,1.05-2.89-.27.45-1.42,3.57.66-.58,1.26-1.57.88-1.47,2.46-1.99-1.24,1.51.6-.57,1.1-1.35,1.62-2,5.91-7.23,12.04-14.53,14.25-23.87,1.05-4.43,1.49-9.18,1.66-13.74.03-.79.39-3.18-.14.41-.57,3.89-.26.64.14-.07,1.19-2.11-1.43,3.02-1.24,2.69-1.22,2.24-3.02,3.81-5.41,4.73-1.29,1.29-2.79,2.01-4.51,2.18l-1.29.24c.9.02,1.8.05,2.7.09.97.04,1.94.08,2.91.12,2.27.09,4.53.18,6.8.28,4.86.2,9.71.39,14.57.59,4.53.18,9.07.35,13.6.55,1.17.05,2.38.16,3.55.17,3.74.04-.72-.18-.69-.22.15-.2,2.31.57,2.58.59,2.42.15-3.18-2.13,0-.03.64.42,1.35.93,2.03,1.28,2.7,1.42-3.05-2.58-.69-.62,1.47,1.23,2.97,2.44,4.47,3.63,4.42,3.53,8.95,6.92,13.5,10.27,1.86,1.37,4.72,2.87,6.23,4.63-.09-.11-3.12-2.51-1.15-.88,1.11.91,2.23,1.79,3.33,2.72,2.65,2.25,8.38,6.18,9.62,9.55-.15-.41-2.82-4.17-.5-.56.6.94,1.23,1.85,1.8,2.81s1.06,1.94,1.61,2.91c1.86,3.24-.64-.57-.27-.85.28-.22,2.2,9.21,1.56,4.88-.46-3.14-.08-.42-.09.23-.05,1.66-.07,3.23-.24,4.88-1.23,11.74,11.23,23,22.5,22.5,13.24-.59,21.18-9.92,22.5-22.5h0Z"/>
      </g>
      <path class="cls-13" d="m354.75,78.2c11.77,0,23.04-10.35,22.5-22.5-.55-12.19-9.89-22.5-22.5-22.5-11.77,0-23.04,10.35-22.5,22.5.55,12.19,9.89,22.5,22.5,22.5h0Z"/>
      <path class="cls-8" d="m272.34,160.06s3.48,13.91,3.48,19.34-1.74,12.45-1.74,12.45l-3.71,11.57,29.09,15.97,35.23-20.22-7.39-9.8s-1.96-2.37-3.04-4.97-1.52-19.77-1.52-19.77l-50.41-4.56Z"/>
      <path class="cls-9" d="m323.42,62.08c-8.23-6.21-17.9-9.8-28.26-9.8-7.43,0-14.52,1.85-20.96,5.19l1.61,122.47c5.6,3.68,12.48,6.02,19.35,6.02,10.32,0,20.85-3.72,28.01-11.1"/>
      <path class="cls-8" d="m240.96,116.78c0,28.54,14.5,52.9,34.91,62.48,5.99,2.81,12.49,4.35,19.27,4.35,10.24,0,19.81-3.5,27.98-9.59,15.71-11.7,26.21-32.96,26.21-57.25,0-36.91-24.26-66.84-54.19-66.84s-54.19,29.92-54.19,66.84Z"/>
      <path class="cls-13" d="m236.15,63.15c-.09-.07-.54-2.65.1.08.12.52.17,1.05.3,1.56.36,1.4.69,2.84,1.42,4.11,1.74,3.02,5.08,5.01,8.58,5.03,7.98.05,13.89-7.35,16.48-14.1,2.51-6.56,3.73-13.39,10.65-16.85,6.33-3.16,11.72-.71,16.29,3.92,6.26,6.35,13.89,6.78,22.26,5.28,7.77-1.4,14.52-1.46,22.1,1.07,6.81,2.27,13.58,5.98,19.08,10.61,7.05,5.93,14.55,14.87,7.88,23.95-1.29,1.75-3.21,3.64-5.52,3.83-.67.06-1.65-.52-3.01-1.48-3.75-2.66-7.01-6.53-10.82-9.36-9.75-7.24-21.96-8.16-32.27-1.62-4.23,2.69-7.98,5.56-13.07,6.39-6.05.99-11.56-.71-17.14-2.82-5.98-2.25-12.05-3.31-18.24-1.06-3.86,1.4-7.18,3.57-10.23,6.29-1.79,1.59-3.44,4-5.67,5.01-7.35,3.34-10.78-7.84-11.11-12.9-.2-3.14-.52-6.55.33-9.61.42-1.52,2.87-6.18,4.9-5.42,9.05,3.38,12.96-11.11,3.99-14.46-7.96-2.97-17.25,3.5-21.04,10.22s-3.75,15.44-2.8,23.12c1.08,8.68,5.28,17.26,13.15,21.7,7.46,4.21,16.38,3.47,23.08-1.78,4.07-3.19,8.09-9.18,13.85-8.49,2.5.3,5,1.56,7.34,2.43,3.58,1.33,7.13,2.27,10.93,2.72,7.92.94,15.95-.46,22.96-4.31,4.11-2.26,7.9-6.26,12.64-6.63,11.53-.89,17.55,13.94,28.19,16.48,15.34,3.65,28.39-13.44,27.23-27.59-1.97-24-32.92-40.73-54.32-42.39-5.3-.41-10.4.49-15.58,1.48-1.83.35-4.5,1.06-6.35.37-1.73-.65-2.79-2.4-4.07-3.66-7.11-6.96-17.83-9.45-27.33-6.47s-16.36,10.41-19.82,19.34c-1.01,2.59-1.57,5.36-2.63,7.93-.28.68-.59,1.5-1.03,2.09-1.61,2.2-3.06.82.87,3.39,4.93,3.22,2.3,2.27,2.39.76.05-.82-.43-2.32-.67-3.09-.68-2.18-1.88-4.26-3.68-5.68-3.2-2.53-7.47-3.07-10.61,0-2.63,2.58-3.18,8.1,0,10.61Z"/>
      <path class="cls-13" d="m263.44,87.25c-1.52-3.75-.14,5.45-.05,1.44l-.39,3.68c-1.67,3.48-1.92,4.21-.76,2.18-1.57,2.55-3.54,4.38-6.32,5.55-1.37.57-7.19,1.35-3.07.98,12.76-1.17,23.1-8.81,26.63-21.36.71-2.51.86-5.13,1.47-7.66l.38-1.42c.64-1.84.6-1.86-.13-.06-.8,1.76-.77,1.78.08.04l.74-1.24c-2.17,2.59-2.46,3-.86,1.24l-2.39,1.73c1.69-.95,1.6-1-.28-.12-1.58.82-3.28,1.16-5.11,1,3.86-.05-4.44-1.16-1.79-.39,1.68.47.83.07-2.57-1.2,1.49.93,1.37.78-.35-.43-2.07-2.23-4.02-4.05-4.87-7.14-1.44-5.24-.69-3.72-.76-.7-.15,7.03,2.63,14.14,7.59,19.12,9.86,9.91,25.39,9.76,36.12,1.47,1.71-1.32,3.04-2.5,4.43-4.09,1.37-1.7,2.7-3.44,3.99-5.2,1-1.34.62-.87-1.15,1.4.65-1.29,2.12-2.57,3.11-3.57l1.12-1.1c1.51-1.31,1.55-1.38.13-.19-1.47,1.11-1.38,1.13.29.06l-2.54,1.04c4.07-1.3-5.32,0-1,.14-3.65-.65-4.6-.75-2.86-.3,1.68.49.85.11-2.5-1.12-3.08-1.85-4.51-4.84-5.77-8.06,7.23-9.49,14.46-18.99,21.7-28.48-1.63.15-3.26.29-4.89.44,1.99,14.73,3.99,29.46,5.98,44.2.9-.27,1.81-.51,2.73-.7,2.44-.44,1.84-.37-1.81.2,1.14.19,3.04-.07,4.22-.08,4.49-.04-5.29-1.2.3,0,1.62.35,3.16.88,4.75,1.35,4.35,1.29-3.74-2.28-.22.02.83.44,1.64.92,2.43,1.42,1.97,1.35,1.59,1-1.13-1.05-.05.34,2.86,2.59,3.11,2.85.65.67,1.27,1.38,1.87,2.1-2.05-2.72-2.4-3.09-1.06-1.11,12.95-7.57,25.9-15.14,38.86-22.71-7.37-11.1-16.83-21.47-28.95-27.44-7.59-3.74-15-5.76-23.46-6.31-7.52-.49-15.22,1.28-22.52,2.89-2.76.61-5.87,1.68-8.71,1.71,5.26-.06,1.29-.21-.08-.04-2.86.36-5.72.72-8.58,1.14-7.3,1.06-14.15,3.45-20.68,6.94s-11.94,8.04-17.38,12.61-10.7,9.3-14.22,15.63c-4.44,7.99-3.83,17.75,1.76,24.99s14.65,10.05,23.65,8.06l1.83-.4c2.22-.38,2.46-.45.71-.21-1.45.16-1.51.18-.2.04.93-.1,1.87-.17,2.8-.22,3.13-.17,6.24-.05,9.36.21v-45c-16.63,1.86-32.39,6.51-46.41,15.94-9.75,6.56-14.94,20.13-8.07,30.78,6.26,9.71,20.34,15.1,30.78,8.07,2.38-1.6,4.8-3.1,7.33-4.45,1.26-.67,2.58-1.24,3.84-1.9,2.78-1.44-5,1.72.17-.03,2.44-.82,4.87-1.64,7.37-2.28,1.38-.35,2.78-.67,4.18-.95s6.66-.85.8-.2c6.15-.69,11.37-2.05,15.91-6.59,3.9-3.9,6.84-10.31,6.59-15.91-.58-13.02-9.9-21.46-22.5-22.5-8.87-.73-17.78.27-26.46,2.19l25.41,33.05c1.63-2.94-.25.75-.99.87.49-.08,1.72-1.77,2.12-2.15,1.74-1.64,3.59-3.17,5.42-4.71.85-.72,1.73-1.4,2.56-2.13,2.35-2.05-3.18,2.19-.61.46,2.06-1.39,4.05-2.84,6.23-4.05.26-.14,2.94-1.37,2.92-1.5.06.58-4.37,1.38-.78.48,1.13-.28,2.23-.63,3.36-.88.28-.06,5.61-.78,2.15-.47-3.16.28.74-.08,1.34-.15,1.87-.23,3.73-.47,5.59-.72,3.34-.45,6.65-.9,9.94-1.58,2.33-.48,4.65-1.05,6.98-1.53.39-.08,3.28-.92,3.49-.68-.17-.19-4.52.19-.71.16,1.41-.01,2.9.1,4.29,0,2.64-.19-4.02-1.05-1.56-.19,1.04.36,6.71,2.15,3.63.91-3.41-1.38.91.6,1.31.83.87.5,1.69,1.06,2.55,1.58,2.64,1.62-.47.15-.92-.81.32.67,1.73,1.48,2.3,2,1.7,1.57,3.13,3.36,4.76,4.98,2.08,2.07-2.32-3.37-.67-.95.71,1.05,1.46,2.07,2.16,3.12,6.5,9.79,20.17,14.92,30.78,8.07,9.85-6.35,14.93-20.23,8.07-30.78-14.11-21.73-40.75-32.74-66.01-25.67-10.82,3.03-17.59,13.71-16.12,24.69,1.37,10.22,10.93,20.52,22.1,19.51,1.63-.15,3.26-.29,4.89-.44,7.32-.66,13.1-2.95,17.67-8.87,4.01-5.19,6.57-13.11,4.03-19.61-3.17-8.1-7.58-14.87-15.46-19.1s-16.67-5.32-25.31-3.54c-7.23,1.49-13.49,5.43-19.01,10.19-2,1.72-3.74,3.65-5.39,5.7-1.53,1.9-3,3.86-4.48,5.8-1.19,1.6-1.25,1.68-.16.24,4.88-6.98,13.03-7.01,24.46-.08,1.93,3.31,3.86,6.62,5.79,9.93.65,1.71.25,4.96.41.98.11-2.63-.18-5.36-.81-7.9-.78-3.16-2-6.22-3.71-9-4.34-7.08-11.6-12.35-19.57-14.62-16.38-4.67-32.84,3.43-41.35,17.69-3.1,5.19-4.95,10.94-5.95,16.85-.13.8-.37,1.63-.44,2.43-.51,1.73-.39,1.59.37-.43.99-3.23,3.51-5.16,7.54-5.77,7.72-3.27,9.44-4.61,5.16-4.03l-5.98.8c-1.77.38-3.23,1.03-4.94,1.75-14.59,6.16-24.79,24.78-18.49,40.3,2.29,5.65,4.87,10.25,10.34,13.45,4.82,2.82,11.93,4.02,17.34,2.27,10.49-3.4,20.45-16,15.71-27.68h0Z"/>
      <path class="cls-2" d="m254.99,43.79c.34-2.68,5.9-6.25,7.8-7.44,2.93-1.83,6.04-3.04,9.53-2.92,7.14.24,12.23,5.77,13.44,12.5.43,2.37,4.04,1.37,3.62-1-1.57-8.71-8.78-15.31-17.8-15.24-4.76.03-8.98,2.09-12.73,4.88-3.33,2.47-7.06,4.9-7.6,9.22-.3,2.39,3.45,2.37,3.75,0h0Z"/>
      <path class="cls-2" d="m328.23,66.57c3.87-5.37,14.62-9.54,20.74-6.82s6.82,9.8,6.7,15.66c-.05,2.41,3.7,2.41,3.75,0,.16-7.71-1.72-16.78-9.96-19.56s-19.67,2.17-24.46,8.83c-1.41,1.96,1.84,3.84,3.24,1.89h0Z"/>
      <path class="cls-2" d="m266.8,82.07c-2.23-4.78-5.7-10.55-11.81-10.02s-9.36,6.9-11.4,12.15l3.13-.83c-7.77-7.4-22.58-10.82-27.85,1.44-.94,2.19,2.29,4.11,3.24,1.89,4.29-9.97,15.81-6.54,21.96-.68,1.09,1.04,2.63.48,3.13-.83,1.52-3.93,4.42-10.8,9.92-9.22,3.32.95,5.1,5.14,6.43,7.99,1.02,2.19,4.25.28,3.24-1.89h0Z"/>
      <path class="cls-2" d="m356.91,143.39c4.11-.81,13.09-1.89,12.58,4.9-.18,2.41,3.57,2.4,3.75,0,.26-3.45-1.8-6.46-4.78-8.07-3.87-2.09-8.46-1.25-12.55-.44-2.37.47-1.36,4.08,1,3.62h0Z"/>
      <path class="cls-2" d="m217.16,141.85c2.79-4.15,7.74-6.42,12.72-5.67,2.36.35,3.38-3.26,1-3.62-6.73-1.01-13.13,1.73-16.95,7.4-1.35,2.01,1.9,3.89,3.24,1.89h0Z"/>
      <path class="cls-12" d="m276.68,332.68c-.26-.34-.75-.68-1.18-.95-.42-.28-.79-.53-.78-.89-.39-1.23-.98-2.08-1.41-2.52-.13-.12-.17-.18-.37-.32-.21-.15-.57-.36-1.09-.67l-.9-.54c-.45-.28-.87-.57-1.29-.88-.82-.63-1.54-1.36-2.16-2.17-1.13-1.52-1.79-3.33-2.09-5.17-.13-.85-.16-1.42-.17-2.02,0-.58-.03-1.16,0-1.74.06-2.32.4-4.59.98-6.79,1.16-4.39,3.27-8.46,6.2-11.91,1.14-1.52,2.54-2.92,3.48-3.98.4-.44.77-.92,1.02-1.49.25-.57.32-1.21.21-1.83-.05-.31-.13-.62-.22-.93l-.36-1.16c-.25-.78-.51-1.57-.76-2.35-.52-1.57-1.06-3.16-1.64-4.78.72,1.76,1.01,3.7,2.21,5.28.6.79,1.19,1.56,1.77,2.32.57.76,1.19,1.64,1.42,2.67.25,1.03.16,2.13-.15,3.24-.35,1.18-.75,2.12-1.08,3.06-.59,1.59-.89,3.41-1.18,5.18-.29,1.77-.57,3.47-1.27,5.02-1.7,3.98-1.54,7.27-1.23,8.96.07.45.17.75.25.96.04.11.09.2.11.2.03.03.06.06.09.07.11.04.17,0,.13-.26.09.51,1.06.39,1.63.05.19-.11.34-.23.43-.32.04-.04.06-.08.06-.08-.05-.03.17.09.26.15l.43.28c.32.22.7.48,1.13.82.43.32.93.77,1.37,1.21,1.76,1.82,2.7,3.91,3.38,5.79.49.36,1.43,1.82,1.4,2.43.08,1.31-.04,2.55-.27,3.73-.24,1.17-.58,2.24-.95,3.28-.75,2.07-1.6,3.99-2.12,6.21-.21-.44-.41-.89-.41-.89-.53.76-.79,1.14-1.32,1.89-1.23-2.66-1.98-6.07-3.55-8.15Z"/>
    </g>
    <g id="Bluse">
      <g id="Layer_30" data-name="Layer 30">
        <path class="cls-11" d="m269.35,193.71s-1.55,14.7,9.28,20.11,18.21,5.69,23.59,5.56,15.38-3.88,18.26-7c2.88-3.13,7.13-13.01,7.63-14.76s1.88-8.25,1.88-8.25c0,0,17.13,5.5,23.39,11.26,6.25,5.75,17.58,14.44,24.37,29.91,6.8,15.48,30.2,70.22,30.2,70.22l10.95,24.16s5.66,5.66,6.8,17.37,1.89,11.33,0,20.76c-1.89,9.44-4.53,9.82-11.7,15.86-7.17,6.04-24.92,17.74-35.11,22.65-10.19,4.91-14.72,6.42-25.29,12.08-10.57,5.66-24.92,9.76-24.92,9.76l-166.7-39.15s-11.82-5.77-16.14-12.68c-4.32-6.92-6.05-9.23-5.77-16.43.29-7.21,0-12.68,5.19-24.5,5.19-11.82,11.53-24.5,20.76-42.09,9.23-17.59,19.03-40.94,25.66-54.2,6.63-13.26,9.51-23.06,16.72-26.23,7.21-3.17,23.06-5.19,31.13-7.78s29.83-6.61,29.83-6.61Z"/>
      </g>
      <path class="cls-9" d="m239.13,263.39c1.05,7.98-.84,30.73-6.95,43.7-3.59,7.62-12.52,27.35-17.77,34.3-2.33,3.09-6.92,9.22-10.13,13.1-5.67,6.85-27.07,31.17-39.83,29.45-.77-.1-4.44-.82-5.12-1.19-2.78-1.52-11.96-5.33-14.86-10.67-4.78-8.81-1.25-37.27,0-43.17.75-5.17,11.25-22.45,18.29-35.93,7.3-13.97,23.08-46.18,29.61-57.54,6.66-11.58,45.02,14.76,46.75,27.95Z"/>
      <path class="cls-11" d="m207.72,208.52c1-.42,4.49-1.47,5.57-1.35,12.7,1.49,23.56,18.07,24.93,24.74,1.96,9.56.27,31.92-.51,39.06-.87,8-2.18,23.15-8.29,36.11-3.59,7.62-12.52,27.35-17.77,34.3-2.33,3.09-6.92,9.22-10.13,13.1-5.67,6.85-27.07,31.17-39.83,29.45-.77-.1-4.44-.82-5.12-1.19-2.78-1.52-11.96-5.33-14.86-10.67-4.78-8.81-1.25-37.27,0-43.17.75-5.17,11.25-22.45,18.29-35.93,7.3-13.97,23.08-46.18,29.61-57.54,6.66-11.58,9.83-23.44,18.11-26.91Z"/>
      <path class="cls-9" d="m333.54,280.33c.31-9.48,6.1-19.34,22.88-30.19,8.35-5.4,37.65,20.87,41.64,30.83,2.67,6.67,6.67,18.21,10.99,27.65,9.07,19.82,10.77,20.83,12.02,25.35.59,2.14,1.78,6.98,2.64,13.02.23,1.63.61,2.8.53,6.35-.19,8.15-2.83,13.13-3.48,14.41-3.88,7.64-21.12,4.67-26.56,4.12-7.37-.75-23.73-2.41-34.62-15.04-3.99-4.64-5.8-9.07-7.14-12.44-14.56-36.7-19.52-45.27-18.9-64.05Z"/>
      <path class="cls-11" d="m333.55,272.16c.19-9.49,2.37-19.24,6.74-38.74,0,0,.79-3.53,5.33-14.88,2.04-5.1,2.07-9.8,9.42-12.68,3.65-1.43,7.53,2.97,8.82,3.91,10.76,7.93,19.71,34.2,22.82,41.38,6.17,14.25,9.73,20.64,13.84,30.54,2.75,6.64,6.91,18.13,11.35,27.51,9.32,19.71,11.04,20.69,12.35,25.19.62,2.13,1.87,6.95,2.81,12.98.25,1.63.65,2.79.61,6.35-.09,8.15-2.66,13.17-3.3,14.46-3.78,7.69-21.06,4.94-26.5,4.46-7.38-.65-23.76-2.1-34.81-14.6-4.05-4.59-5.92-9-7.3-12.35-15.04-36.51-22.55-54.76-22.18-73.54Z"/>
      <g id="Layer_31" data-name="Layer 31">
        <path class="cls-11" d="m269.43,193.55l3.08-3.64c.22-.21.65-.13.76.02,1.25,1.57.91,4.69,1.69,7.57,1.07,3.98,9.6,12.39,16.39,12.99s14.19,1.2,19.99-1.2c5.8-2.4,8.48-6.15,10.99-10.59,2.18-3.85,3.45-9.63,4.22-11.3.13-.28.41-.5.71-.43,1.2.29,3.02,1.31,2.71,2.39-.42,1.5-1.24,13.77-6.13,19.24-3.38,3.78-4.36,7.56-15.75,10.05-12.82,2.8-19.68.36-26.75-2.98-5.21-2.46-7.88-5.23-10.25-9.74-3.36-6.4-1.9-11.47-1.79-12.11,0-.1.09-.22.12-.27Z"/>
      </g>
      <path class="cls-9" d="m376.88,349.6c-.8-.74-10.76,3.34-17.72,8.45-7.04,5.17-10.31,6.82-15.68,12.18-5.37,5.37-12.6,14.5-14.28,16.51-1.68,2.01-3.32,5.97-3.32,5.97l13.39,24.45s7.46,2.21,20.75-4.51c13.12-6.63,24.05-13.56,34.78-21.62,10.73-8.05,4.17-8.68,9.8-17.52,5.63-8.84-27.43-23.77-27.72-23.92Z"/>
      <path class="cls-11" d="m378.2,350.11s-7.89,3.14-15.18,7.94c-7.29,4.8-10.31,6.82-15.68,12.18-5.37,5.37-14.09,14.76-15.77,16.77s-5.7,5.7-5.7,5.7l11.07,33.55s13.64-6.89,26.94-13.61c13.12-6.63,24.05-13.56,34.78-21.62,10.73-8.05,18.74-12.1,24.3-20.98,5.56-8.88-44.76-19.95-44.76-19.95Z"/>
      <path class="cls-9" d="m232.56,436.23s2.88-1.69,5.39-2.03-1.37-.96.79-4.95c2.16-3.98,3.18-6.24,4.89-7.26s-5.25-3.04-4.5-4.1c1.11-1.54,6.46-7.7,5.95-8.17.54-.92,1.08-6.98-3.08-11-4.57-4.42-12.03-13.09-16.81-19.69-4.78-6.6-9.95-13.44-14.61-18.9-4.67-5.46-7.63-10.36-13.21-14-5.58-3.64-17.24-11.25-23.07-9.52-4.59,1.36-19.94,27.71-19.94,27.71,0,0-5.86,11.64-4.23,13.26,1.63,1.61,9.12,9.58,16.64,15.55,7.52,5.97,19.46,14.26,26.53,19.24,7.08,4.97,15.59,9.84,22.22,13.82,6.63,3.98,14.87,8.88,17.02,10.06Z"/>
      <path class="cls-8" d="m240.29,437.79c-1.77-11.1,7.89-18.85,12.98-18.29,3.61.4,2.79,7.51,11.12,14.33,3.17,2.6,6.19,3.94,7.41,4.45,2.44,1.01,5.35,1.82,10.37,2.22,2.29.18,7.63.5,15.81-.49,7.45-.91,13.26-2.86,16.88-1.59,3.82,1.34,3.73,1.96,3.77,2.31.15,1.16-1.37,3.05-2.7,3.86-4.43,2.7-11.21,5.54-16.28,6.57-4.64.94-9.13,1.33-15.3,1.58-6.91.29-12.01,1.12-18.39,0-9.36-1.65-17.34-5.7-22.31-10.89-.92-.96-3.14-2.69-3.36-4.05Z"/>
      <path class="cls-11" d="m229.73,436.3s8.54,5.87,11.04,5.52,2.51-4.07,4.68-8.05c2.16-3.98,5.53-9.35,7.24-10.38s2.92-3.4,3.68-4.46c1.11-1.54-2.11-5.67-2.62-6.15.54-.92-9.79-10.03-14.57-14-4.89-4.06-13.21-14.69-17.99-21.29s-8.77-11.84-13.43-17.3c-4.67-5.46-7.63-10.36-13.21-14-5.58-3.64-16.99-9.52-23.07-9.52s-19.94,27.71-19.94,27.71c0,0-5.86,11.64-4.23,13.26s9.12,9.58,16.64,15.55c7.52,5.97,19.46,14.26,26.53,19.24,7.08,4.97,15.59,9.84,22.22,13.82,6.63,3.98,14.87,8.88,17.02,10.06Z"/>
    </g>
    <g id="Kaffe_hænder" data-name="Kaffe + hænder">
      <ellipse class="cls-10" cx="287.45" cy="364.88" rx="43.8" ry="12.17"/>
      <ellipse class="cls-4" cx="287.45" cy="372.39" rx="43.8" ry="12.17"/>
      <path class="cls-10" d="m243.65,364.88s-.42,10.32,1.19,22.41,5.28,26.05,7.99,36.65c3.92,15.35,3.66,13.64,3.66,13.64,0,0,9.45,2.8,30.97,2.81,23.59,0,31.23-3.14,31.23-3.14,0,0,2.09-5.89,5.46-15.9,2.62-7.8,6.32-25.94,7.12-38.31.62-9.58,0-18.15,0-18.15,0,0-15.34,7.09-42.06,7.3-26.72.21-45.54-7.3-45.54-7.3Z"/>
      <path class="cls-8" d="m336.25,395.42c3.05,5.61,7.38,15.47,6.73,22.08-.65,6.61-4.04,9.1-6.83,10.72-2.79,1.62-15.18,2.44-24.36,1.74-8.17-.62-13.18-3.89-15.13-5.09s-5.09-5.37-5.09-11.92-1.73-9.91.54-12.92c2.27-3.01,2.12-2.68,7.9-4.84,7.7-2.88,8.4-3.14,15.2-5.14,6.8-2,7.84-3.61,12.31-2.9,5.8.92,8.73,8.27,8.73,8.27Z"/>
      <path class="cls-8" d="m318.66,440.7c-1.02-5.75-4.61-4.77-4.61-4.77,0,0-6.41.38-10.54,1.47-4.55,1.2-9.41,2.67-13.61,2.82s-10.34,0-10.34,0v9.07l34.91-5.67,4.2-2.92Z"/>
      <path class="cls-9" d="m278.16,339.02c-.37-.99-1.66-2.23-1.36-3.44.05-.88.07-1.51.05-1.86,0-.1-.01-.15-.01-.13h0s0,0,0,0l.02-.03s0-.01-.04-.07c-.03-.04-.09-.1-.15-.16-.11-.12-.28-.27-.47-.43-.74-.67-2.07-1.58-3.51-3.11-2.74-2.94-4.09-6.4-4.73-9.51-.65-3.18-.66-6.11-.46-9.03.22-2.93.75-5.84,1.58-8.69,1.81-7.35,4.48-13.34,8.39-19.29-1,1.68-2.36,3.24-2.7,5.26-.61,4.04-.79,7.63-.34,11.5.16,1.74.63,3.64,1.05,5.5.4,1.87.74,3.71.6,5.52-.34,4.68.69,7.67,1.54,9,.87,1.34,1.35,1.36.88.66.3.5.94.64,1.54.66.65.02,1.18-.15,1.72-.02.72.35,1.69,1.1,2.81,2.31.28.31.55.63.84,1,.28.36.64.85.9,1.3.56.92.96,1.89,1.23,2.86.34,1.32.42,2.64.37,3.91.32.64.55,2.33.29,2.76-.43,1.06-.91,1.84-1.39,2.74-.48.88-.97,1.76-1.43,2.66-.91,1.81-1.71,3.74-2.1,6.01-.23-.44-.46-.87-.46-.87-.48.8-.72,1.2-1.21,2-1.41-2.62-2.32-6.04-3.46-9.04Z"/>
      <path class="cls-9" d="m293.88,339.99c-.25-1.08-1.46-2.42-1.12-3.69.14-1.74.24-3.52.34-5.33.05-.92.11-1.83.16-2.73.05-.88.1-1.69.12-2.42-.02-3.17.09-3.43-1.96-7.16-4.13-7.51-4.9-16.85-1.25-24.69,1.85-4.42,4.81-7.82,8.22-10.28,3.43-2.44,7.47-4.01,11.81-4.1-2.35.14-4.92.34-6.9,1.82-1.94,1.5-3.44,3.2-4.62,5.01-1.19,1.81-2.04,3.78-2.49,5.86-.44,1.86-.45,3.97-.24,6,.19,2.04.48,3.98.46,5.96-.02,2.5.55,4.67,1.22,6.36.69,1.7,1.47,2.84,2.22,3.87.74,1.01,1.3,1.75,1.55,1.99.25.25.19-.03-.24-.75.58.95,1.43,1.71,2.3,2.67.86.96,1.68,2.03,2.13,3.33.69,2.67.36,4.92-.08,6.76-.45,1.81-1.04,3.52-1.45,5.29.21.51.37,2.07.11,2.58-.92,2.31-2.12,4.47-3.4,6.63-1.28,2.17-2.65,4.34-4.15,6.76,0-.58-.01-1.15-.01-1.15-.82.73-1.25,1.06-2.1,1.68.19-3.32.19-7-.64-10.26Z"/>
    </g>
  </g>
</svg>